STARTFONT 2.1
COMMENT
COMMENT Converted from OpenType font "Q:\font stuff\winfont\76London.otf" by "otf2bdf 3.0".
COMMENT
FONT -FreeType-76London-Medium-R-Normal--84-840-72-72-P-341-ISO10646-1
SIZE 84 72 72
FONTBOUNDINGBOX 88 101 -3 -18
STARTPROPERTIES 19
FOUNDRY "FreeType"
FAMILY_NAME "76London"
WEIGHT_NAME "Medium"
SLANT "R"
SETWIDTH_NAME "Normal"
ADD_STYLE_NAME ""
PIXEL_SIZE 70
POINT_SIZE 840
RESOLUTION_X 72
RESOLUTION_Y 72
SPACING "P"
AVERAGE_WIDTH 341
CHARSET_REGISTRY "ISO10646"
CHARSET_ENCODING "1"
FONT_ASCENT 83
FONT_DESCENT 17
COPYRIGHT "Copyright © 1997 [T-26] 1110 N. Milwaukee Ave. IL 60622. T0279 ID#5092439 Designer: Peter Bruhn"
_OTF_FONTFILE "Q:\font stuff\winfont\76London.otf"
_OTF_PSNAME "76London"
ENDPROPERTIES
CHARS 211
STARTCHAR 0020
ENCODING 32
SWIDTH 297 0
DWIDTH 25 0
BBX 0 0 0 0
BITMAP
ENDCHAR
STARTCHAR 0021
ENCODING 33
SWIDTH 297 0
DWIDTH 25 0
BBX 14 65 5 0
BITMAP
3FF0
7FF8
FFFC
FFFC
FFFC
FFFC
FFFC
FFFC
FFFC
FFFC
FFFC
FFFC
FFFC
FFFC
FFFC
FFFC
FFFC
FFFC
FFFC
FFFC
FFFC
FFFC
FFFC
FFFC
FFFC
FFFC
FFFC
FFFC
FFFC
FFFC
FFFC
FFFC
FFFC
FFFC
FFFC
FFFC
FFFC
FFFC
FFFC
FFFC
FFFC
FFFC
FFFC
FFFC
FFFC
FFFC
FFFC
FFFC
FFFC
FFFC
0000
0000
0000
3FF0
7FF8
FFFC
FFFC
FFFC
FFFC
FFFC
FFFC
FFFC
FFFC
7FF8
3FF0
ENDCHAR
STARTCHAR 0022
ENCODING 34
SWIDTH 428 0
DWIDTH 36 0
BBX 24 20 6 45
BITMAP
3F80FE
7FC1FF
FFC3FF
FFC3FF
7FC1FF
7F81FE
7F81FE
7F81FE
7F81FE
7F81FE
7F81FE
7F81FE
7F81FE
3F00FC
3F00FC
3F00FC
3F00FC
3F00FC
3F00FC
3F00FC
ENDCHAR
STARTCHAR 0023
ENCODING 35
SWIDTH 607 0
DWIDTH 51 0
BBX 48 65 1 0
BITMAP
00001FE01FE0
00001FC01FE0
00001FC01FE0
00001FC01FC0
00003FC01FC0
00003F803FC0
00003F803FC0
00003F803F80
00007F803F80
00007F807F80
00007F007F80
00007F007F00
0000FF007F00
0000FF00FF00
0000FE00FF00
0000FE00FF00
0001FE00FE00
01FFFFFFFFFF
03FFFFFFFFFF
03FFFFFFFFFE
03FFFFFFFFFE
03FFFFFFFFFE
07FFFFFFFFFE
07FFFFFFFFFE
07FFFFFFFFFC
0007F803F800
0007F803F800
0007F807F800
0007F007F800
0007F007F000
000FF007F000
000FF00FF000
000FE00FF000
000FE00FE000
001FE00FE000
001FE01FE000
001FC01FE000
001FC01FE000
003FC01FC000
7FFFFFFFFFE0
7FFFFFFFFFC0
7FFFFFFFFFC0
7FFFFFFFFFC0
FFFFFFFFFFC0
FFFFFFFFFF80
FFFFFFFFFF80
FFFFFFFFFF80
00FF007F0000
00FF00FF0000
00FE00FF0000
00FE00FF0000
01FE00FE0000
01FE01FE0000
01FC01FE0000
01FC01FE0000
03FC01FC0000
03FC01FC0000
03FC03FC0000
03F803FC0000
03F803F80000
07F803F80000
07F807F80000
07F007F80000
07F007F80000
0FF007F00000
ENDCHAR
STARTCHAR 0024
ENCODING 36
SWIDTH 571 0
DWIDTH 48 0
BBX 39 65 6 0
BITMAP
0001FF0000
0001FF0000
0001FF0000
0001FF0000
0003FFFFE0
00FFFFFFE0
07FFFFFFE0
0FFFFFFFE0
1FFFFFFFE0
3FFFFFFFE0
7FFFFFFFE0
7FFFFFFFE0
7FFF8FFFE0
7FF8000000
FFF8000000
FFF0000000
FFF0000000
FFF0000000
FFF0000000
FFF0000000
FFF0000000
FFF0000000
FFF0000000
FFF8000000
FFF8000000
FFFC000000
FFFF000000
7FFFFFFC00
7FFFFFFF80
3FFFFFFFE0
3FFFFFFFF0
1FFFFFFFF8
0FFFFFFFFC
03FFFFFFFC
007FFFFFFC
000001FFFE
0000007FFE
0000003FFE
0000003FFE
0000001FFE
0000001FFE
0000001FFE
0000001FFE
0000001FFE
0000001FFE
0000001FFE
0000001FFE
0000001FFE
0000001FFE
0000003FFE
0000007FFE
0FFFFFFFFC
0FFFFFFFFC
0FFFFFFFFC
0FFFFFFFFC
0FFFFFFFF8
0FFFFFFFF0
0FFFFFFFE0
0FFFFFFFC0
0FFFFFFC00
0001FF0000
0001FF0000
0001FF0000
0001FF0000
0001FF0000
ENDCHAR
STARTCHAR 0025
ENCODING 37
SWIDTH 726 0
DWIDTH 61 0
BBX 53 66 3 0
BITMAP
03FFE000007E00
1FFFFC00007E00
3FFFFE0000FC00
7FFFFF0000FC00
7FC1FF0001F800
7F007F8003F000
FE003F8003F000
FE003F8007E000
FE003F8007E000
FE003F800FC000
FE003F800FC000
FE003F801F8000
FE003F801F8000
FE003F803F0000
FE003F803F0000
FE003F807E0000
FE003F80FC0000
FE003F80FC0000
FE003F81F80000
FE003F81F80000
FE003F83F00000
FE003F83F00000
FE003F87E00000
FE003F87E00000
FF007F8FC00000
FF007F8FC00000
7F80FF1F800000
7FFFFF3F000000
3FFFFE3F000000
1FFFFC7E000000
07FFE07E000000
000000FC000000
000000FC000000
000001F8000000
000001F8000000
000003F0000000
000003E0000000
000007E03FFE00
00000FC1FFFFC0
00000FC3FFFFE0
00001F87FFFFF0
00001F87F80FF0
00003F0FF007F8
00003F0FE003F8
00007E0FE003F8
00007E0FE003F8
0000FC0FE003F8
0001F80FE003F8
0001F80FE003F8
0003F00FE003F8
0003F00FE003F8
0007E00FE003F8
0007E00FE003F8
000FC00FE003F8
000FC00FE003F8
001F800FE003F8
001F800FE003F8
003F000FE003F8
007E000FE003F8
007E000FF003F8
00FC000FF007F8
00FC0007F80FF0
01F80007FFFFF0
01F80003FFFFE0
03F00001FFFFC0
03F000007FFF00
ENDCHAR
STARTCHAR 0026
ENCODING 38
SWIDTH 678 0
DWIDTH 57 0
BBX 48 65 4 -1
BITMAP
000FFFFFE000
00FFFFFFE000
07FFFFFFE000
0FFFFFFFE000
1FFFFFFFE000
3FFFFFFFE000
7FFFFFFFE000
7FFFFFFFE000
7FFFFFFFE000
FFFFFFFFE000
FFFC00000000
FFF800000000
FFF000000000
FFF000000000
FFF000000000
FFF000000000
FFF000000000
FFF000000000
FFF000000000
FFF000000000
FFF000000000
FFF000000000
FFF000000000
FFF800000000
FFF800000000
FFFE00000000
7FFFFFFFFFFF
7FFFFFFFFFFF
3FFFFFFFFFFF
1FFFFFFFFFFF
07FFFFFFFFFF
07FFFFFFFFFF
0FFFFFFFFFFF
1FFFFFFFFFFF
3FFFFFFFFFFF
7FFF000FFF00
7FFC000FFF00
7FF8000FFF00
FFF8000FFF00
FFF0000FFF00
FFF0000FFF00
FFF0000FFF00
FFF0000FFF00
FFF0000FFF00
FFF0000FFF00
FFF0000FFF00
FFF0000FFF00
FFF0000FFF00
FFF0000FFF00
FFF0000FFF00
FFF0000FFF00
FFF0000FFF00
FFF0000FFF00
FFF8000FFF00
7FF8001FFF00
7FFE003FFF00
7FFFFFFFFF00
7FFFFFFFFF00
7FFFFFFFFE00
3FFFFFFFFE00
3FFFFFFFFC00
1FFFFFFFFC00
0FFFFFFFF800
07FFFFFFE000
00FFFFFE0000
ENDCHAR
STARTCHAR 0027
ENCODING 39
SWIDTH 297 0
DWIDTH 25 0
BBX 10 20 7 45
BITMAP
3F80
7FC0
FFC0
FFC0
7FC0
7F80
7F80
7F80
7F80
7F80
7F80
7F80
7F80
3F00
3F00
3F00
3F00
3F00
3F00
3F00
ENDCHAR
STARTCHAR 0028
ENCODING 40
SWIDTH 297 0
DWIDTH 25 0
BBX 21 65 3 0
BITMAP
0001F8
000FF8
003FF8
00FFF8
01FF00
03FC00
07FC00
0FF800
0FF800
1FF800
1FF000
3FF000
3FF000
3FF000
7FF000
7FF000
7FF000
7FF000
7FF000
7FF000
FFF000
FFF000
FFF000
FFF000
FFF000
FFF000
FFF000
FFF000
FFF000
FFF000
FFF000
FFF000
FFF000
FFF000
FFF000
FFF000
FFF000
FFF000
FFF000
FFF000
FFF000
FFF000
FFF000
FFF000
FFF000
7FF000
7FF000
7FF000
7FF000
7FF000
7FF000
3FF000
3FF000
3FF000
3FF800
1FF800
1FF800
0FF800
07FC00
07FE00
03FF00
01FFF8
007FF8
001FF8
0001F8
ENDCHAR
STARTCHAR 0029
ENCODING 41
SWIDTH 297 0
DWIDTH 25 0
BBX 21 65 1 0
BITMAP
FE0000
FFC000
FFF000
FFFC00
07FE00
01FF00
01FF80
00FF80
00FFC0
00FFC0
007FE0
007FE0
007FE0
007FF0
007FF0
007FF0
007FF0
007FF0
007FF0
007FF0
007FF8
007FF8
007FF8
007FF8
007FF8
007FF8
007FF8
007FF8
007FF8
007FF8
007FF8
007FF8
007FF8
007FF8
007FF8
007FF8
007FF8
007FF8
007FF8
007FF8
007FF8
007FF8
007FF8
007FF8
007FF8
007FF8
007FF0
007FF0
007FF0
007FF0
007FF0
007FE0
007FE0
007FE0
007FC0
007FC0
00FF80
00FF80
01FF00
01FE00
03FC00
FFF800
FFE000
FF8000
FC0000
ENDCHAR
STARTCHAR 002A
ENCODING 42
SWIDTH 607 0
DWIDTH 51 0
BBX 29 31 10 34
BITMAP
001FC000
001FC000
001FC000
001FC000
001FC000
001FC000
001FC000
101FC060
381FC0E0
3E1FC3F0
3F9FCFF0
3FDFDFF0
7FFFFFF8
7FFFFFF8
7FFFFFF8
FFFFFFC0
007FE000
003FF000
003FF000
007FF800
00FFFC00
01FFFE00
03FDFF00
07FCFF80
07F8FF80
0FF87FC0
07F07F80
03F03E00
00F03C00
00601800
00200000
ENDCHAR
STARTCHAR 002B
ENCODING 43
SWIDTH 607 0
DWIDTH 51 0
BBX 43 44 4 1
BITMAP
00007F800000
0000FFC00000
0001FFE00000
0001FFE00000
0001FFE00000
0001FFE00000
0001FFE00000
0001FFE00000
0001FFE00000
0001FFE00000
0001FFE00000
0001FFE00000
0001FFE00000
0001FFE00000
0001FFE00000
0001FFE00000
3FFFFFFFFF80
FFFFFFFFFFC0
FFFFFFFFFFE0
FFFFFFFFFFE0
FFFFFFFFFFE0
FFFFFFFFFFE0
FFFFFFFFFFE0
FFFFFFFFFFE0
FFFFFFFFFFE0
FFFFFFFFFFE0
FFFFFFFFFFC0
7FFFFFFFFF80
0001FFE00000
0001FFE00000
0001FFE00000
0001FFE00000
0001FFE00000
0001FFE00000
0001FFE00000
0001FFE00000
0001FFE00000
0001FFE00000
0001FFE00000
0001FFE00000
0001FFE00000
0001FFE00000
0000FFC00000
00007F800000
ENDCHAR
STARTCHAR 002C
ENCODING 44
SWIDTH 297 0
DWIDTH 25 0
BBX 14 19 5 -7
BITMAP
3FF0
7FF8
FFFC
FFFC
FFFC
FFFC
FFFC
FFFC
FFFC
FFFC
7FF8
3FF8
03F8
07F0
7FF0
FFE0
FF80
FF00
F800
ENDCHAR
STARTCHAR 002D
ENCODING 45
SWIDTH 369 0
DWIDTH 31 0
BBX 20 12 5 17
BITMAP
3FFFC0
7FFFE0
FFFFF0
FFFFF0
FFFFF0
FFFFF0
FFFFF0
FFFFF0
FFFFF0
FFFFF0
7FFFE0
3FFFC0
ENDCHAR
STARTCHAR 002E
ENCODING 46
SWIDTH 297 0
DWIDTH 25 0
BBX 14 12 5 1
BITMAP
3FF0
7FF8
FFFC
FFFC
FFFC
FFFC
FFFC
FFFC
FFFC
FFFC
7FF8
3FF0
ENDCHAR
STARTCHAR 002F
ENCODING 47
SWIDTH 297 0
DWIDTH 25 0
BBX 22 65 1 0
BITMAP
0000FC
0000FC
0000FC
0001FC
0001F8
0001F8
0001F8
0003F8
0003F0
0003F0
0003F0
0007E0
0007E0
0007E0
0007E0
000FC0
000FC0
000FC0
000FC0
001F80
001F80
001F80
001F80
003F00
003F00
003F00
007F00
007E00
007E00
007E00
00FE00
00FC00
00FC00
00FC00
01F800
01F800
01F800
01F800
03F000
03F000
03F000
03F000
07E000
07E000
07E000
07E000
0FC000
0FC000
0FC000
0FC000
1F8000
1F8000
1F8000
3F0000
3F0000
3F0000
3F0000
7E0000
7E0000
7E0000
7E0000
FC0000
FC0000
FC0000
FC0000
ENDCHAR
STARTCHAR 0030
ENCODING 48
SWIDTH 607 0
DWIDTH 51 0
BBX 41 65 4 0
BITMAP
000FFFF80000
00FFFFFF8000
03FFFFFFE000
07FFFFFFF000
0FFFFFFFF800
1FFFFFFFFC00
3FFFFFFFFE00
3FFFFFFFFE00
7FFFFFFFFF00
7FFF80FFFF00
7FFE003FFF00
7FFC001FFF00
7FF8000FFF00
FFF8000FFF80
FFF8000FFF80
FFF00007FF80
FFF00007FF80
FFF00007FF80
FFF00007FF80
FFF00007FF80
FFF00007FF80
FFF00007FF80
FFF00007FF80
FFF00007FF80
FFF00007FF80
FFF00007FF80
FFF00007FF80
FFF00007FF80
FFF00007FF80
FFF00007FF80
FFF00007FF80
FFF00007FF80
FFF00007FF80
FFF00007FF80
FFF00007FF80
FFF00007FF80
FFF00007FF80
FFF00007FF80
FFF00007FF80
FFF00007FF80
FFF00007FF80
FFF00007FF80
FFF00007FF80
FFF00007FF80
FFF00007FF80
FFF00007FF80
FFF00007FF80
FFF00007FF80
FFF00007FF80
FFF80007FF80
FFF8000FFF80
FFF8000FFF80
7FF8000FFF00
7FFC001FFF00
7FFE001FFF00
7FFF007FFF00
7FFFFFFFFF00
3FFFFFFFFE00
3FFFFFFFFE00
1FFFFFFFFC00
1FFFFFFFF800
0FFFFFFFF800
03FFFFFFE000
00FFFFFF8000
001FFFF80000
ENDCHAR
STARTCHAR 0031
ENCODING 49
SWIDTH 345 0
DWIDTH 29 0
BBX 18 65 5 0
BITMAP
FFE000
FFF800
FFFC00
FFFE00
FFFF00
FFFF00
FFFF00
FFFF80
FFFF80
FFFF80
0FFF80
07FF80
07FFC0
03FFC0
03FFC0
03FFC0
03FFC0
03FFC0
03FFC0
03FFC0
03FFC0
03FFC0
03FFC0
03FFC0
03FFC0
03FFC0
03FFC0
03FFC0
03FFC0
03FFC0
03FFC0
03FFC0
03FFC0
03FFC0
03FFC0
03FFC0
03FFC0
03FFC0
03FFC0
03FFC0
03FFC0
03FFC0
03FFC0
03FFC0
03FFC0
03FFC0
03FFC0
03FFC0
03FFC0
03FFC0
03FFC0
03FFC0
03FFC0
03FFC0
03FFC0
03FFC0
03FFC0
03FFC0
03FFC0
03FFC0
03FFC0
03FFC0
03FFC0
03FFC0
03FFC0
ENDCHAR
STARTCHAR 0032
ENCODING 50
SWIDTH 607 0
DWIDTH 51 0
BBX 39 65 6 0
BITMAP
0FFFFFF000
0FFFFFFF00
0FFFFFFFC0
0FFFFFFFE0
0FFFFFFFF0
0FFFFFFFF8
0FFFFFFFF8
0FFFFFFFFC
0FFFFFFFFC
0FFFFFFFFC
0000007FFE
0000003FFE
0000001FFE
0000001FFE
0000001FFE
0000001FFE
0000001FFE
0000001FFE
0000001FFE
0000001FFE
0000001FFE
0000001FFE
0000003FFE
0000003FFE
0000007FFE
000000FFFE
000003FFFC
007FFFFFFC
03FFFFFFFC
07FFFFFFFC
1FFFFFFFF8
1FFFFFFFF0
3FFFFFFFF0
7FFFFFFFC0
7FFFFFFF80
7FFFFFFC00
7FFF800000
FFFE000000
FFFC000000
FFF8000000
FFF8000000
FFF0000000
FFF0000000
FFF0000000
FFF0000000
FFF0000000
FFF0000000
FFF0000000
FFF0000000
FFF0000000
FFF0000000
FFF0000000
FFF0000000
FFF0000000
FFF0000000
FFFFFFFFFE
FFFFFFFFFE
FFFFFFFFFE
FFFFFFFFFE
FFFFFFFFFE
FFFFFFFFFE
FFFFFFFFFE
FFFFFFFFFE
FFFFFFFFFE
FFFFFFFFFE
ENDCHAR
STARTCHAR 0033
ENCODING 51
SWIDTH 511 0
DWIDTH 43 0
BBX 35 65 4 0
BITMAP
FFFFFFE000
FFFFFFFC00
FFFFFFFE00
FFFFFFFF00
FFFFFFFF00
FFFFFFFF80
FFFFFFFF80
FFFFFFFF80
FFFFFFFFC0
0000FFFFC0
00000FFFC0
000007FFC0
000003FFC0
000003FFE0
000003FFE0
000001FFE0
000001FFE0
000001FFE0
000001FFE0
000001FFE0
000001FFE0
000001FFE0
000001FFE0
000001FFE0
000001FFE0
000001FFE0
000001FFE0
01FFFFFFE0
01FFFFFFE0
01FFFFFFE0
01FFFFFFE0
01FFFFFFE0
01FFFFFFE0
01FFFFFFE0
01FFFFFFE0
01FFFFFFE0
000001FFE0
000001FFE0
000001FFE0
000001FFE0
000001FFE0
000001FFE0
000001FFE0
000001FFE0
000001FFE0
000001FFE0
000001FFE0
000001FFE0
000001FFE0
000001FFE0
000003FFE0
000003FFE0
000003FFE0
000007FFC0
00000FFFC0
FFFFFFFFC0
FFFFFFFFC0
FFFFFFFFC0
FFFFFFFF80
FFFFFFFF80
FFFFFFFF80
FFFFFFFF00
FFFFFFFE00
FFFFFFFC00
FFFFFFF000
ENDCHAR
STARTCHAR 0034
ENCODING 52
SWIDTH 607 0
DWIDTH 51 0
BBX 38 65 6 0
BITMAP
FFF0003FFC
FFF0003FFC
FFF0003FFC
FFF0003FFC
FFF0003FFC
FFF0003FFC
FFF0003FFC
FFF0003FFC
FFF0003FFC
FFF0003FFC
FFF0003FFC
FFF0003FFC
FFF0003FFC
FFF0003FFC
FFF0003FFC
FFF0003FFC
FFF0003FFC
FFF0003FFC
FFF0003FFC
FFF0003FFC
FFF0003FFC
FFF0003FFC
FFF8003FFC
FFF8003FFC
FFF8003FFC
FFFC003FFC
7FFE003FFC
7FFFFFFFFC
7FFFFFFFFC
7FFFFFFFFC
3FFFFFFFFC
3FFFFFFFFC
1FFFFFFFFC
0FFFFFFFFC
07FFFFFFFC
01FFFFFFFC
0000003FFC
0000003FFC
0000003FFC
0000003FFC
0000003FFC
0000003FFC
0000003FFC
0000003FFC
0000003FFC
0000003FFC
0000003FFC
0000003FFC
0000003FFC
0000003FFC
0000003FFC
0000003FFC
0000003FFC
0000003FFC
0000003FFC
0000003FFC
0000003FFC
0000003FFC
0000003FFC
0000003FFC
0000003FFC
0000003FFC
0000003FFC
0000003FFC
0000003FFC
ENDCHAR
STARTCHAR 0035
ENCODING 53
SWIDTH 607 0
DWIDTH 51 0
BBX 39 65 6 0
BITMAP
001FFFFFC0
01FFFFFFC0
07FFFFFFC0
0FFFFFFFC0
1FFFFFFFC0
3FFFFFFFC0
3FFFFFFFC0
7FFFFFFFC0
7FFFFFFFC0
7FFFFFFFC0
7FFC000000
FFF8000000
FFF0000000
FFF0000000
FFF0000000
FFF0000000
FFF0000000
FFF0000000
FFF0000000
FFF0000000
FFF0000000
FFF0000000
FFF0000000
FFF0000000
FFF0000000
FFF0000000
FFFFFFFC00
FFFFFFFF80
FFFFFFFFC0
FFFFFFFFF0
FFFFFFFFF0
FFFFFFFFF8
FFFFFFFFFC
FFFFFFFFFC
FFFFFFFFFC
000001FFFC
000000FFFE
0000007FFE
0000003FFE
0000003FFE
0000001FFE
0000001FFE
0000001FFE
0000001FFE
0000001FFE
0000001FFE
0000001FFE
0000001FFE
0000001FFE
0000001FFE
0000001FFE
0000001FFE
0000001FFE
0000003FFE
0000007FFE
FFFFFFFFFC
FFFFFFFFFC
FFFFFFFFFC
FFFFFFFFF8
FFFFFFFFF8
FFFFFFFFF0
FFFFFFFFE0
FFFFFFFFC0
FFFFFFFF00
FFFFFFF000
ENDCHAR
STARTCHAR 0036
ENCODING 54
SWIDTH 607 0
DWIDTH 51 0
BBX 40 65 5 0
BITMAP
01FFFFFFE0
07FFFFFFE0
0FFFFFFFE0
1FFFFFFFE0
3FFFFFFFE0
3FFFFFFFE0
3FFFFFFFE0
7FFFFFFFE0
7FFFFFFFE0
7FFFFFFFE0
7FFE000000
7FFC000000
7FF8000000
FFF8000000
FFF8000000
FFF0000000
FFF0000000
FFF0000000
FFF0000000
FFF0000000
FFF0000000
FFF0000000
FFF0000000
FFF0000000
FFF0000000
FFF01FFC00
FFF0FFFFC0
FFF1FFFFE0
FFF7FFFFF8
FFFFFFFFF8
FFFFFFFFFC
FFFFFFFFFE
FFFFFFFFFE
FFFFFFFFFE
FFFF80FFFF
FFFC007FFF
FFF8001FFF
FFF8001FFF
FFF0000FFF
FFF0000FFF
FFF0000FFF
FFF0000FFF
FFF0000FFF
FFF0000FFF
FFF0000FFF
FFF0000FFF
FFF0000FFF
FFF0000FFF
FFF0000FFF
FFF0000FFF
7FF0000FFF
7FF0000FFF
7FF0000FFF
7FF8000FFF
7FF8001FFF
3FFE003FFF
3FFFFFFFFF
3FFFFFFFFF
1FFFFFFFFE
1FFFFFFFFE
0FFFFFFFFE
07FFFFFFFC
03FFFFFFF8
00FFFFFFE0
000FFFFF00
ENDCHAR
STARTCHAR 0037
ENCODING 55
SWIDTH 547 0
DWIDTH 46 0
BBX 35 65 1 0
BITMAP
FFFFFFF000
FFFFFFFC00
FFFFFFFE00
FFFFFFFF00
FFFFFFFF80
FFFFFFFF80
FFFFFFFF80
FFFFFFFFC0
FFFFFFFFC0
FFFFFFFFC0
00000FFFC0
000007FFC0
000003FFE0
000003FFE0
000003FFE0
000001FFE0
000001FFE0
000001FFE0
000001FFE0
000001FFE0
000001FFE0
000001FFE0
000001FFE0
000001FFE0
000001FFE0
000001FFE0
000001FFE0
000001FFE0
000001FFE0
000001FFE0
000001FFE0
000001FFE0
000001FFE0
000001FFE0
000001FFE0
000001FFE0
000001FFE0
000001FFE0
000001FFE0
000001FFE0
000001FFE0
000001FFE0
000001FFE0
000001FFE0
000001FFE0
000001FFE0
000001FFE0
000001FFE0
000001FFE0
000001FFE0
000001FFE0
000001FFE0
000001FFE0
000001FFE0
000001FFE0
000001FFE0
000001FFE0
000001FFE0
000001FFE0
000001FFE0
000001FFE0
000001FFE0
000001FFE0
000001FFE0
000001FFE0
ENDCHAR
STARTCHAR 0038
ENCODING 56
SWIDTH 583 0
DWIDTH 49 0
BBX 41 65 4 0
BITMAP
001FFFFE0000
03FFFFFFE000
0FFFFFFFF800
1FFFFFFFFC00
3FFFFFFFFE00
3FFFFFFFFE00
7FFFFFFFFF00
7FFFFFFFFF00
7FFF80FFFF00
7FFC003FFF80
FFF8001FFF80
FFF8000FFF80
FFF8000FFF80
FFF00007FF80
FFF00007FF80
FFF00007FF80
FFF00007FF80
FFF00007FF80
FFF00007FF80
FFF00007FF80
FFF00007FF80
FFF00007FF80
FFF00007FF80
FFF00007FF80
FFF00007FF80
FFF00007FF80
FFF8000FFF80
7FF8000FFF80
7FFC001FFF00
7FFF007FFF00
3FFFFFFFFE00
3FFFFFFFFE00
1FFFFFFFFC00
1FFFFFFFFC00
3FFFFFFFFE00
3FFFFFFFFE00
7FFF007FFF00
7FFC001FFF00
7FF8000FFF00
FFF8000FFF80
FFF00007FF80
FFF00007FF80
FFF00007FF80
FFF00007FF80
FFF00007FF80
FFF00007FF80
FFF00007FF80
FFF00007FF80
FFF00007FF80
FFF00007FF80
FFF00007FF80
FFF00007FF80
FFF8000FFF80
FFF8000FFF80
FFFC000FFF80
FFFE001FFF80
7FFF80FFFF00
7FFFFFFFFF00
7FFFFFFFFF00
3FFFFFFFFE00
3FFFFFFFFE00
1FFFFFFFFC00
0FFFFFFFF800
03FFFFFFE000
003FFFFC0000
ENDCHAR
STARTCHAR 0039
ENCODING 57
SWIDTH 607 0
DWIDTH 51 0
BBX 39 65 6 0
BITMAP
00FFFFE000
07FFFFFE00
1FFFFFFF80
3FFFFFFFC0
7FFFFFFFE0
7FFFFFFFF0
7FFFFFFFF0
FFFFFFFFF8
FFFFFFFFF8
FFFC007FFC
FFF8003FFC
FFF0001FFC
FFF0001FFC
FFF0001FFC
FFF0001FFE
FFF0001FFE
FFF0001FFE
FFF0001FFE
FFF0001FFE
FFF0001FFE
FFF0001FFE
FFF0001FFE
FFF0001FFE
FFF0001FFE
FFF0001FFE
FFF0001FFE
FFF0001FFE
FFF8003FFE
FFF8003FFE
FFFC007FFE
FFFF01FFFE
7FFFFFFFFE
7FFFFFFFFE
7FFFFFFFFE
3FFFFFFFFE
1FFFFFFFFE
1FFFFFDFFE
07FFFF9FFE
03FFFE1FFE
007FF01FFE
0000001FFE
0000001FFE
0000001FFE
0000001FFE
0000001FFE
0000001FFE
0000001FFE
0000001FFE
0000001FFE
0000001FFE
0000001FFE
0000003FFE
0000003FFE
0000003FFC
0000007FFC
07FFFFFFFC
07FFFFFFFC
07FFFFFFFC
07FFFFFFF8
07FFFFFFF8
07FFFFFFF8
07FFFFFFF0
07FFFFFFE0
07FFFFFFC0
07FFFFFF00
ENDCHAR
STARTCHAR 003A
ENCODING 58
SWIDTH 297 0
DWIDTH 25 0
BBX 14 48 5 0
BITMAP
3FF0
7FF8
FFFC
FFFC
FFFC
FFFC
FFFC
FFFC
FFFC
FFFC
7FF8
3FF0
0000
0000
0000
0000
0000
0000
0000
0000
0000
0000
0000
0000
0000
0000
0000
0000
0000
0000
0000
0000
0000
0000
0000
0000
3FF0
7FF8
FFFC
FFFC
FFFC
FFFC
FFFC
FFFC
FFFC
FFFC
7FF8
3FF0
ENDCHAR
STARTCHAR 003B
ENCODING 59
SWIDTH 297 0
DWIDTH 25 0
BBX 14 55 5 -8
BITMAP
3FF0
7FF8
FFFC
FFFC
FFFC
FFFC
FFFC
FFFC
FFFC
FFFC
7FF8
3FF0
0000
0000
0000
0000
0000
0000
0000
0000
0000
0000
0000
0000
0000
0000
0000
0000
0000
0000
0000
0000
0000
0000
0000
0000
3FF0
7FF8
FFFC
FFFC
FFFC
FFFC
FFFC
FFFC
FFFC
FFFC
7FF8
3FF8
03F8
07F0
7FF0
FFE0
FF80
FF00
F800
ENDCHAR
STARTCHAR 003C
ENCODING 60
SWIDTH 226 0
DWIDTH 19 0
BBX 14 31 3 7
BITMAP
01FC
01F8
03F8
03F0
07F0
07E0
0FE0
1FC0
1FC0
3F80
3F80
7F00
7F00
FE00
FE00
FE00
FE00
7F00
7F00
3F00
3F80
1F80
1FC0
0FC0
0FE0
07E0
07F0
03F0
03F8
01F8
01FC
ENDCHAR
STARTCHAR 003D
ENCODING 61
SWIDTH 607 0
DWIDTH 51 0
BBX 44 33 3 7
BITMAP
1FFFFFFFFFC0
7FFFFFFFFFE0
7FFFFFFFFFE0
7FFFFFFFFFF0
FFFFFFFFFFF0
FFFFFFFFFFF0
FFFFFFFFFFF0
FFFFFFFFFFF0
FFFFFFFFFFF0
7FFFFFFFFFE0
7FFFFFFFFFE0
3FFFFFFFFFC0
000000000000
000000000000
000000000000
000000000000
000000000000
000000000000
000000000000
000000000000
000000000000
1FFFFFFFFFC0
7FFFFFFFFFE0
7FFFFFFFFFE0
7FFFFFFFFFF0
FFFFFFFFFFF0
FFFFFFFFFFF0
FFFFFFFFFFF0
FFFFFFFFFFF0
FFFFFFFFFFF0
7FFFFFFFFFE0
7FFFFFFFFFE0
3FFFFFFFFFC0
ENDCHAR
STARTCHAR 003E
ENCODING 62
SWIDTH 238 0
DWIDTH 20 0
BBX 15 31 2 7
BITMAP
FE00
7E00
7F00
3F00
3F80
1F80
1FC0
0FC0
0FE0
07E0
07F0
03F0
03F8
01F8
01FC
00FC
00FE
01FC
01FC
03F8
03F8
07F0
07E0
0FE0
0FC0
1FC0
1F80
3F80
3F00
7F00
7E00
ENDCHAR
STARTCHAR 003F
ENCODING 63
SWIDTH 607 0
DWIDTH 51 0
BBX 34 65 11 0
BITMAP
FFFFFE0000
FFFFFFE000
FFFFFFF800
FFFFFFFC00
FFFFFFFE00
FFFFFFFF00
FFFFFFFF00
FFFFFFFF80
FFFFFFFF80
FFFFFFFF80
00000FFFC0
000007FFC0
000003FFC0
000003FFC0
000003FFC0
000003FFC0
000003FFC0
000003FFC0
000003FFC0
000003FFC0
000003FFC0
000003FFC0
000007FFC0
000007FFC0
00000FFFC0
00001FFFC0
00007FFFC0
007FFFFF80
03FFFFFF80
0FFFFFFF80
1FFFFFFF00
3FFFFFFE00
3FFFFFFE00
7FFFFFFC00
7FFFFFF000
7FFFFF8000
7FFF800000
FFFE000000
FFFC000000
FFF8000000
FFF8000000
FFF0000000
FFF0000000
FFF0000000
FFF0000000
FFF0000000
FFF0000000
FFF0000000
FFF0000000
FFF0000000
0000000000
0000000000
0000000000
3FE0000000
7FE0000000
FFF0000000
FFF0000000
FFF0000000
FFF0000000
FFF0000000
FFF0000000
FFF0000000
FFF0000000
7FE0000000
3FC0000000
ENDCHAR
STARTCHAR 0040
ENCODING 64
SWIDTH 880 0
DWIDTH 74 0
BBX 60 67 7 0
BITMAP
00001FFFFF800000
0007FFFFFFFC0000
003FFFFFFFFFC000
00FFFFFFFFFFF000
03FFFFFFFFFFF800
07FFFFFFFFFFFE00
0FFFE00000FFFF00
1FFC00000003FF80
1FE0000000007F80
3F80000000001FC0
3F00000000000FC0
7E000000000007E0
7E000000000007E0
7C000000000003E0
FC000000000003E0
F8000000000003F0
F80001FFF80001F0
F8000FFFFF0001F0
F8001FFFFF8001F0
F8003FFFFFC001F0
F8007FFFFFE001F0
F8007FE07FE001F0
F8007FC03FE001F0
F800FF801FF001F0
F800FF801FF001F0
F800FF801FF001F0
F800FF801FF001F0
F800FF801FF001F0
F800FF801FF001F0
F800FF801FF001F0
F800FF801FF001F0
F800FF801FF001F0
F800FF801FF001F0
F800FFFFFFFFFFF0
F800FFFFFFFFFFF0
F800FFFFFFFFFFF0
F800FFFFFFFFFFF0
F800FFFFFFFFFFF0
F800FF801FF00000
F800FF801FF00000
F800FF801FF00000
F800FF801FF00000
F800FF801FF00000
F800FF801FF00000
F800FF801FF00000
F800FF801FF00000
F800FF801FF00000
F800FF801FF00000
F800FF801FF00000
F800FF801FF00000
F800FF801FF00000
FC00FF801FF00000
7C00000000000000
7C00000000000000
7C00000000000000
7E00000000000000
3E00000000000000
3F00000000000000
1F80000000000000
1FC0000000000000
0FE0000000000000
07F8000000000000
03FF800000000000
01FFFFFFFFF00000
007FFFFFFFF00000
000FFFFFFFF00000
00003FFFFFF00000
ENDCHAR
STARTCHAR 0041
ENCODING 65
SWIDTH 607 0
DWIDTH 51 0
BBX 39 65 6 0
BITMAP
001FFFE000
01FFFFFE00
07FFFFFF80
0FFFFFFFE0
1FFFFFFFF0
3FFFFFFFF0
3FFFFFFFF8
3FFFFFFFF8
7FFFFFFFFC
7FFF01FFFC
7FFC007FFC
7FF8003FFC
FFF8003FFE
FFF8003FFE
FFF0001FFE
FFF0001FFE
FFF0001FFE
FFF0001FFE
FFF0001FFE
FFF0001FFE
FFF0001FFE
FFF0001FFE
FFF0001FFE
FFF0001FFE
FFF0001FFE
FFF0001FFE
FFF0001FFE
FFF0001FFE
FFF0001FFE
FFF0001FFE
FFFFFFFFFE
FFFFFFFFFE
FFFFFFFFFE
FFFFFFFFFE
FFFFFFFFFE
FFFFFFFFFE
FFFFFFFFFE
FFFFFFFFFE
FFFFFFFFFE
FFF0001FFE
FFF0001FFE
FFF0001FFE
FFF0001FFE
FFF0001FFE
FFF0001FFE
FFF0001FFE
FFF0001FFE
FFF0001FFE
FFF0001FFE
FFF0001FFE
FFF0001FFE
FFF0001FFE
FFF0001FFE
FFF0001FFE
FFF0001FFE
FFF0001FFE
FFF0001FFE
FFF0001FFE
FFF0001FFE
FFF0001FFE
FFF0001FFE
FFF0001FFE
FFF0001FFE
FFF0001FFE
FFF0001FFE
ENDCHAR
STARTCHAR 0042
ENCODING 66
SWIDTH 583 0
DWIDTH 49 0
BBX 39 65 6 0
BITMAP
001FFFF000
01FFFFFF00
07FFFFFFC0
0FFFFFFFE0
1FFFFFFFF0
3FFFFFFFF8
3FFFFFFFF8
3FFFFFFFFC
7FFFFFFFFC
7FFF01FFFC
7FFC007FFC
7FF8003FFE
FFF8003FFE
FFF8003FFE
FFF0001FFE
FFF0001FFE
FFF0001FFE
FFF0001FFE
FFF0001FFE
FFF0001FFE
FFF0001FFE
FFF0001FFE
FFF0001FFE
FFF0001FFE
FFF0003FFE
FFF0003FFC
FFF0007FFC
FFF001FFFC
FFFFFFFFF8
FFFFFFFFF0
FFFFFFFFE0
FFFFFFFF00
FFFFFFFE00
FFFFFFFFC0
FFFFFFFFE0
FFFFFFFFF0
FFF001FFF8
FFF000FFFC
FFF0007FFC
FFF0003FFE
FFF0003FFE
FFF0001FFE
FFF0001FFE
FFF0001FFE
FFF0001FFE
FFF0001FFE
FFF0001FFE
FFF0001FFE
FFF0001FFE
FFF0001FFE
FFF0001FFE
FFF0003FFE
FFF0003FFE
FFF0003FFE
FFF000FFFE
FFFFFFFFFE
FFFFFFFFFC
FFFFFFFFFC
FFFFFFFFFC
FFFFFFFFF8
FFFFFFFFF8
FFFFFFFFF0
FFFFFFFFE0
FFFFFFFFC0
FFFFFFFE00
ENDCHAR
STARTCHAR 0043
ENCODING 67
SWIDTH 511 0
DWIDTH 43 0
BBX 35 65 4 0
BITMAP
00FFFFFFE0
03FFFFFFE0
0FFFFFFFE0
1FFFFFFFE0
1FFFFFFFE0
3FFFFFFFE0
3FFFFFFFE0
3FFFFFFFE0
7FFFFFFFE0
7FFFE00000
7FFE000000
7FFC000000
7FF8000000
7FF8000000
FFF8000000
FFF0000000
FFF0000000
FFF0000000
FFF0000000
FFF0000000
FFF0000000
FFF0000000
FFF0000000
FFF0000000
FFF0000000
FFF0000000
FFF0000000
FFF0000000
FFF0000000
FFF0000000
FFF0000000
FFF0000000
FFF0000000
FFF0000000
FFF0000000
FFF0000000
FFF0000000
FFF0000000
FFF0000000
FFF0000000
FFF0000000
FFF0000000
FFF0000000
FFF0000000
FFF0000000
FFF0000000
FFF0000000
FFF0000000
FFF0000000
FFF0000000
FFF8000000
FFF8000000
7FF8000000
7FFC000000
7FFE000000
7FFFFFFFE0
7FFFFFFFE0
7FFFFFFFE0
3FFFFFFFE0
3FFFFFFFE0
3FFFFFFFE0
1FFFFFFFE0
0FFFFFFFE0
07FFFFFFE0
01FFFFFFE0
ENDCHAR
STARTCHAR 0044
ENCODING 68
SWIDTH 583 0
DWIDTH 49 0
BBX 39 65 6 0
BITMAP
FFFFFFFE00
FFFFFFFFC0
FFFFFFFFE0
FFFFFFFFF0
FFFFFFFFF0
FFFFFFFFF8
FFFFFFFFF8
FFFFFFFFF8
FFFFFFFFFC
FFF00FFFFC
FFF000FFFC
FFF0007FFC
FFF0003FFC
FFF0003FFE
FFF0003FFE
FFF0001FFE
FFF0001FFE
FFF0001FFE
FFF0001FFE
FFF0001FFE
FFF0001FFE
FFF0001FFE
FFF0001FFE
FFF0001FFE
FFF0001FFE
FFF0001FFE
FFF0001FFE
FFF0001FFE
FFF0001FFE
FFF0001FFE
FFF0001FFE
FFF0001FFE
FFF0001FFE
FFF0001FFE
FFF0001FFE
FFF0001FFE
FFF0001FFE
FFF0001FFE
FFF0001FFE
FFF0001FFE
FFF0001FFE
FFF0001FFE
FFF0001FFE
FFF0001FFE
FFF0001FFE
FFF0001FFE
FFF0001FFE
FFF0001FFE
FFF0001FFE
FFF0001FFE
FFF0003FFE
FFF0003FFE
FFF0003FFE
FFF0007FFC
FFF000FFFC
FFFFFFFFFC
FFFFFFFFFC
FFFFFFFFFC
FFFFFFFFF8
FFFFFFFFF8
FFFFFFFFF8
FFFFFFFFF0
FFFFFFFFE0
FFFFFFFFC0
FFFFFFFF00
ENDCHAR
STARTCHAR 0045
ENCODING 69
SWIDTH 511 0
DWIDTH 43 0
BBX 35 65 4 0
BITMAP
00FFFFFFE0
03FFFFFFE0
0FFFFFFFE0
1FFFFFFFE0
1FFFFFFFE0
3FFFFFFFE0
3FFFFFFFE0
3FFFFFFFE0
7FFFFFFFE0
7FFFE00000
7FFE000000
7FFC000000
7FF8000000
7FF8000000
FFF8000000
FFF0000000
FFF0000000
FFF0000000
FFF0000000
FFF0000000
FFF0000000
FFF0000000
FFF0000000
FFF0000000
FFF0000000
FFF0000000
FFF0000000
FFFFFFF000
FFFFFFF000
FFFFFFF000
FFFFFFF000
FFFFFFF000
FFFFFFF000
FFFFFFF000
FFFFFFF000
FFFFFFF000
FFF0000000
FFF0000000
FFF0000000
FFF0000000
FFF0000000
FFF0000000
FFF0000000
FFF0000000
FFF0000000
FFF0000000
FFF0000000
FFF0000000
FFF0000000
FFF0000000
FFF8000000
FFF8000000
7FF8000000
7FFC000000
7FFE000000
7FFFFFFFE0
7FFFFFFFE0
7FFFFFFFE0
3FFFFFFFE0
3FFFFFFFE0
3FFFFFFFE0
1FFFFFFFE0
0FFFFFFFE0
07FFFFFFE0
01FFFFFFE0
ENDCHAR
STARTCHAR 0046
ENCODING 70
SWIDTH 511 0
DWIDTH 43 0
BBX 35 65 4 0
BITMAP
00FFFFFFE0
03FFFFFFE0
0FFFFFFFE0
1FFFFFFFE0
1FFFFFFFE0
3FFFFFFFE0
3FFFFFFFE0
3FFFFFFFE0
7FFFFFFFE0
7FFFE00000
7FFE000000
7FFC000000
7FF8000000
7FF8000000
FFF8000000
FFF0000000
FFF0000000
FFF0000000
FFF0000000
FFF0000000
FFF0000000
FFF0000000
FFF0000000
FFF0000000
FFF0000000
FFF0000000
FFF0000000
FFFFFFF000
FFFFFFF000
FFFFFFF000
FFFFFFF000
FFFFFFF000
FFFFFFF000
FFFFFFF000
FFFFFFF000
FFFFFFF000
FFF0000000
FFF0000000
FFF0000000
FFF0000000
FFF0000000
FFF0000000
FFF0000000
FFF0000000
FFF0000000
FFF0000000
FFF0000000
FFF0000000
FFF0000000
FFF0000000
FFF0000000
FFF0000000
FFF0000000
FFF0000000
FFF0000000
FFF0000000
FFF0000000
FFF0000000
FFF0000000
FFF0000000
FFF0000000
FFF0000000
FFF0000000
FFF0000000
FFF0000000
ENDCHAR
STARTCHAR 0047
ENCODING 71
SWIDTH 583 0
DWIDTH 49 0
BBX 40 65 4 0
BITMAP
00FFFFFFE0
03FFFFFFE0
0FFFFFFFE0
0FFFFFFFE0
1FFFFFFFE0
3FFFFFFFE0
3FFFFFFFE0
3FFFFFFFE0
7FFFFFFFE0
7FFFE00000
7FFE000000
7FFC000000
7FF8000000
7FF8000000
FFF8000000
FFF0000000
FFF0000000
FFF0000000
FFF0000000
FFF0000000
FFF0000000
FFF0000000
FFF0000000
FFF0000000
FFF0000000
FFF0000000
FFF0000000
FFF0000000
FFF0000000
FFF0000000
FFF00FFFFF
FFF00FFFFF
FFF00FFFFF
FFF00FFFFF
FFF00FFFFF
FFF00FFFFF
FFF00FFFFF
FFF00FFFFF
FFF00FFFFF
FFF00007FF
FFF00007FF
FFF00007FF
FFF00007FF
FFF00007FF
FFF00007FF
FFF00007FF
FFF00007FF
FFF00007FF
FFF00007FF
FFF80007FF
FFF8000FFF
FFF8000FFF
FFF8001FFF
7FFC003FFF
7FFE007FFF
7FFFC3FFFF
7FFFFFFFFF
7FFFFFFFFF
3FFFFFFFFF
3FFFFFFFFF
1FFFFFF9FF
1FFFFFF83F
0FFFFFF00F
03FFFFC003
003FFE0000
ENDCHAR
STARTCHAR 0048
ENCODING 72
SWIDTH 607 0
DWIDTH 51 0
BBX 39 65 6 0
BITMAP
FFF0001FFE
FFF0001FFE
FFF0001FFE
FFF0001FFE
FFF0001FFE
FFF0001FFE
FFF0001FFE
FFF0001FFE
FFF0001FFE
FFF0001FFE
FFF0001FFE
FFF0001FFE
FFF0001FFE
FFF0001FFE
FFF0001FFE
FFF0001FFE
FFF0001FFE
FFF0001FFE
FFF0001FFE
FFF0001FFE
FFF0001FFE
FFF0001FFE
FFF0001FFE
FFF0001FFE
FFF0001FFE
FFF0001FFE
FFF0001FFE
FFFFFFFFFE
FFFFFFFFFE
FFFFFFFFFE
FFFFFFFFFE
FFFFFFFFFE
FFFFFFFFFE
FFFFFFFFFE
FFFFFFFFFE
FFFFFFFFFE
FFF0001FFE
FFF0001FFE
FFF0001FFE
FFF0001FFE
FFF0001FFE
FFF0001FFE
FFF0001FFE
FFF0001FFE
FFF0001FFE
FFF0001FFE
FFF0001FFE
FFF0001FFE
FFF0001FFE
FFF0001FFE
FFF0001FFE
FFF0001FFE
FFF0001FFE
FFF0001FFE
FFF0001FFE
FFF0001FFE
FFF0001FFE
FFF0001FFE
FFF0001FFE
FFF0001FFE
FFF0001FFE
FFF0001FFE
FFF0001FFE
FFF0001FFE
FFF0001FFE
ENDCHAR
STARTCHAR 0049
ENCODING 73
SWIDTH 273 0
DWIDTH 23 0
BBX 12 65 6 0
BITMAP
FFF0
FFF0
FFF0
FFF0
FFF0
FFF0
FFF0
FFF0
FFF0
FFF0
FFF0
FFF0
FFF0
FFF0
FFF0
FFF0
FFF0
FFF0
FFF0
FFF0
FFF0
FFF0
FFF0
FFF0
FFF0
FFF0
FFF0
FFF0
FFF0
FFF0
FFF0
FFF0
FFF0
FFF0
FFF0
FFF0
FFF0
FFF0
FFF0
FFF0
FFF0
FFF0
FFF0
FFF0
FFF0
FFF0
FFF0
FFF0
FFF0
FFF0
FFF0
FFF0
FFF0
FFF0
FFF0
FFF0
FFF0
FFF0
FFF0
FFF0
FFF0
FFF0
FFF0
FFF0
FFF0
ENDCHAR
STARTCHAR 004A
ENCODING 74
SWIDTH 547 0
DWIDTH 46 0
BBX 35 65 1 0
BITMAP
000001FFE0
000001FFE0
000001FFE0
000001FFE0
000001FFE0
000001FFE0
000001FFE0
000001FFE0
000001FFE0
000001FFE0
000001FFE0
000001FFE0
000001FFE0
000001FFE0
000001FFE0
000001FFE0
000001FFE0
000001FFE0
000001FFE0
000001FFE0
000001FFE0
000001FFE0
000001FFE0
000001FFE0
000001FFE0
000001FFE0
000001FFE0
000001FFE0
000001FFE0
000001FFE0
000001FFE0
000001FFE0
000001FFE0
000001FFE0
000001FFE0
000001FFE0
000001FFE0
000001FFE0
000001FFE0
000001FFE0
000001FFE0
000001FFE0
000001FFE0
000001FFE0
000001FFE0
000001FFE0
000001FFE0
000001FFE0
000001FFE0
000001FFE0
000003FFE0
000003FFE0
000003FFE0
000007FFC0
00000FFFC0
FFFFFFFFC0
FFFFFFFFC0
FFFFFFFFC0
FFFFFFFF80
FFFFFFFF80
FFFFFFFF80
FFFFFFFF00
FFFFFFFE00
FFFFFFFC00
FFFFFFF000
ENDCHAR
STARTCHAR 004B
ENCODING 75
SWIDTH 583 0
DWIDTH 49 0
BBX 38 65 6 0
BITMAP
FFF0001FFC
FFF0003FF8
FFF0007FF0
FFF0007FF0
FFF000FFE0
FFF000FFE0
FFF001FFC0
FFF001FFC0
FFF003FF80
FFF003FF80
FFF007FF00
FFF00FFF00
FFF00FFE00
FFF01FFE00
FFF01FFC00
FFF03FF800
FFF03FF800
FFF07FF000
FFF07FF000
FFF0FFE000
FFF0FFE000
FFF1FFC000
FFF3FFC000
FFF3FF8000
FFF7FF8000
FFF7FF0000
FFFFFF0000
FFFFFFF000
FFFFFFFE00
FFFFFFFF80
FFFFFFFFC0
FFFFFFFFE0
FFFFFFFFE0
FFFFFFFFF0
FFFFFFFFF8
FFFFFFFFF8
FFF003FFF8
FFF000FFFC
FFF0007FFC
FFF0007FFC
FFF0003FFC
FFF0003FFC
FFF0003FFC
FFF0003FFC
FFF0003FFC
FFF0003FFC
FFF0003FFC
FFF0003FFC
FFF0003FFC
FFF0003FFC
FFF0003FFC
FFF0003FFC
FFF0003FFC
FFF0003FFC
FFF0003FFC
FFF0003FFC
FFF0003FFC
FFF0003FFC
FFF0003FFC
FFF0003FFC
FFF0003FFC
FFF0003FFC
FFF0003FFC
FFF0003FFC
FFF0003FFC
ENDCHAR
STARTCHAR 004C
ENCODING 76
SWIDTH 500 0
DWIDTH 42 0
BBX 35 65 6 0
BITMAP
FFF0000000
FFF0000000
FFF0000000
FFF0000000
FFF0000000
FFF0000000
FFF0000000
FFF0000000
FFF0000000
FFF0000000
FFF0000000
FFF0000000
FFF0000000
FFF0000000
FFF0000000
FFF0000000
FFF0000000
FFF0000000
FFF0000000
FFF0000000
FFF0000000
FFF0000000
FFF0000000
FFF0000000
FFF0000000
FFF0000000
FFF0000000
FFF0000000
FFF0000000
FFF0000000
FFF0000000
FFF0000000
FFF0000000
FFF0000000
FFF0000000
FFF0000000
FFF0000000
FFF0000000
FFF0000000
FFF0000000
FFF0000000
FFF0000000
FFF0000000
FFF0000000
FFF0000000
FFF0000000
FFF0000000
FFF0000000
FFF0000000
FFF0000000
FFF8000000
FFF8000000
7FF8000000
7FFC000000
7FFE000000
7FFFFFFFE0
7FFFFFFFE0
7FFFFFFFE0
3FFFFFFFE0
3FFFFFFFE0
3FFFFFFFE0
1FFFFFFFE0
0FFFFFFFE0
07FFFFFFE0
01FFFFFFE0
ENDCHAR
STARTCHAR 004D
ENCODING 77
SWIDTH 940 0
DWIDTH 79 0
BBX 66 65 6 0
BITMAP
001FFFFFFFFFFC0000
01FFFFFFFFFFFFC000
07FFFFFFFFFFFFF000
0FFFFFFFFFFFFFFC00
1FFFFFFFFFFFFFFE00
3FFFFFFFFFFFFFFE00
3FFFFFFFFFFFFFFF00
3FFFFFFFFFFFFFFF00
7FFFFFFFFFFFFFFF80
7FFF01FFFFE03FFF80
7FFC007FFF800FFF80
7FF8003FFF0007FF80
FFF8003FFF0007FFC0
FFF8003FFF0007FFC0
FFF0001FFE0003FFC0
FFF0001FFE0003FFC0
FFF0001FFE0003FFC0
FFF0001FFE0003FFC0
FFF0001FFE0003FFC0
FFF0001FFE0003FFC0
FFF0001FFE0003FFC0
FFF0001FFE0003FFC0
FFF0001FFE0003FFC0
FFF0001FFE0003FFC0
FFF0001FFE0003FFC0
FFF0001FFE0003FFC0
FFF0001FFE0003FFC0
FFF0001FFE0003FFC0
FFF0001FFE0003FFC0
FFF0001FFE0003FFC0
FFF0001FFE0003FFC0
FFF0001FFE0003FFC0
FFF0001FFE0003FFC0
FFF0001FFE0003FFC0
FFF0001FFE0003FFC0
FFF0001FFE0003FFC0
FFF0001FFE0003FFC0
FFF0001FFE0003FFC0
FFF0001FFE0003FFC0
FFF0001FFE0003FFC0
FFF0001FFE0003FFC0
FFF0001FFE0003FFC0
FFF0001FFE0003FFC0
FFF0001FFE0003FFC0
FFF0001FFE0003FFC0
FFF0001FFE0003FFC0
FFF0001FFE0003FFC0
FFF0001FFE0003FFC0
FFF0001FFE0003FFC0
FFF0001FFE0003FFC0
FFF0001FFE0003FFC0
FFF0001FFE0003FFC0
FFF0001FFE0003FFC0
FFF0001FFE0003FFC0
FFF0001FFE0003FFC0
FFF0001FFE0003FFC0
FFF0001FFE0003FFC0
FFF0001FFE0003FFC0
FFF0001FFE0003FFC0
FFF0001FFE0003FFC0
FFF0001FFE0003FFC0
FFF0001FFE0003FFC0
FFF0001FFE0003FFC0
FFF0001FFE0003FFC0
FFF0001FFE0003FFC0
ENDCHAR
STARTCHAR 004E
ENCODING 78
SWIDTH 607 0
DWIDTH 51 0
BBX 39 65 6 0
BITMAP
001FFFE000
01FFFFFE00
07FFFFFF80
0FFFFFFFE0
1FFFFFFFF0
3FFFFFFFF0
3FFFFFFFF8
3FFFFFFFF8
7FFFFFFFFC
7FFF01FFFC
7FFC007FFC
7FF8003FFC
FFF8003FFE
FFF8003FFE
FFF0001FFE
FFF0001FFE
FFF0001FFE
FFF0001FFE
FFF0001FFE
FFF0001FFE
FFF0001FFE
FFF0001FFE
FFF0001FFE
FFF0001FFE
FFF0001FFE
FFF0001FFE
FFF0001FFE
FFF0001FFE
FFF0001FFE
FFF0001FFE
FFF0001FFE
FFF0001FFE
FFF0001FFE
FFF0001FFE
FFF0001FFE
FFF0001FFE
FFF0001FFE
FFF0001FFE
FFF0001FFE
FFF0001FFE
FFF0001FFE
FFF0001FFE
FFF0001FFE
FFF0001FFE
FFF0001FFE
FFF0001FFE
FFF0001FFE
FFF0001FFE
FFF0001FFE
FFF0001FFE
FFF0001FFE
FFF0001FFE
FFF0001FFE
FFF0001FFE
FFF0001FFE
FFF0001FFE
FFF0001FFE
FFF0001FFE
FFF0001FFE
FFF0001FFE
FFF0001FFE
FFF0001FFE
FFF0001FFE
FFF0001FFE
FFF0001FFE
ENDCHAR
STARTCHAR 004F
ENCODING 79
SWIDTH 595 0
DWIDTH 50 0
BBX 41 65 4 0
BITMAP
000FFFF80000
00FFFFFF8000
03FFFFFFE000
07FFFFFFF000
0FFFFFFFF800
1FFFFFFFFC00
3FFFFFFFFE00
3FFFFFFFFE00
7FFFFFFFFF00
7FFF80FFFF00
7FFE003FFF00
7FFC001FFF00
7FF8000FFF00
FFF8000FFF80
FFF8000FFF80
FFF00007FF80
FFF00007FF80
FFF00007FF80
FFF00007FF80
FFF00007FF80
FFF00007FF80
FFF00007FF80
FFF00007FF80
FFF00007FF80
FFF00007FF80
FFF00007FF80
FFF00007FF80
FFF00007FF80
FFF00007FF80
FFF00007FF80
FFF00007FF80
FFF00007FF80
FFF00007FF80
FFF00007FF80
FFF00007FF80
FFF00007FF80
FFF00007FF80
FFF00007FF80
FFF00007FF80
FFF00007FF80
FFF00007FF80
FFF00007FF80
FFF00007FF80
FFF00007FF80
FFF00007FF80
FFF00007FF80
FFF00007FF80
FFF00007FF80
FFF00007FF80
FFF80007FF80
FFF8000FFF80
FFF8000FFF80
7FF8000FFF00
7FFC001FFF00
7FFE001FFF00
7FFF807FFF00
7FFFFFFFFF00
3FFFFFFFFE00
3FFFFFFFFE00
1FFFFFFFFC00
1FFFFFFFF800
0FFFFFFFF800
03FFFFFFE000
00FFFFFF8000
001FFFF80000
ENDCHAR
STARTCHAR 0050
ENCODING 80
SWIDTH 559 0
DWIDTH 47 0
BBX 38 65 6 0
BITMAP
001FFFC000
01FFFFFC00
07FFFFFF00
0FFFFFFF80
1FFFFFFFC0
3FFFFFFFE0
3FFFFFFFE0
7FFFFFFFF0
7FFFFFFFF0
7FFE03FFF8
7FFC00FFF8
7FF8007FF8
FFF8007FF8
FFF8007FF8
FFF0003FFC
FFF0003FFC
FFF0003FFC
FFF0003FFC
FFF0003FFC
FFF0003FFC
FFF0003FFC
FFF0003FFC
FFF0003FFC
FFF0003FFC
FFF0003FFC
FFF0003FFC
FFF0003FFC
FFF0003FFC
FFF0007FFC
FFF0007FFC
FFF000FFFC
FFF001FFF8
FFFFFFFFF8
FFFFFFFFF8
FFFFFFFFF8
FFFFFFFFF0
FFFFFFFFF0
FFFFFFFFE0
FFFFFFFFC0
FFFFFFFF80
FFFFFFFC00
FFF0000000
FFF0000000
FFF0000000
FFF0000000
FFF0000000
FFF0000000
FFF0000000
FFF0000000
FFF0000000
FFF0000000
FFF0000000
FFF0000000
FFF0000000
FFF0000000
FFF0000000
FFF0000000
FFF0000000
FFF0000000
FFF0000000
FFF0000000
FFF0000000
FFF0000000
FFF0000000
FFF0000000
ENDCHAR
STARTCHAR 0051
ENCODING 81
SWIDTH 595 0
DWIDTH 50 0
BBX 41 73 4 -8
BITMAP
000FFFF80000
00FFFFFF8000
03FFFFFFE000
07FFFFFFF000
0FFFFFFFF800
1FFFFFFFFC00
3FFFFFFFFE00
3FFFFFFFFE00
7FFFFFFFFE00
7FFF80FFFF00
7FFE003FFF00
7FFC001FFF00
7FF8000FFF00
FFF8000FFF80
FFF8000FFF80
FFF00007FF80
FFF00007FF80
FFF00007FF80
FFF00007FF80
FFF00007FF80
FFF00007FF80
FFF00007FF80
FFF00007FF80
FFF00007FF80
FFF00007FF80
FFF00007FF80
FFF00007FF80
FFF00007FF80
FFF00007FF80
FFF00007FF80
FFF00007FF80
FFF00007FF80
FFF00007FF80
FFF00007FF80
FFF00007FF80
FFF00007FF80
FFF00007FF80
FFF00007FF80
FFF00007FF80
FFF00007FF80
FFF00007FF80
FFF00007FF80
FFF00007FF80
FFF00007FF80
FFF00007FF80
FFF00007FF80
FFF00007FF80
FFF00007FF80
FFF00007FF80
FFF80007FF80
FFF80007FF80
FFF8000FFF80
7FF8000FFF00
7FFC000FFF00
7FFC001FFF00
7FFE003FFF00
7FFF807FFF00
3FFFFFFFFE00
3FFFFFFFFE00
3FFFFFFFFE00
1FFFFFFFFC00
0FFFFFFFF800
07FFFFFFF000
03FFFFFFE000
007FFFFF8000
0001FFE00000
0001FFE00000
0001FFE00000
0001FFE00000
0001FFE00000
0001FFE00000
0001FFE00000
0001FFE00000
ENDCHAR
STARTCHAR 0052
ENCODING 82
SWIDTH 583 0
DWIDTH 49 0
BBX 38 65 6 0
BITMAP
001FFFF000
01FFFFFE00
07FFFFFF80
0FFFFFFFC0
1FFFFFFFE0
3FFFFFFFF0
3FFFFFFFF0
7FFFFFFFF8
7FFFFFFFF8
7FFE01FFF8
7FFC00FFF8
7FF8007FFC
FFF8007FFC
FFF0003FFC
FFF0003FFC
FFF0003FFC
FFF0003FFC
FFF0003FFC
FFF0003FFC
FFF0003FFC
FFF0003FFC
FFF0003FFC
FFF0003FFC
FFF0003FFC
FFF0007FFC
FFF000FFF8
FFF001FFF8
FFFFFFFFF0
FFFFFFFFF0
FFFFFFFFE0
FFFFFFFF80
FFFFFFFE00
FFFFFFFFC0
FFFFFFFFE0
FFFFFFFFF0
FFFFFFFFF8
FFF003FFF8
FFF000FFF8
FFF0007FFC
FFF0007FFC
FFF0003FFC
FFF0003FFC
FFF0003FFC
FFF0003FFC
FFF0003FFC
FFF0003FFC
FFF0003FFC
FFF0003FFC
FFF0003FFC
FFF0003FFC
FFF0003FFC
FFF0003FFC
FFF0003FFC
FFF0003FFC
FFF0003FFC
FFF0003FFC
FFF0003FFC
FFF0003FFC
FFF0003FFC
FFF0003FFC
FFF0003FFC
FFF0003FFC
FFF0003FFC
FFF0003FFC
FFF0003FFC
ENDCHAR
STARTCHAR 0053
ENCODING 83
SWIDTH 571 0
DWIDTH 48 0
BBX 38 65 5 0
BITMAP
001FFFFFC0
01FFFFFFC0
07FFFFFFC0
0FFFFFFFC0
1FFFFFFFC0
3FFFFFFFC0
3FFFFFFFC0
7FFFFFFFC0
7FFFFFFFC0
7FFFFFFFC0
7FFC000000
FFF8000000
FFF8000000
FFF0000000
FFF0000000
FFF0000000
FFF0000000
FFF0000000
FFF0000000
FFF0000000
FFF0000000
FFF0000000
FFF8000000
FFF8000000
FFFC000000
FFFE000000
7FFF000000
7FFFFFF800
7FFFFFFF00
7FFFFFFFC0
3FFFFFFFE0
1FFFFFFFF0
1FFFFFFFF0
0FFFFFFFF8
03FFFFFFF8
007FFFFFF8
000003FFFC
000001FFFC
000000FFFC
0000007FFC
0000007FFC
0000003FFC
0000003FFC
0000003FFC
0000003FFC
0000003FFC
0000003FFC
0000003FFC
0000003FFC
0000003FFC
0000003FFC
0000003FFC
0000003FFC
0000007FFC
000000FFFC
0FFFFFFFF8
0FFFFFFFF8
0FFFFFFFF8
0FFFFFFFF0
0FFFFFFFF0
0FFFFFFFE0
0FFFFFFFC0
0FFFFFFF80
0FFFFFFE00
0FFFFFE000
ENDCHAR
STARTCHAR 0054
ENCODING 84
SWIDTH 440 0
DWIDTH 37 0
BBX 36 65 0 0
BITMAP
FFFFFFFFF0
FFFFFFFFF0
FFFFFFFFF0
FFFFFFFFF0
FFFFFFFFF0
FFFFFFFFF0
FFFFFFFFF0
FFFFFFFFF0
FFFFFFFFF0
000FFF0000
000FFF0000
000FFF0000
000FFF0000
000FFF0000
000FFF0000
000FFF0000
000FFF0000
000FFF0000
000FFF0000
000FFF0000
000FFF0000
000FFF0000
000FFF0000
000FFF0000
000FFF0000
000FFF0000
000FFF0000
000FFF0000
000FFF0000
000FFF0000
000FFF0000
000FFF0000
000FFF0000
000FFF0000
000FFF0000
000FFF0000
000FFF0000
000FFF0000
000FFF0000
000FFF0000
000FFF0000
000FFF0000
000FFF0000
000FFF0000
000FFF0000
000FFF0000
000FFF0000
000FFF0000
000FFF0000
000FFF0000
000FFF0000
000FFF0000
000FFF0000
000FFF0000
000FFF0000
000FFF0000
000FFF0000
000FFF0000
000FFF0000
000FFF0000
000FFF0000
000FFF0000
000FFF0000
000FFF0000
000FFF0000
ENDCHAR
STARTCHAR 0055
ENCODING 85
SWIDTH 619 0
DWIDTH 52 0
BBX 40 65 6 0
BITMAP
FFF0000FFF
FFF0000FFF
FFF0000FFF
FFF0000FFF
FFF0000FFF
FFF0000FFF
FFF0000FFF
FFF0000FFF
FFF0000FFF
FFF0000FFF
FFF0000FFF
FFF0000FFF
FFF0000FFF
FFF0000FFF
FFF0000FFF
FFF0000FFF
FFF0000FFF
FFF0000FFF
FFF0000FFF
FFF0000FFF
FFF0000FFF
FFF0000FFF
FFF0000FFF
FFF0000FFF
FFF0000FFF
FFF0000FFF
FFF0000FFF
FFF0000FFF
FFF0000FFF
FFF0000FFF
FFF0000FFF
FFF0000FFF
FFF0000FFF
FFF0000FFF
FFF0000FFF
FFF0000FFF
FFF0000FFF
FFF0000FFF
FFF0000FFF
FFF0000FFF
FFF0000FFF
FFF0000FFF
FFF0000FFF
FFF0000FFF
FFF0000FFF
FFF0000FFF
FFF0000FFF
FFF0000FFF
FFF0000FFF
FFF0000FFF
FFF0000FFF
FFF8001FFF
FFF8001FFF
FFF8001FFF
7FFC003FFF
7FFE007FFE
7FFFFFFFFE
7FFFFFFFFE
7FFFFFFFFE
3FFFFFFFFC
3FFFFFFFFC
1FFFFFFFF8
0FFFFFFFE0
03FFFFFF80
003FFFF800
ENDCHAR
STARTCHAR 0056
ENCODING 86
SWIDTH 523 0
DWIDTH 44 0
BBX 39 65 2 0
BITMAP
FFF0000FFE
FFF0001FFE
FFF0001FFE
7FF8001FFE
7FF8001FFC
7FF8001FFC
7FF8001FFC
3FF8003FFC
3FFC003FFC
3FFC003FF8
3FFC003FF8
3FFC003FF8
1FFC003FF8
1FFE007FF8
1FFE007FF0
1FFE007FF0
0FFE007FF0
0FFE007FF0
0FFF007FF0
0FFF00FFE0
0FFF00FFE0
07FF00FFE0
07FF00FFE0
07FF00FFC0
07FF80FFC0
07FF80FFC0
03FF81FFC0
03FF81FFC0
03FF81FF80
03FFC1FF80
01FFC1FF80
01FFC1FF80
01FFC3FF80
01FFC3FF00
01FFE3FF00
00FFE3FF00
00FFE3FF00
00FFE3FF00
00FFE7FE00
007FF7FE00
007FF7FE00
007FF7FE00
007FF7FE00
007FF7FC00
003FFFFC00
003FFFFC00
003FFFFC00
003FFFFC00
003FFFF800
001FFFF800
001FFFF800
001FFFF800
001FFFF000
000FFFF000
000FFFF000
000FFFF000
000FFFF000
000FFFE000
0007FFE000
0007FFE000
0007FFE000
0007FFE000
0007FFC000
0003FFC000
0003FFC000
ENDCHAR
STARTCHAR 0057
ENCODING 87
SWIDTH 857 0
DWIDTH 72 0
BBX 67 65 2 0
BITMAP
FFF0000FFF0001FFE0
FFF0001FFF0001FFE0
7FF0001FFF0001FFE0
7FF8001FFF0001FFC0
7FF8001FFF0001FFC0
7FF8001FFF8001FFC0
7FF8001FFF8003FFC0
3FF8001FFF8003FFC0
3FFC003FFF8003FF80
3FFC003FFF8003FF80
3FFC003FFFC003FF80
3FFC003FFFC003FF80
1FFC003FFFC007FF00
1FFE003FFFC007FF00
1FFE007FFFC007FF00
1FFE007FFFE007FF00
0FFE007FFFE007FF00
0FFE007FFFE007FE00
0FFF007FFFE00FFE00
0FFF007FFFE00FFE00
0FFF00FFFFF00FFE00
07FF00FFFFF00FFE00
07FF00FFFFF00FFC00
07FF80FFFFF00FFC00
07FF80FFFFF01FFC00
03FF80FFFFF81FFC00
03FF81FFFFF81FFC00
03FF81FFFFF81FF800
03FFC1FFBFF81FF800
03FFC1FFBFF81FF800
01FFC1FFBFFC3FF800
01FFC1FFBFFC3FF800
01FFC1FF9FFC3FF000
01FFE3FF1FFC3FF000
00FFE3FF1FFC3FF000
00FFE3FF1FFE3FF000
00FFE3FF0FFE7FF000
00FFE3FF0FFE7FE000
00FFF3FE0FFE7FE000
007FF7FE0FFE7FE000
007FF7FE0FFF7FE000
007FF7FE07FF7FE000
007FF7FE07FFFFC000
003FFFFC07FFFFC000
003FFFFC07FFFFC000
003FFFFC03FFFFC000
003FFFFC03FFFF8000
003FFFFC03FFFF8000
001FFFF803FFFF8000
001FFFF803FFFF8000
001FFFF801FFFF8000
001FFFF801FFFF0000
000FFFF801FFFF0000
000FFFF001FFFF0000
000FFFF001FFFF0000
000FFFF000FFFF0000
000FFFF000FFFE0000
0007FFF000FFFE0000
0007FFE000FFFE0000
0007FFE0007FFE0000
0007FFE0007FFE0000
0003FFE0007FFC0000
0003FFE0007FFC0000
0003FFC0007FFC0000
0003FFC0003FFC0000
ENDCHAR
STARTCHAR 0058
ENCODING 88
SWIDTH 571 0
DWIDTH 48 0
BBX 39 65 4 0
BITMAP
FFF0001FFE
FFF0001FFC
7FF8003FFC
7FF8003FF8
3FF8007FF8
3FFC007FF8
3FFC007FF0
1FFE00FFF0
1FFE00FFE0
0FFF01FFE0
0FFF01FFE0
07FF03FFC0
07FF83FFC0
07FF83FF80
03FFC7FF80
03FFC7FF00
01FFCFFF00
01FFEFFF00
00FFFFFE00
00FFFFFE00
00FFFFFC00
007FFFFC00
007FFFF800
003FFFF800
003FFFF800
001FFFF000
001FFFF000
001FFFE000
000FFFE000
000FFFC000
0007FFC000
0007FFC000
0003FF8000
0007FFC000
0007FFC000
000FFFC000
000FFFE000
001FFFE000
001FFFF000
001FFFF000
003FFFF800
003FFFF800
007FFFF800
007FFFFC00
00FFFFFC00
00FFFFFE00
00FFFFFE00
01FFEFFF00
01FFCFFF00
03FFC7FF00
03FFC7FF80
07FF83FF80
07FF83FFC0
07FF03FFC0
0FFF01FFE0
0FFE01FFE0
1FFE00FFE0
1FFE00FFF0
3FFC007FF0
3FFC007FF8
3FF8007FF8
7FF8003FF8
7FF8003FFC
FFF0001FFC
FFF0001FFE
ENDCHAR
STARTCHAR 0059
ENCODING 89
SWIDTH 571 0
DWIDTH 48 0
BBX 39 65 4 0
BITMAP
FFF0001FFE
FFF0001FFE
FFF0001FFE
FFF0001FFE
FFF0001FFE
FFF0001FFE
FFF0001FFE
FFF0001FFE
FFF0001FFE
FFF0001FFE
FFF0001FFE
FFF0001FFE
FFF0001FFE
FFF0001FFE
FFF0001FFE
FFF0001FFE
FFF0001FFE
FFF0001FFE
FFF0001FFE
FFF0001FFE
FFF0001FFE
FFF0001FFE
FFF0001FFE
FFF0001FFE
FFF0001FFE
FFF0001FFE
FFF8003FFE
FFF8003FFE
FFF8003FFE
FFFC007FFE
FFFF01FFFE
7FFFFFFFFC
7FFFFFFFFC
7FFFFFFFFC
7FFFFFFFFC
3FFFFFFFF8
3FFFFFFFF8
1FFFFFFFF0
07FFFFFFC0
01FFFFFE00
0003FFC000
0003FFC000
0003FFC000
0003FFC000
0003FFC000
0003FFC000
0003FFC000
0003FFC000
0003FFC000
0003FFC000
0003FFC000
0003FFC000
0003FFC000
0003FFC000
0003FFC000
0003FFC000
0003FFC000
0003FFC000
0003FFC000
0003FFC000
0003FFC000
0003FFC000
0003FFC000
0003FFC000
0003FFC000
ENDCHAR
STARTCHAR 005A
ENCODING 90
SWIDTH 464 0
DWIDTH 39 0
BBX 34 65 2 0
BITMAP
7FFFFFFFC0
7FFFFFFFC0
7FFFFFFFC0
7FFFFFFFC0
7FFFFFFFC0
7FFFFFFFC0
7FFFFFFFC0
7FFFFFFFC0
7FFFFFFFC0
000001FFC0
000001FFC0
000003FFC0
000003FF80
000007FF80
000007FF00
00000FFF00
00000FFE00
00001FFE00
00001FFC00
00003FFC00
00003FF800
00007FF800
00007FF000
0000FFF000
0000FFE000
0001FFE000
0001FFC000
0003FFC000
0003FF8000
0007FF8000
0007FF8000
000FFF0000
000FFF0000
001FFE0000
001FFE0000
003FFC0000
003FFC0000
007FF80000
007FF80000
00FFF00000
00FFF00000
01FFE00000
01FFE00000
03FFC00000
03FFC00000
07FF800000
07FF800000
0FFF000000
0FFF000000
1FFE000000
1FFE000000
3FFC000000
3FFC000000
3FF8000000
7FF8000000
7FFFFFFFC0
FFFFFFFFC0
FFFFFFFFC0
FFFFFFFFC0
FFFFFFFFC0
FFFFFFFFC0
FFFFFFFFC0
FFFFFFFFC0
FFFFFFFFC0
FFFFFFFFC0
ENDCHAR
STARTCHAR 005B
ENCODING 91
SWIDTH 297 0
DWIDTH 25 0
BBX 17 65 6 0
BITMAP
FFFF80
FFFF80
FFFF80
FFFF80
FFC000
FFC000
FFC000
FFC000
FFC000
FFC000
FFC000
FFC000
FFC000
FFC000
FFC000
FFC000
FFC000
FFC000
FFC000
FFC000
FFC000
FFC000
FFC000
FFC000
FFC000
FFC000
FFC000
FFC000
FFC000
FFC000
FFC000
FFC000
FFC000
FFC000
FFC000
FFC000
FFC000
FFC000
FFC000
FFC000
FFC000
FFC000
FFC000
FFC000
FFC000
FFC000
FFC000
FFC000
FFC000
FFC000
FFC000
FFC000
FFC000
FFC000
FFC000
FFC000
FFC000
FFC000
FFC000
FFC000
FFC000
FFFF80
FFFF80
FFFF80
FFFF80
ENDCHAR
STARTCHAR 005C
ENCODING 92
SWIDTH 297 0
DWIDTH 25 0
BBX 22 65 1 0
BITMAP
FC0000
FC0000
FC0000
FC0000
7E0000
7E0000
7E0000
7E0000
3F0000
3F0000
3F0000
3F8000
1F8000
1F8000
1F8000
1FC000
0FC000
0FC000
0FC000
0FE000
07E000
07E000
07E000
03F000
03F000
03F000
03F000
01F800
01F800
01F800
01F800
00FC00
00FC00
00FC00
00FC00
007E00
007E00
007E00
007F00
003F00
003F00
003F00
003F80
001F80
001F80
001F80
000FC0
000FC0
000FC0
000FC0
0007E0
0007E0
0007E0
0007E0
0003F0
0003F0
0003F0
0003F0
0001F8
0001F8
0001F8
0001F8
0000FC
0000FC
0000FC
ENDCHAR
STARTCHAR 005D
ENCODING 93
SWIDTH 297 0
DWIDTH 25 0
BBX 17 65 1 0
BITMAP
FFFF80
FFFF80
FFFF80
FFFF80
01FF80
01FF80
01FF80
01FF80
01FF80
01FF80
01FF80
01FF80
01FF80
01FF80
01FF80
01FF80
01FF80
01FF80
01FF80
01FF80
01FF80
01FF80
01FF80
01FF80
01FF80
01FF80
01FF80
01FF80
01FF80
01FF80
01FF80
01FF80
01FF80
01FF80
01FF80
01FF80
01FF80
01FF80
01FF80
01FF80
01FF80
01FF80
01FF80
01FF80
01FF80
01FF80
01FF80
01FF80
01FF80
01FF80
01FF80
01FF80
01FF80
01FF80
01FF80
01FF80
01FF80
01FF80
01FF80
01FF80
01FF80
FFFF80
FFFF80
FFFF80
FFFF80
ENDCHAR
STARTCHAR 005E
ENCODING 94
SWIDTH 357 0
DWIDTH 30 0
BBX 27 14 1 51
BITMAP
007FC000
00FFE000
01FFE000
01FFF000
03FFF800
07FFF800
07FFFC00
0FFBFE00
1FF1FE00
1FE0FF00
3FC07F80
7F803F80
7F001FC0
FE000FE0
ENDCHAR
STARTCHAR 005F
ENCODING 95
SWIDTH 571 0
DWIDTH 48 0
BBX 47 4 0 -11
BITMAP
FFFFFFFFFFFE
FFFFFFFFFFFE
FFFFFFFFFFFE
FFFFFFFFFFFE
ENDCHAR
STARTCHAR 0060
ENCODING 96
SWIDTH 238 0
DWIDTH 20 0
BBX 17 14 1 51
BITMAP
FFE000
7FE000
7FF000
3FF000
3FF800
1FF800
0FFC00
0FFC00
07FE00
03FE00
03FE00
01FF00
00FF00
00FF80
ENDCHAR
STARTCHAR 0061
ENCODING 97
SWIDTH 607 0
DWIDTH 51 0
BBX 39 48 6 0
BITMAP
001FFFF000
03FFFFFF80
0FFFFFFFE0
1FFFFFFFF0
3FFFFFFFF8
3FFFFFFFF8
7FFFFFFFFC
7FFC00FFFC
7FF8003FFC
FFF8003FFE
FFF0001FFE
FFF0001FFE
FFF0001FFE
FFF0001FFE
FFF0001FFE
FFF0001FFE
FFF0001FFE
FFF0001FFE
FFF0001FFE
FFF0001FFE
FFF0001FFE
FFF0001FFE
FFFFFFFFFE
FFFFFFFFFE
FFFFFFFFFE
FFFFFFFFFE
FFFFFFFFFE
FFFFFFFFFE
FFFFFFFFFE
FFF0001FFE
FFF0001FFE
FFF0001FFE
FFF0001FFE
FFF0001FFE
FFF0001FFE
FFF0001FFE
FFF0001FFE
FFF0001FFE
FFF0001FFE
FFF0001FFE
FFF0001FFE
FFF0001FFE
FFF0001FFE
FFF0001FFE
FFF0001FFE
FFF0001FFE
FFF0001FFE
FFF0001FFE
ENDCHAR
STARTCHAR 0062
ENCODING 98
SWIDTH 583 0
DWIDTH 49 0
BBX 39 48 6 0
BITMAP
001FFFF800
03FFFFFF80
0FFFFFFFE0
1FFFFFFFF0
3FFFFFFFF8
3FFFFFFFFC
7FFFFFFFFC
7FFC00FFFC
7FF8003FFE
FFF8003FFE
FFF0001FFE
FFF0001FFE
FFF0001FFE
FFF0001FFE
FFF0001FFE
FFF0001FFE
FFF0001FFE
FFF0001FFE
FFF0003FFE
FFF0007FFC
FFF000FFFC
FFFFFFFFF8
FFFFFFFFE0
FFFFFFFF80
FFFFFFFF00
FFFFFFFFE0
FFFFFFFFF0
FFF001FFF8
FFF0007FFC
FFF0003FFE
FFF0003FFE
FFF0001FFE
FFF0001FFE
FFF0001FFE
FFF0001FFE
FFF0001FFE
FFF0001FFE
FFF0001FFE
FFF0003FFE
FFF0003FFE
FFF000FFFE
FFFFFFFFFC
FFFFFFFFFC
FFFFFFFFFC
FFFFFFFFF8
FFFFFFFFF0
FFFFFFFFE0
FFFFFFFF00
ENDCHAR
STARTCHAR 0063
ENCODING 99
SWIDTH 511 0
DWIDTH 43 0
BBX 35 48 4 0
BITMAP
01FFFFFFE0
07FFFFFFE0
0FFFFFFFE0
1FFFFFFFE0
3FFFFFFFE0
3FFFFFFFE0
7FFFFFFFE0
7FFE000000
7FFC000000
7FF8000000
FFF8000000
FFF0000000
FFF0000000
FFF0000000
FFF0000000
FFF0000000
FFF0000000
FFF0000000
FFF0000000
FFF0000000
FFF0000000
FFF0000000
FFF0000000
FFF0000000
FFF0000000
FFF0000000
FFF0000000
FFF0000000
FFF0000000
FFF0000000
FFF0000000
FFF0000000
FFF0000000
FFF0000000
FFF0000000
FFF0000000
FFF0000000
FFF8000000
FFF8000000
7FFC000000
7FFE000000
7FFFFFFFE0
7FFFFFFFE0
3FFFFFFFE0
3FFFFFFFE0
1FFFFFFFE0
0FFFFFFFE0
01FFFFFFE0
ENDCHAR
STARTCHAR 0064
ENCODING 100
SWIDTH 583 0
DWIDTH 49 0
BBX 39 48 6 0
BITMAP
FFFFFFFF00
FFFFFFFFC0
FFFFFFFFF0
FFFFFFFFF0
FFFFFFFFF8
FFFFFFFFF8
FFFFFFFFFC
FFF000FFFC
FFF0007FFC
FFF0003FFC
FFF0003FFE
FFF0001FFE
FFF0001FFE
FFF0001FFE
FFF0001FFE
FFF0001FFE
FFF0001FFE
FFF0001FFE
FFF0001FFE
FFF0001FFE
FFF0001FFE
FFF0001FFE
FFF0001FFE
FFF0001FFE
FFF0001FFE
FFF0001FFE
FFF0001FFE
FFF0001FFE
FFF0001FFE
FFF0001FFE
FFF0001FFE
FFF0001FFE
FFF0001FFE
FFF0001FFE
FFF0001FFE
FFF0001FFE
FFF0001FFE
FFF0003FFE
FFF0003FFE
FFF0007FFC
FFF000FFFC
FFFFFFFFFC
FFFFFFFFFC
FFFFFFFFF8
FFFFFFFFF8
FFFFFFFFF0
FFFFFFFFE0
FFFFFFFF00
ENDCHAR
STARTCHAR 0065
ENCODING 101
SWIDTH 511 0
DWIDTH 43 0
BBX 35 48 4 0
BITMAP
01FFFFFFE0
07FFFFFFE0
0FFFFFFFE0
1FFFFFFFE0
3FFFFFFFE0
3FFFFFFFE0
7FFFFFFFE0
7FFE000000
7FFC000000
7FF8000000
FFF8000000
FFF0000000
FFF0000000
FFF0000000
FFF0000000
FFF0000000
FFF0000000
FFF0000000
FFF0000000
FFFFFFF000
FFFFFFF000
FFFFFFF000
FFFFFFF000
FFFFFFF000
FFFFFFF000
FFFFFFF000
FFF0000000
FFF0000000
FFF0000000
FFF0000000
FFF0000000
FFF0000000
FFF0000000
FFF0000000
FFF0000000
FFF0000000
FFF0000000
FFF8000000
FFF8000000
7FFC000000
7FFE000000
7FFFFFFFE0
7FFFFFFFE0
3FFFFFFFE0
3FFFFFFFE0
1FFFFFFFE0
0FFFFFFFE0
01FFFFFFE0
ENDCHAR
STARTCHAR 0066
ENCODING 102
SWIDTH 511 0
DWIDTH 43 0
BBX 35 48 4 0
BITMAP
01FFFFFFE0
07FFFFFFE0
0FFFFFFFE0
1FFFFFFFE0
3FFFFFFFE0
3FFFFFFFE0
7FFFFFFFE0
7FFE000000
7FFC000000
7FF8000000
FFF8000000
FFF0000000
FFF0000000
FFF0000000
FFF0000000
FFF0000000
FFF0000000
FFF0000000
FFF0000000
FFFFFFF000
FFFFFFF000
FFFFFFF000
FFFFFFF000
FFFFFFF000
FFFFFFF000
FFFFFFF000
FFF0000000
FFF0000000
FFF0000000
FFF0000000
FFF0000000
FFF0000000
FFF0000000
FFF0000000
FFF0000000
FFF0000000
FFF0000000
FFF0000000
FFF0000000
FFF0000000
FFF0000000
FFF0000000
FFF0000000
FFF0000000
FFF0000000
FFF0000000
FFF0000000
FFF0000000
ENDCHAR
STARTCHAR 0067
ENCODING 103
SWIDTH 583 0
DWIDTH 49 0
BBX 40 48 4 0
BITMAP
00FFFFFFE0
07FFFFFFE0
0FFFFFFFE0
1FFFFFFFE0
3FFFFFFFE0
3FFFFFFFE0
7FFFFFFFE0
7FFE000000
7FFC000000
7FF8000000
7FF8000000
FFF0000000
FFF0000000
FFF0000000
FFF0000000
FFF0000000
FFF0000000
FFF0000000
FFF0000000
FFF0000000
FFF0000000
FFF0000000
FFF00FFFFF
FFF00FFFFF
FFF00FFFFF
FFF00FFFFF
FFF00FFFFF
FFF00FFFFF
FFF00FFFFF
FFF00007FF
FFF00007FF
FFF00007FF
FFF00007FF
FFF00007FF
FFF00007FF
FFF00007FF
FFF80007FF
FFF8000FFF
FFF8000FFF
7FFC001FFF
7FFF007FFF
7FFFFFFFFF
7FFFFFFFFF
3FFFFFFFFF
3FFFFFF9FF
1FFFFFF83F
07FFFFE007
007FFF0000
ENDCHAR
STARTCHAR 0068
ENCODING 104
SWIDTH 607 0
DWIDTH 51 0
BBX 39 49 6 0
BITMAP
FFF0001FFE
FFF0001FFE
FFF0001FFE
FFF0001FFE
FFF0001FFE
FFF0001FFE
FFF0001FFE
FFF0001FFE
FFF0001FFE
FFF0001FFE
FFF0001FFE
FFF0001FFE
FFF0001FFE
FFF0001FFE
FFF0001FFE
FFF0001FFE
FFF0001FFE
FFF0001FFE
FFF0001FFE
FFF0001FFE
FFFFFFFFFE
FFFFFFFFFE
FFFFFFFFFE
FFFFFFFFFE
FFFFFFFFFE
FFFFFFFFFE
FFFFFFFFFE
FFF0001FFE
FFF0001FFE
FFF0001FFE
FFF0001FFE
FFF0001FFE
FFF0001FFE
FFF0001FFE
FFF0001FFE
FFF0001FFE
FFF0001FFE
FFF0001FFE
FFF0001FFE
FFF0001FFE
FFF0001FFE
FFF0001FFE
FFF0001FFE
FFF0001FFE
FFF0001FFE
FFF0001FFE
FFF0001FFE
FFF0001FFE
FFF0001FFE
ENDCHAR
STARTCHAR 0069
ENCODING 105
SWIDTH 273 0
DWIDTH 23 0
BBX 12 48 6 0
BITMAP
FFF0
FFF0
FFF0
FFF0
FFF0
FFF0
FFF0
FFF0
FFF0
FFF0
FFF0
FFF0
FFF0
FFF0
FFF0
FFF0
FFF0
FFF0
FFF0
FFF0
FFF0
FFF0
FFF0
FFF0
FFF0
FFF0
FFF0
FFF0
FFF0
FFF0
FFF0
FFF0
FFF0
FFF0
FFF0
FFF0
FFF0
FFF0
FFF0
FFF0
FFF0
FFF0
FFF0
FFF0
FFF0
FFF0
FFF0
FFF0
ENDCHAR
STARTCHAR 006A
ENCODING 106
SWIDTH 547 0
DWIDTH 46 0
BBX 35 48 1 0
BITMAP
000001FFE0
000001FFE0
000001FFE0
000001FFE0
000001FFE0
000001FFE0
000001FFE0
000001FFE0
000001FFE0
000001FFE0
000001FFE0
000001FFE0
000001FFE0
000001FFE0
000001FFE0
000001FFE0
000001FFE0
000001FFE0
000001FFE0
000001FFE0
000001FFE0
000001FFE0
000001FFE0
000001FFE0
000001FFE0
000001FFE0
000001FFE0
000001FFE0
000001FFE0
000001FFE0
000001FFE0
000001FFE0
000001FFE0
000001FFE0
000001FFE0
000001FFE0
000001FFE0
000003FFE0
000003FFE0
000007FFC0
00000FFFC0
FFFFFFFFC0
FFFFFFFFC0
FFFFFFFF80
FFFFFFFF80
FFFFFFFF00
FFFFFFFE00
FFFFFFF000
ENDCHAR
STARTCHAR 006B
ENCODING 107
SWIDTH 583 0
DWIDTH 49 0
BBX 38 47 6 0
BITMAP
FFF0003FF8
FFF0007FF0
FFF0007FF0
FFF000FFE0
FFF001FFC0
FFF001FFC0
FFF003FF80
FFF007FF00
FFF00FFE00
FFF00FFE00
FFF01FFC00
FFF03FF800
FFF07FF800
FFF07FF000
FFF0FFE000
FFF1FFC000
FFF1FFC000
FFF3FF8000
FFF7FF0000
FFFFFF0000
FFFFFFF800
FFFFFFFF00
FFFFFFFFC0
FFFFFFFFE0
FFFFFFFFF0
FFFFFFFFF8
FFF003FFF8
FFF000FFFC
FFF0007FFC
FFF0003FFC
FFF0003FFC
FFF0003FFC
FFF0003FFC
FFF0003FFC
FFF0003FFC
FFF0003FFC
FFF0003FFC
FFF0003FFC
FFF0003FFC
FFF0003FFC
FFF0003FFC
FFF0003FFC
FFF0003FFC
FFF0003FFC
FFF0003FFC
FFF0003FFC
FFF0003FFC
ENDCHAR
STARTCHAR 006C
ENCODING 108
SWIDTH 500 0
DWIDTH 42 0
BBX 35 48 6 0
BITMAP
FFF0000000
FFF0000000
FFF0000000
FFF0000000
FFF0000000
FFF0000000
FFF0000000
FFF0000000
FFF0000000
FFF0000000
FFF0000000
FFF0000000
FFF0000000
FFF0000000
FFF0000000
FFF0000000
FFF0000000
FFF0000000
FFF0000000
FFF0000000
FFF0000000
FFF0000000
FFF0000000
FFF0000000
FFF0000000
FFF0000000
FFF0000000
FFF0000000
FFF0000000
FFF0000000
FFF0000000
FFF0000000
FFF0000000
FFF0000000
FFF0000000
FFF0000000
FFF0000000
FFF8000000
FFF8000000
7FFC000000
7FFE000000
7FFFFFFFE0
7FFFFFFFE0
3FFFFFFFE0
3FFFFFFFE0
1FFFFFFFE0
0FFFFFFFE0
01FFFFFFE0
ENDCHAR
STARTCHAR 006D
ENCODING 109
SWIDTH 940 0
DWIDTH 79 0
BBX 66 48 6 0
BITMAP
001FFFFFFFFFFE0000
03FFFFFFFFFFFFE000
0FFFFFFFFFFFFFF800
1FFFFFFFFFFFFFFE00
3FFFFFFFFFFFFFFF00
3FFFFFFFFFFFFFFF00
7FFFFFFFFFFFFFFF80
7FFC00FFFF801FFF80
7FF8003FFF0007FF80
FFF8003FFF0007FFC0
FFF0001FFE0003FFC0
FFF0001FFE0003FFC0
FFF0001FFE0003FFC0
FFF0001FFE0003FFC0
FFF0001FFE0003FFC0
FFF0001FFE0003FFC0
FFF0001FFE0003FFC0
FFF0001FFE0003FFC0
FFF0001FFE0003FFC0
FFF0001FFE0003FFC0
FFF0001FFE0003FFC0
FFF0001FFE0003FFC0
FFF0001FFE0003FFC0
FFF0001FFE0003FFC0
FFF0001FFE0003FFC0
FFF0001FFE0003FFC0
FFF0001FFE0003FFC0
FFF0001FFE0003FFC0
FFF0001FFE0003FFC0
FFF0001FFE0003FFC0
FFF0001FFE0003FFC0
FFF0001FFE0003FFC0
FFF0001FFE0003FFC0
FFF0001FFE0003FFC0
FFF0001FFE0003FFC0
FFF0001FFE0003FFC0
FFF0001FFE0003FFC0
FFF0001FFE0003FFC0
FFF0001FFE0003FFC0
FFF0001FFE0003FFC0
FFF0001FFE0003FFC0
FFF0001FFE0003FFC0
FFF0001FFE0003FFC0
FFF0001FFE0003FFC0
FFF0001FFE0003FFC0
FFF0001FFE0003FFC0
FFF0001FFE0003FFC0
FFF0001FFE0003FFC0
ENDCHAR
STARTCHAR 006E
ENCODING 110
SWIDTH 607 0
DWIDTH 51 0
BBX 39 48 6 0
BITMAP
001FFFF000
03FFFFFF80
0FFFFFFFE0
1FFFFFFFF0
3FFFFFFFF8
3FFFFFFFF8
7FFFFFFFFC
7FFC00FFFC
7FF8003FFC
FFF8003FFE
FFF0001FFE
FFF0001FFE
FFF0001FFE
FFF0001FFE
FFF0001FFE
FFF0001FFE
FFF0001FFE
FFF0001FFE
FFF0001FFE
FFF0001FFE
FFF0001FFE
FFF0001FFE
FFF0001FFE
FFF0001FFE
FFF0001FFE
FFF0001FFE
FFF0001FFE
FFF0001FFE
FFF0001FFE
FFF0001FFE
FFF0001FFE
FFF0001FFE
FFF0001FFE
FFF0001FFE
FFF0001FFE
FFF0001FFE
FFF0001FFE
FFF0001FFE
FFF0001FFE
FFF0001FFE
FFF0001FFE
FFF0001FFE
FFF0001FFE
FFF0001FFE
FFF0001FFE
FFF0001FFE
FFF0001FFE
FFF0001FFE
ENDCHAR
STARTCHAR 006F
ENCODING 111
SWIDTH 595 0
DWIDTH 50 0
BBX 41 48 4 0
BITMAP
001FFFFC0000
01FFFFFFC000
07FFFFFFF000
1FFFFFFFF800
3FFFFFFFFC00
3FFFFFFFFE00
7FFFFFFFFF00
7FFE003FFF00
7FFC001FFF00
FFF8000FFF80
FFF8000FFF80
FFF00007FF80
FFF00007FF80
FFF00007FF80
FFF00007FF80
FFF00007FF80
FFF00007FF80
FFF00007FF80
FFF00007FF80
FFF00007FF80
FFF00007FF80
FFF00007FF80
FFF00007FF80
FFF00007FF80
FFF00007FF80
FFF00007FF80
FFF00007FF80
FFF00007FF80
FFF00007FF80
FFF00007FF80
FFF00007FF80
FFF00007FF80
FFF00007FF80
FFF00007FF80
FFF00007FF80
FFF00007FF80
FFF80007FF80
FFF8000FFF80
7FF8000FFF00
7FFC001FFF00
7FFE003FFF00
7FFFFFFFFF00
3FFFFFFFFE00
3FFFFFFFFE00
1FFFFFFFFC00
0FFFFFFFF000
03FFFFFFC000
001FFFFC0000
ENDCHAR
STARTCHAR 0070
ENCODING 112
SWIDTH 559 0
DWIDTH 47 0
BBX 38 48 6 0
BITMAP
003FFFE000
03FFFFFE00
0FFFFFFF80
1FFFFFFFC0
3FFFFFFFE0
7FFFFFFFF0
7FFFFFFFF0
7FFC00FFF8
7FF8007FF8
FFF8007FF8
FFF0003FFC
FFF0003FFC
FFF0003FFC
FFF0003FFC
FFF0003FFC
FFF0003FFC
FFF0003FFC
FFF0003FFC
FFF0003FFC
FFF0003FFC
FFF0007FFC
FFF0007FFC
FFF001FFFC
FFFFFFFFF8
FFFFFFFFF8
FFFFFFFFF8
FFFFFFFFF0
FFFFFFFFE0
FFFFFFFFC0
FFFFFFFE00
FFF0000000
FFF0000000
FFF0000000
FFF0000000
FFF0000000
FFF0000000
FFF0000000
FFF0000000
FFF0000000
FFF0000000
FFF0000000
FFF0000000
FFF0000000
FFF0000000
FFF0000000
FFF0000000
FFF0000000
FFF0000000
ENDCHAR
STARTCHAR 0071
ENCODING 113
SWIDTH 595 0
DWIDTH 50 0
BBX 41 54 4 -6
BITMAP
001FFFFC0000
01FFFFFFC000
07FFFFFFF000
1FFFFFFFF800
1FFFFFFFFC00
3FFFFFFFFE00
7FFFFFFFFF00
7FFE003FFF00
7FFC001FFF00
FFF8000FFF80
FFF8000FFF80
FFF00007FF80
FFF00007FF80
FFF00007FF80
FFF00007FF80
FFF00007FF80
FFF00007FF80
FFF00007FF80
FFF00007FF80
FFF00007FF80
FFF00007FF80
FFF00007FF80
FFF00007FF80
FFF00007FF80
FFF00007FF80
FFF00007FF80
FFF00007FF80
FFF00007FF80
FFF00007FF80
FFF00007FF80
FFF00007FF80
FFF00007FF80
FFF00007FF80
FFF00007FF80
FFF00007FF80
FFF00007FF80
FFF80007FF80
FFF8000FFF80
FFF8000FFF80
7FFC001FFF00
7FFE003FFF00
7FFFF7FFFF00
7FFFFFFFFF00
3FFFFFFFFE00
1FFFFFFFFC00
0FFFFFFFF800
07FFFFFFF000
00FFFFFF8000
0001FFE00000
0001FFE00000
0001FFE00000
0001FFE00000
0001FFE00000
0001FFE00000
ENDCHAR
STARTCHAR 0072
ENCODING 114
SWIDTH 583 0
DWIDTH 49 0
BBX 38 48 6 0
BITMAP
003FFFF000
03FFFFFF00
0FFFFFFFC0
1FFFFFFFE0
3FFFFFFFF0
7FFFFFFFF8
7FFFFFFFF8
7FFC00FFF8
7FF8007FFC
FFF8007FFC
FFF0003FFC
FFF0003FFC
FFF0003FFC
FFF0003FFC
FFF0003FFC
FFF0003FFC
FFF0003FFC
FFF0003FFC
FFF0007FFC
FFF0007FF8
FFF001FFF8
FFFFFFFFF0
FFFFFFFFE0
FFFFFFFF00
FFFFFFFF80
FFFFFFFFE0
FFFFFFFFF0
FFF003FFF8
FFF000FFFC
FFF0007FFC
FFF0003FFC
FFF0003FFC
FFF0003FFC
FFF0003FFC
FFF0003FFC
FFF0003FFC
FFF0003FFC
FFF0003FFC
FFF0003FFC
FFF0003FFC
FFF0003FFC
FFF0003FFC
FFF0003FFC
FFF0003FFC
FFF0003FFC
FFF0003FFC
FFF0003FFC
FFF0003FFC
ENDCHAR
STARTCHAR 0073
ENCODING 115
SWIDTH 571 0
DWIDTH 48 0
BBX 38 48 5 0
BITMAP
003FFFFFC0
03FFFFFFC0
0FFFFFFFC0
1FFFFFFFC0
3FFFFFFFC0
7FFFFFFFC0
7FFFFFFFC0
7FFC000000
FFF8000000
FFF0000000
FFF0000000
FFF0000000
FFF0000000
FFF0000000
FFF0000000
FFF0000000
FFF8000000
FFFC000000
FFFF000000
7FFFFFFC00
7FFFFFFF80
3FFFFFFFE0
3FFFFFFFF0
1FFFFFFFF0
07FFFFFFF8
00FFFFFFF8
000003FFFC
000000FFFC
0000007FFC
0000007FFC
0000003FFC
0000003FFC
0000003FFC
0000003FFC
0000003FFC
0000003FFC
0000003FFC
0000003FFC
0000003FFC
0000007FFC
000000FFF8
0FFFFFFFF8
0FFFFFFFF8
0FFFFFFFF0
0FFFFFFFE0
0FFFFFFFC0
0FFFFFFF00
0FFFFFF000
ENDCHAR
STARTCHAR 0074
ENCODING 116
SWIDTH 440 0
DWIDTH 37 0
BBX 36 48 0 0
BITMAP
FFFFFFFFF0
FFFFFFFFF0
FFFFFFFFF0
FFFFFFFFF0
FFFFFFFFF0
FFFFFFFFF0
FFFFFFFFF0
000FFF0000
000FFF0000
000FFF0000
000FFF0000
000FFF0000
000FFF0000
000FFF0000
000FFF0000
000FFF0000
000FFF0000
000FFF0000
000FFF0000
000FFF0000
000FFF0000
000FFF0000
000FFF0000
000FFF0000
000FFF0000
000FFF0000
000FFF0000
000FFF0000
000FFF0000
000FFF0000
000FFF0000
000FFF0000
000FFF0000
000FFF0000
000FFF0000
000FFF0000
000FFF0000
000FFF0000
000FFF0000
000FFF0000
000FFF0000
000FFF0000
000FFF0000
000FFF0000
000FFF0000
000FFF0000
000FFF0000
000FFF0000
ENDCHAR
STARTCHAR 0075
ENCODING 117
SWIDTH 619 0
DWIDTH 52 0
BBX 40 49 6 0
BITMAP
FFF0000FFF
FFF0000FFF
FFF0000FFF
FFF0000FFF
FFF0000FFF
FFF0000FFF
FFF0000FFF
FFF0000FFF
FFF0000FFF
FFF0000FFF
FFF0000FFF
FFF0000FFF
FFF0000FFF
FFF0000FFF
FFF0000FFF
FFF0000FFF
FFF0000FFF
FFF0000FFF
FFF0000FFF
FFF0000FFF
FFF0000FFF
FFF0000FFF
FFF0000FFF
FFF0000FFF
FFF0000FFF
FFF0000FFF
FFF0000FFF
FFF0000FFF
FFF0000FFF
FFF0000FFF
FFF0000FFF
FFF0000FFF
FFF0000FFF
FFF0000FFF
FFF0000FFF
FFF0000FFF
FFF0000FFF
FFF0000FFF
FFF0000FFF
FFF8001FFF
FFF8001FFF
7FFC003FFF
7FFFE7FFFE
7FFFFFFFFE
3FFFFFFFFC
3FFFFFFFFC
1FFFFFFFF8
07FFFFFFE0
007FFFFC00
ENDCHAR
STARTCHAR 0076
ENCODING 118
SWIDTH 523 0
DWIDTH 44 0
BBX 39 48 2 0
BITMAP
FFF0000FFE
FFF0001FFE
7FF0001FFE
7FF8001FFC
7FF8001FFC
3FF8001FFC
3FFC003FFC
3FFC003FF8
3FFC003FF8
1FFC003FF8
1FFE007FF0
1FFE007FF0
0FFE007FF0
0FFE007FF0
0FFF00FFE0
0FFF00FFE0
07FF00FFE0
07FF80FFC0
07FF80FFC0
03FF81FFC0
03FF81FFC0
03FFC1FF80
01FFC1FF80
01FFC3FF80
01FFC3FF00
01FFE3FF00
00FFE3FF00
00FFE3FF00
00FFE7FE00
007FF7FE00
007FF7FE00
007FF7FE00
007FFFFC00
003FFFFC00
003FFFFC00
003FFFF800
001FFFF800
001FFFF800
001FFFF800
000FFFF000
000FFFF000
000FFFF000
000FFFE000
0007FFE000
0007FFE000
0007FFE000
0003FFC000
0003FFC000
ENDCHAR
STARTCHAR 0077
ENCODING 119
SWIDTH 857 0
DWIDTH 72 0
BBX 67 48 2 0
BITMAP
FFF0000FFF0001FFE0
FFF0001FFF0001FFE0
7FF8001FFF0001FFC0
7FF8001FFF8001FFC0
7FF8001FFF8003FFC0
3FF8001FFF8003FFC0
3FFC003FFF8003FF80
3FFC003FFFC003FF80
3FFC003FFFC003FF80
1FFC003FFFC007FF00
1FFE007FFFC007FF00
1FFE007FFFE007FF00
0FFE007FFFE007FF00
0FFF007FFFE00FFE00
0FFF007FFFE00FFE00
07FF00FFFFF00FFE00
07FF00FFFFF00FFC00
07FF80FFFFF00FFC00
07FF80FFFFF81FFC00
03FF80FFFFF81FFC00
03FF81FFFFF81FF800
03FFC1FFBFF81FF800
01FFC1FFBFFC3FF800
01FFC1FFBFFC3FF800
01FFE3FF9FFC3FF000
00FFE3FF1FFC3FF000
00FFE3FF1FFE3FF000
00FFE3FF0FFE7FE000
00FFF3FE0FFE7FE000
007FF7FE0FFE7FE000
007FF7FE07FF7FE000
007FF7FE07FFFFC000
003FFFFC07FFFFC000
003FFFFC07FFFFC000
003FFFFC03FFFF8000
001FFFFC03FFFF8000
001FFFF803FFFF8000
001FFFF801FFFF8000
001FFFF801FFFF0000
000FFFF001FFFF0000
000FFFF000FFFF0000
000FFFF000FFFE0000
0007FFF000FFFE0000
0007FFE000FFFE0000
0007FFE0007FFE0000
0003FFE0007FFC0000
0003FFE0007FFC0000
0003FFC0003FFC0000
ENDCHAR
STARTCHAR 0078
ENCODING 120
SWIDTH 571 0
DWIDTH 48 0
BBX 39 48 4 0
BITMAP
FFF0001FFE
FFF0001FFC
7FF8003FFC
3FF8007FF8
3FFC007FF0
1FFE00FFF0
1FFE00FFE0
0FFF01FFE0
07FF03FFC0
07FF83FFC0
03FF87FF80
03FFC7FF00
01FFEFFF00
01FFEFFE00
00FFFFFE00
007FFFFC00
007FFFFC00
003FFFF800
003FFFF000
001FFFF000
001FFFE000
000FFFE000
0007FFC000
0007FFC000
0007FFC000
0007FFC000
000FFFE000
000FFFE000
001FFFF000
003FFFF000
003FFFF800
007FFFFC00
007FFFFC00
00FFFFFE00
01FFEFFE00
01FFEFFF00
03FFC7FF00
03FF87FF80
07FF83FFC0
07FF03FFC0
0FFF01FFE0
1FFE00FFE0
1FFE00FFF0
3FFC007FF0
3FF8007FF8
7FF8003FFC
7FF0003FFC
FFF0001FFE
ENDCHAR
STARTCHAR 0079
ENCODING 121
SWIDTH 571 0
DWIDTH 48 0
BBX 39 48 4 0
BITMAP
FFF0001FFE
FFF0001FFE
FFF0001FFE
FFF0001FFE
FFF0001FFE
FFF0001FFE
FFF0001FFE
FFF0001FFE
FFF0001FFE
FFF0001FFE
FFF0001FFE
FFF0001FFE
FFF0001FFE
FFF0001FFE
FFF0001FFE
FFF0001FFE
FFF0001FFE
FFF0001FFE
FFF0001FFE
FFF8003FFE
FFF8003FFE
FFFC007FFE
FFFE00FFFE
7FFFFFFFFC
7FFFFFFFFC
7FFFFFFFF8
3FFFFFFFF8
0FFFFFFFE0
01FFFFFF00
0003FFC000
0003FFC000
0003FFC000
0003FFC000
0003FFC000
0003FFC000
0003FFC000
0003FFC000
0003FFC000
0003FFC000
0003FFC000
0003FFC000
0003FFC000
0003FFC000
0003FFC000
0003FFC000
0003FFC000
0003FFC000
0003FFC000
ENDCHAR
STARTCHAR 007A
ENCODING 122
SWIDTH 464 0
DWIDTH 39 0
BBX 34 48 2 0
BITMAP
7FFFFFFFC0
7FFFFFFFC0
7FFFFFFFC0
7FFFFFFFC0
7FFFFFFFC0
7FFFFFFFC0
7FFFFFFFC0
000001FFC0
000003FFC0
000007FF80
000007FF00
00000FFF00
00001FFE00
00001FFC00
00003FFC00
00007FF800
00007FF000
0000FFF000
0001FFE000
0001FFC000
0003FFC000
0007FF8000
0007FF8000
000FFF0000
001FFE0000
001FFE0000
003FFC0000
007FF80000
007FF80000
00FFF00000
01FFE00000
01FFE00000
03FFC00000
07FF800000
07FF800000
0FFF000000
0FFE000000
1FFE000000
3FFC000000
3FFC000000
7FF8000000
FFFFFFFFC0
FFFFFFFFC0
FFFFFFFFC0
FFFFFFFFC0
FFFFFFFFC0
FFFFFFFFC0
FFFFFFFFC0
ENDCHAR
STARTCHAR 007B
ENCODING 123
SWIDTH 297 0
DWIDTH 25 0
BBX 23 65 0 0
BITMAP
03FFFE
03FFFE
03FFFE
03FFFE
03FF00
03FF00
03FF00
03FF00
03FF00
03FF00
03FF00
03FF00
03FF00
03FF00
03FF00
03FF00
03FF00
03FF00
03FF00
03FF00
03FF00
03FF00
03FF00
03FF00
07FF00
07FF00
0FFF00
1FFF00
3FFF00
FFFF00
3FFF00
1FFF00
0FFF00
0FFF00
07FF00
07FF00
03FF00
03FF00
03FF00
03FF00
03FF00
03FF00
03FF00
03FF00
03FF00
03FF00
03FF00
03FF00
03FF00
03FF00
03FF00
03FF00
03FF00
03FF00
03FF00
03FF00
03FF00
03FF00
03FF00
03FF00
03FF00
03FFFE
03FFFE
03FFFE
03FFFE
ENDCHAR
STARTCHAR 007C
ENCODING 124
SWIDTH 261 0
DWIDTH 22 0
BBX 10 80 6 -9
BITMAP
FFC0
FFC0
FFC0
FFC0
FFC0
FFC0
FFC0
FFC0
FFC0
FFC0
FFC0
FFC0
FFC0
FFC0
FFC0
FFC0
FFC0
FFC0
FFC0
FFC0
FFC0
FFC0
FFC0
FFC0
FFC0
FFC0
FFC0
FFC0
FFC0
FFC0
FFC0
FFC0
FFC0
FFC0
FFC0
FFC0
FFC0
FFC0
FFC0
FFC0
FFC0
FFC0
FFC0
FFC0
FFC0
FFC0
FFC0
FFC0
FFC0
FFC0
FFC0
FFC0
FFC0
FFC0
FFC0
FFC0
FFC0
FFC0
FFC0
FFC0
FFC0
FFC0
FFC0
FFC0
FFC0
FFC0
FFC0
FFC0
FFC0
FFC0
FFC0
FFC0
FFC0
FFC0
FFC0
FFC0
FFC0
FFC0
FFC0
FFC0
ENDCHAR
STARTCHAR 007D
ENCODING 125
SWIDTH 297 0
DWIDTH 25 0
BBX 23 65 1 0
BITMAP
FFFF80
FFFF80
FFFF80
FFFF80
01FF80
01FF80
01FF80
01FF80
01FF80
01FF80
01FF80
01FF80
01FF80
01FF80
01FF80
01FF80
01FF80
01FF80
01FF80
01FF80
01FF80
01FF80
01FF80
01FF80
01FFC0
01FFC0
01FFE0
01FFF0
01FFF8
01FFFE
01FFF8
01FFF0
01FFE0
01FFE0
01FFC0
01FFC0
01FFC0
01FF80
01FF80
01FF80
01FF80
01FF80
01FF80
01FF80
01FF80
01FF80
01FF80
01FF80
01FF80
01FF80
01FF80
01FF80
01FF80
01FF80
01FF80
01FF80
01FF80
01FF80
01FF80
01FF80
01FF80
FFFF80
FFFF80
FFFF80
FFFF80
ENDCHAR
STARTCHAR 007E
ENCODING 126
SWIDTH 380 0
DWIDTH 32 0
BBX 30 9 1 54
BITMAP
01F8007C
07FF00F8
1FFFE1F8
3FFFFFF0
3FFFFFE0
7FFFFFE0
FFFFFF80
FFFFFF00
00007000
ENDCHAR
STARTCHAR 00A0
ENCODING 160
SWIDTH 607 0
DWIDTH 51 0
BBX 0 0 0 0
BITMAP
ENDCHAR
STARTCHAR 00A1
ENCODING 161
SWIDTH 297 0
DWIDTH 25 0
BBX 13 66 5 -2
BITMAP
3FE0
7FF0
FFF8
FFF8
FFF8
FFF8
FFF8
FFF8
FFF8
FFF8
7FF0
3FE0
0000
0000
0000
FFF8
FFF8
FFF8
FFF8
FFF8
FFF8
FFF8
FFF8
FFF8
FFF8
FFF8
FFF8
FFF8
FFF8
FFF8
FFF8
FFF8
FFF8
FFF8
FFF8
FFF8
FFF8
FFF8
FFF8
FFF8
FFF8
FFF8
FFF8
FFF8
FFF8
FFF8
FFF8
FFF8
FFF8
FFF8
FFF8
FFF8
FFF8
FFF8
FFF8
FFF8
FFF8
FFF8
FFF8
FFF8
FFF8
FFF8
FFF8
FFF8
7FF0
7FE0
ENDCHAR
STARTCHAR 00A2
ENCODING 162
SWIDTH 607 0
DWIDTH 51 0
BBX 30 55 9 3
BITMAP
0003F000
0003F000
0003F000
0003F000
0003F000
0003F000
0003F000
0003F000
01FFFFFC
0FFFFFFC
1FFFFFFC
3FFFFFFC
3FFFFFFC
7FFFFFFC
7FFE0000
7FF80000
7FF80000
FFF00000
FFF00000
FFF00000
FFF00000
FFF00000
FFF00000
FFF00000
FFF00000
FFF00000
FFF00000
FFF00000
FFF00000
FFF00000
FFF00000
FFF00000
FFF00000
FFF00000
FFF00000
FFF00000
FFF00000
FFF00000
FFF00000
FFF80000
7FF80000
7FFE0000
7FFFFFFC
7FFFFFFC
3FFFFFFC
1FFFFFFC
0FFFFFFC
03FFFFFC
0003F000
0003F000
0003F000
0003F000
0003F000
0003F000
0003F000
ENDCHAR
STARTCHAR 00A3
ENCODING 163
SWIDTH 833 0
DWIDTH 70 0
BBX 60 65 4 0
BITMAP
000000003FFFE000
00000003FFFFFE00
0000000FFFFFFF80
0000003FFFFFFFC0
0000007FFFFFFFE0
000000FFFFFFFFE0
000001FFFFFFFFF0
000001FFFFFFFFF0
000003FFFFFFFFF0
000007FFF807FFF0
000007FFE003FFF0
000007FFC001FFF0
00000FFF8001FFF0
00000FFF0000FFF0
00000FFF0000FFF0
00001FFE0000FFF0
00001FFE0000FFF0
00001FFE0000FFF0
00003FFC0000FFE0
00003FFC0001FFE0
00003FFC0001FFE0
00003FFC0001FFE0
00003FF800000000
00007FF800000000
00007FF800000000
00007FF800000000
00007FF800000000
00FFFFFFFC000000
00FFFFFFF8000000
01FFFFFFF8000000
01FFFFFFF8000000
01FFFFFFF8000000
01FFFFFFF8000000
03FFFFFFF0000000
03FFFFFFF0000000
03FFFFFFF0000000
0001FFC000000000
0003FFC000000000
0003FFC000000000
0003FFC000000000
0003FFC000000000
0003FF8000000000
0007FF8000000000
0007FF8000000000
0007FF8000000000
0007FF8000000000
000FFF0000000000
000FFF0000000000
000FFF0000000000
000FFF0000000000
000FFF0000000000
001FFE0000000000
001FFE0000000000
001FFE0000000000
001FFE0000000000
FFFFFFFFFFFE0000
FFFFFFFFFFFE0000
FFFFFFFFFFFE0000
FFFFFFFFFFFE0000
FFFFFFFFFFFE0000
FFFFFFFFFFFE0000
FFFFFFFFFFFE0000
FFFFFFFFFFFE0000
FFFFFFFFFFFE0000
FFFFFFFFFFFE0000
ENDCHAR
STARTCHAR 00A4
ENCODING 164
SWIDTH 547 0
DWIDTH 46 0
BBX 30 39 8 23
BITMAP
3F0007F8
3FC00FF0
1FE01FE0
0FF03FC0
0FF87FC0
07FCFF80
03FFFF00
0FFFFFC0
1FFFFFF0
3FFFFFF0
7FFFFFF8
7FFFFFF8
7FFFFFFC
FFFFFFFC
FE0001FC
F800007C
F000003C
F000003C
F000003C
F000003C
F000003C
F000003C
F000003C
F800007C
FE0001FC
FFFFFFFC
FFFFFFFC
7FFFFFF8
7FFFFFF8
3FFFFFF0
3FFFFFE0
0FFFFFC0
07FFFF00
07FDFF80
0FF87F80
1FF03FC0
1FE01FE0
3F800FF0
7F0007F0
ENDCHAR
STARTCHAR 00A5
ENCODING 165
SWIDTH 571 0
DWIDTH 48 0
BBX 39 65 4 0
BITMAP
FFF0001FFE
FFF0001FFE
FFF0001FFE
FFF0001FFE
FFF0001FFE
FFF0001FFE
FFF0001FFE
FFF0001FFE
FFF0001FFE
FFF0001FFE
FFF0001FFE
FFF0001FFE
FFF0001FFE
FFF0001FFE
FFF0001FFE
FFF8003FFE
FFF8003FFE
FFF8003FFE
FFFC007FFE
FFFF01FFFE
FFFFFFFFFC
7FFFFFFFFC
7FFFFFFFFC
7FFFFFFFFC
3FFFFFFFF8
3FFFFFFFF8
1FFFFFFFF0
0FFFFFFFC0
01FFFFFE00
0003FFC000
0003FFC000
0003FFC000
0003FFC000
FFFFFFFFFE
FFFFFFFFFE
FFFFFFFFFE
FFFFFFFFFE
FFFFFFFFFE
FFFFFFFFFE
FFFFFFFFFE
0003FFC000
0003FFC000
0003FFC000
FFFFFFFFFE
FFFFFFFFFE
FFFFFFFFFE
FFFFFFFFFE
FFFFFFFFFE
FFFFFFFFFE
FFFFFFFFFE
0003FFC000
0003FFC000
0003FFC000
0003FFC000
0003FFC000
0003FFC000
0003FFC000
0003FFC000
0003FFC000
0003FFC000
0003FFC000
0003FFC000
0003FFC000
0003FFC000
0003FFC000
ENDCHAR
STARTCHAR 00A7
ENCODING 167
SWIDTH 666 0
DWIDTH 56 0
BBX 46 65 6 0
BITMAP
000007FFFFFC
00003FFFFFF8
0000FFFFFFF8
0001FFFFFFF8
0003FFFFFFF0
0007FFFFFFF0
000FFFFFFFF0
000FFFFFFFF0
001FFFFFFFE0
001FFFE00000
003FFE000000
003FFC000000
007FF8000000
007FF0000000
007FF0000000
00FFE0000000
00FFE0000000
00FFE0000000
01FFC0000000
01FFFFFFFC00
01FFFFFFFF00
03FFFFFFFF80
03FFFFFFFFC0
03FFFFFFFFC0
03FFFFFFFFC0
07FFFFFFFFC0
07FFFFFFFFC0
07FFFFFFFFC0
07FE000FFFC0
0FFE0007FFC0
0FFE0003FFC0
0FFE0003FFC0
0FFE0003FFC0
1FFE0003FFC0
1FFE0003FF80
1FFF8007FF80
1FFFFFFFFF80
1FFFFFFFFF80
1FFFFFFFFF80
1FFFFFFFFF00
1FFFFFFFFF00
1FFFFFFFFF00
1FFFFFFFFE00
0FFFFFFFFE00
07FFFFFFFE00
03FFFFFFFE00
0000003FFC00
0000003FFC00
0000003FFC00
0000007FF800
0000007FF800
000000FFF800
000000FFF000
000001FFF000
000003FFF000
3FFFFFFFE000
3FFFFFFFE000
3FFFFFFFC000
3FFFFFFFC000
7FFFFFFF8000
7FFFFFFF0000
7FFFFFFE0000
7FFFFFFC0000
FFFFFFF80000
FFFFFFC00000
ENDCHAR
STARTCHAR 00A8
ENCODING 168
SWIDTH 333 0
DWIDTH 28 0
BBX 27 11 0 52
BITMAP
3FC07F80
7FE0FFC0
FFF1FFE0
FFF1FFE0
FFF1FFE0
FFF1FFE0
FFF1FFE0
FFF1FFE0
FFF1FFE0
7FE0FFC0
3FC07F80
ENDCHAR
STARTCHAR 00A9
ENCODING 169
SWIDTH 500 0
DWIDTH 42 0
BBX 36 38 3 27
BITMAP
003FFFC000
03FFFFFC00
0FFFFFFF00
1FE000FF80
3E000007C0
78000001E0
70000000E0
F0000000F0
E00FFFC070
E01FFFC070
E03FFFC070
E03F000070
E07E000070
E07E000070
E07E000070
E07E000070
E07E000070
E07E000070
E07E000070
E07E000070
E07E000070
E07E000070
E07E000070
E07E000070
E07E000070
E07E000070
E07F000070
E07FFFC070
E03FFFC070
F03FFFC070
700FFFC0E0
70000000E0
38000001E0
3E000003C0
1FC0001F80
0FFFFFFF00
03FFFFFC00
003FFFC000
ENDCHAR
STARTCHAR 00AB
ENCODING 171
SWIDTH 392 0
DWIDTH 33 0
BBX 27 31 3 7
BITMAP
01FC0FE0
01F80FC0
03F81FC0
03F01F80
07F03F80
07E07F00
0FE07F00
1FC0FE00
1FC0FE00
3F81FC00
3F81F800
7F03F800
7F03F000
FE07F000
FE0FE000
FE07E000
FE07F000
7F03F000
7F03F800
3F01F800
3F81FC00
1F80FC00
1FC0FE00
0FC07E00
0FE07F00
07E03F00
07F03F80
03F01F80
03F81FC0
01F80FC0
01FC0FE0
ENDCHAR
STARTCHAR 00AC
ENCODING 172
SWIDTH 785 0
DWIDTH 66 0
BBX 52 19 6 10
BITMAP
FFFFFFFFFFFFF0
FFFFFFFFFFFFF0
FFFFFFFFFFFFF0
FFFFFFFFFFFFF0
FFFFFFFFFFFFF0
FFFFFFFFFFFFF0
FFFFFFFFFFFFF0
FFFFFFFFFFFFF0
FFFFFFFFFFFFF0
FFFFFFFFFFFFF0
00000000003FF0
00000000003FF0
00000000003FF0
00000000003FF0
00000000003FF0
00000000003FF0
00000000003FF0
00000000003FF0
00000000003FF0
ENDCHAR
STARTCHAR 00AE
ENCODING 174
SWIDTH 500 0
DWIDTH 42 0
BBX 36 38 3 27
BITMAP
003FFFC000
03FFFFFC00
0FFFFFFF00
1FE000FF80
3E000007C0
78000001E0
70000000E0
F00FFE00F0
E03FFF8070
E07FFFC070
E0FE0FE070
E0FC07E070
E0FC07E070
E0FC07E070
E0FC07E070
E0FC07E070
E0FC07E070
E0FC0FE070
E0FFFFC070
E0FFFE0070
E0FFFFC070
E0FC0FE070
E0FC07E070
E0FC07E070
E0FC07E070
E0FC07E070
E0FC07E070
E0FC07E070
E0FC07E070
F0FC07E070
70FC07E0E0
70000000E0
38000001E0
3E000003C0
1FC0001F80
0FFFFFFF00
03FFFFFC00
003FFFC000
ENDCHAR
STARTCHAR 00AF
ENCODING 175
SWIDTH 333 0
DWIDTH 28 0
BBX 25 7 1 54
BITMAP
FFFFFF80
FFFFFF80
FFFFFF80
FFFFFF80
FFFFFF80
FFFFFF80
FFFFFF80
ENDCHAR
STARTCHAR 00B0
ENCODING 176
SWIDTH 607 0
DWIDTH 51 0
BBX 24 23 13 42
BITMAP
007F00
03FFC0
07FFF0
1FFFF8
1FFFFC
3FFFFC
7F81FE
7F00FE
FE007F
FC003F
FC003F
FC003F
FC003F
FC003F
FE007F
7F00FE
7FC1FE
3FFFFC
3FFFFC
1FFFF8
07FFE0
03FFC0
00FE00
ENDCHAR
STARTCHAR 00B1
ENCODING 177
SWIDTH 607 0
DWIDTH 51 0
BBX 43 63 4 1
BITMAP
00007F800000
0000FFC00000
0001FFE00000
0001FFE00000
0001FFE00000
0001FFE00000
0001FFE00000
0001FFE00000
0001FFE00000
0001FFE00000
0001FFE00000
0001FFE00000
0001FFE00000
0001FFE00000
0001FFE00000
0001FFE00000
3FFFFFFFFF80
FFFFFFFFFFC0
FFFFFFFFFFE0
FFFFFFFFFFE0
FFFFFFFFFFE0
FFFFFFFFFFE0
FFFFFFFFFFE0
FFFFFFFFFFE0
FFFFFFFFFFE0
FFFFFFFFFFE0
FFFFFFFFFFC0
7FFFFFFFFF80
0001FFE00000
0001FFE00000
0001FFE00000
0001FFE00000
0001FFE00000
0001FFE00000
0001FFE00000
0001FFE00000
0001FFE00000
0001FFE00000
0001FFE00000
0001FFE00000
0001FFE00000
0001FFE00000
0000FFC00000
00007F800000
000000000000
000000000000
000000000000
000000000000
000000000000
000000000000
000000000000
3FFFFFFFFF80
FFFFFFFFFFC0
FFFFFFFFFFE0
FFFFFFFFFFE0
FFFFFFFFFFE0
FFFFFFFFFFE0
FFFFFFFFFFE0
FFFFFFFFFFE0
FFFFFFFFFFE0
FFFFFFFFFFE0
FFFFFFFFFFC0
7FFFFFFFFF80
ENDCHAR
STARTCHAR 00B4
ENCODING 180
SWIDTH 238 0
DWIDTH 20 0
BBX 17 14 1 51
BITMAP
03FF80
07FF00
07FF00
07FE00
0FFC00
0FFC00
1FF800
1FF000
3FF000
3FE000
7FC000
7FC000
7F8000
FF0000
ENDCHAR
STARTCHAR 00B5
ENCODING 181
SWIDTH 607 0
DWIDTH 51 0
BBX 39 65 4 0
BITMAP
001FFFFFFE
01FFFFFFFE
07FFFFFFFE
0FFFFFFFFE
1FFFFFFFFE
3FFFFFFFFE
3FFFFFFFFE
7FFFFFFFFE
7FFFFFFFFE
7FFFFFFFFE
7FFC000000
FFF8000000
FFF8000000
FFF0000000
FFF0000000
FFF0000000
FFF0000000
FFF0000000
FFF0000000
FFF0000000
FFF0000000
FFF0000000
FFF0000000
FFF0000000
FFF0000000
FFF0000000
FFF0000000
FFF0001FFE
FFF0001FFE
FFF0001FFE
FFF8001FFE
FFF8003FFE
FFFC003FFE
FFFE007FFE
7FFF81FFFE
7FFFFFFFFE
7FFFFFFFFE
7FFFFFFFFE
3FFFFFFFFE
1FFFFFFFFE
1FFFFFFFFE
0FFFFF9FFE
03FFFF1FFE
007FF81FFE
0000001FFE
0000001FFE
0000001FFE
0000001FFE
0000001FFE
0000001FFE
0000001FFE
0000001FFE
0000001FFE
0000003FFE
0000003FFE
07FFFFFFFC
07FFFFFFFC
07FFFFFFFC
07FFFFFFF8
07FFFFFFF8
07FFFFFFF0
07FFFFFFE0
07FFFFFFC0
07FFFFFF00
07FFFFF000
ENDCHAR
STARTCHAR 00B6
ENCODING 182
SWIDTH 607 0
DWIDTH 51 0
BBX 37 77 6 -13
BITMAP
000FFFC000
00FFFFFC00
07FFFFFF00
0FFFFFFF80
1FFFFFFFC0
3FFFFFFFE0
7FFFFFFFE0
7FFFFFFFF0
7FFFFFFFF0
FFFFFFFFF0
FFFFFFFFF0
FFFFFFFFF8
FFFFFFFFF8
FFFFFFFFF8
FFFFFFFFF8
FFFFFFFFF8
FFFFFFFFF8
FFFFFFFFF8
FFFFFFFFF8
FFFFFFFFF8
FFFFFFFFF8
FFFFFFFFF8
FFFFFFFFF8
7FFFFFFFF8
7FFFFFFFF8
7FFFFFFFF8
3FFFFFFFF8
3FFFFFFFF8
1FFFFFFFF8
0FFFFFFFF8
07FFFFFFF8
03FFFFFFF8
00FFFFFFF8
001FFFFFF8
00001FFFF8
0000007FF8
0000007FF8
0000007FF8
0000007FF8
0000007FF8
0000007FF8
0000007FF8
0000007FF8
0000007FF8
0000007FF8
0000007FF8
0000007FF8
0000007FF8
0000007FF8
0000007FF8
0000007FF8
0000007FF8
0000007FF8
0000007FF8
0000007FF8
0000007FF8
0000007FF8
0000007FF8
0000007FF8
0000007FF8
0000007FF8
0000007FF8
0000007FF8
0000007FF8
0000007FF8
0000007FF8
0000007FF8
0000007FF8
0000007FF8
0000007FF8
0000007FF8
0000007FF8
0000007FF8
0000007FF8
0000007FF8
0000007FF8
0000007FF8
ENDCHAR
STARTCHAR 00B7
ENCODING 183
SWIDTH 297 0
DWIDTH 25 0
BBX 14 12 5 29
BITMAP
3FF0
7FF8
FFFC
FFFC
FFFC
FFFC
FFFC
FFFC
FFFC
FFFC
7FF8
3FF0
ENDCHAR
STARTCHAR 00B8
ENCODING 184
SWIDTH 297 0
DWIDTH 25 0
BBX 18 20 1 -18
BITMAP
00F000
00E000
01E000
01E000
03C000
03C000
03FC00
07FF00
07FF80
07FFC0
003FC0
001FC0
001FC0
001FC0
003FC0
007F80
7FFF00
FFFE00
FFFC00
1FE000
ENDCHAR
STARTCHAR 00BB
ENCODING 187
SWIDTH 392 0
DWIDTH 33 0
BBX 28 31 2 7
BITMAP
FE07F000
7E03F000
7F03F800
3F01F800
3F81FC00
1F80FC00
1FC0FE00
0FC07E00
0FE07F00
07E03F00
07F03F80
03F03F80
03F81FC0
01F81FC0
01FC0FE0
00FC0FE0
00FE07F0
01FC0FE0
01FC0FE0
03F81FC0
03F81F80
07F03F80
07E03F00
0FE07F00
0FC07E00
1FC0FE00
1F81FC00
3F81FC00
3F03F800
7F03F000
7E07F000
ENDCHAR
STARTCHAR 00BF
ENCODING 191
SWIDTH 607 0
DWIDTH 51 0
BBX 33 65 4 0
BITMAP
000001FE00
000003FF00
000007FF80
000007FF80
000007FF80
000007FF80
000007FF80
000007FF80
000007FF80
000007FF80
000003FF00
000001FE00
0000000000
0000000000
0000000000
0000000000
000007FF80
000007FF80
000007FF80
000007FF80
000007FF80
000007FF80
000007FF80
000007FF80
000007FF80
00000FFF80
00000FFF80
00001FFF80
00001FFF80
00007FFF80
007FFFFF00
03FFFFFF00
07FFFFFF00
1FFFFFFE00
1FFFFFFE00
3FFFFFFC00
7FFFFFF800
7FFFFFE000
7FFFFF8000
7FFF800000
FFFE000000
FFFC000000
FFF8000000
FFF8000000
FFF0000000
FFF0000000
FFF0000000
FFF0000000
FFF0000000
FFF0000000
FFF0000000
FFF0000000
FFF0000000
FFF8000000
FFFC000000
7FFFFFFF80
7FFFFFFF80
7FFFFFFF80
3FFFFFFF80
3FFFFFFF80
1FFFFFFF80
1FFFFFFF80
07FFFFFF80
03FFFFFF80
003FFFFF80
ENDCHAR
STARTCHAR 00C0
ENCODING 192
SWIDTH 607 0
DWIDTH 51 0
BBX 39 82 6 0
BITMAP
01FFC00000
00FFC00000
00FFE00000
007FE00000
007FF00000
003FF00000
001FF80000
001FF80000
000FFC0000
0007FC0000
0007FC0000
0003FE0000
0003FE0000
0001FF0000
0000000000
0000000000
0000000000
001FFFE000
01FFFFFE00
07FFFFFF80
0FFFFFFFE0
1FFFFFFFF0
3FFFFFFFF0
3FFFFFFFF8
3FFFFFFFF8
7FFFFFFFFC
7FFF01FFFC
7FFC007FFC
7FF8003FFC
FFF8003FFE
FFF8003FFE
FFF0001FFE
FFF0001FFE
FFF0001FFE
FFF0001FFE
FFF0001FFE
FFF0001FFE
FFF0001FFE
FFF0001FFE
FFF0001FFE
FFF0001FFE
FFF0001FFE
FFF0001FFE
FFF0001FFE
FFF0001FFE
FFF0001FFE
FFF0001FFE
FFFFFFFFFE
FFFFFFFFFE
FFFFFFFFFE
FFFFFFFFFE
FFFFFFFFFE
FFFFFFFFFE
FFFFFFFFFE
FFFFFFFFFE
FFFFFFFFFE
FFF0001FFE
FFF0001FFE
FFF0001FFE
FFF0001FFE
FFF0001FFE
FFF0001FFE
FFF0001FFE
FFF0001FFE
FFF0001FFE
FFF0001FFE
FFF0001FFE
FFF0001FFE
FFF0001FFE
FFF0001FFE
FFF0001FFE
FFF0001FFE
FFF0001FFE
FFF0001FFE
FFF0001FFE
FFF0001FFE
FFF0001FFE
FFF0001FFE
FFF0001FFE
FFF0001FFE
FFF0001FFE
FFF0001FFE
ENDCHAR
STARTCHAR 00C1
ENCODING 193
SWIDTH 607 0
DWIDTH 51 0
BBX 39 82 6 0
BITMAP
000003FF80
000007FF00
000007FF00
000007FE00
00000FFC00
00000FFC00
00001FF800
00001FF000
00003FF000
00003FE000
00007FE000
00007FC000
00007F8000
0000FF8000
0000000000
0000000000
0000000000
001FFFE000
01FFFFFE00
07FFFFFF80
0FFFFFFFE0
1FFFFFFFF0
3FFFFFFFF0
3FFFFFFFF8
3FFFFFFFF8
7FFFFFFFFC
7FFF01FFFC
7FFC007FFC
7FF8003FFC
FFF8003FFE
FFF8003FFE
FFF0001FFE
FFF0001FFE
FFF0001FFE
FFF0001FFE
FFF0001FFE
FFF0001FFE
FFF0001FFE
FFF0001FFE
FFF0001FFE
FFF0001FFE
FFF0001FFE
FFF0001FFE
FFF0001FFE
FFF0001FFE
FFF0001FFE
FFF0001FFE
FFFFFFFFFE
FFFFFFFFFE
FFFFFFFFFE
FFFFFFFFFE
FFFFFFFFFE
FFFFFFFFFE
FFFFFFFFFE
FFFFFFFFFE
FFFFFFFFFE
FFF0001FFE
FFF0001FFE
FFF0001FFE
FFF0001FFE
FFF0001FFE
FFF0001FFE
FFF0001FFE
FFF0001FFE
FFF0001FFE
FFF0001FFE
FFF0001FFE
FFF0001FFE
FFF0001FFE
FFF0001FFE
FFF0001FFE
FFF0001FFE
FFF0001FFE
FFF0001FFE
FFF0001FFE
FFF0001FFE
FFF0001FFE
FFF0001FFE
FFF0001FFE
FFF0001FFE
FFF0001FFE
FFF0001FFE
ENDCHAR
STARTCHAR 00C2
ENCODING 194
SWIDTH 607 0
DWIDTH 51 0
BBX 39 82 6 0
BITMAP
0003FF0000
0003FF0000
0007FF8000
000FFFC000
000FFFC000
001FFFE000
003FFFF000
003FFFF000
007FCFF800
007F87F800
00FF03FC00
01FE01FE00
01FC00FE00
03F8007F00
0000000000
0000000000
0000000000
001FFFE000
01FFFFFE00
07FFFFFF80
0FFFFFFFE0
1FFFFFFFF0
3FFFFFFFF0
3FFFFFFFF8
3FFFFFFFF8
7FFFFFFFFC
7FFF01FFFC
7FFC007FFC
7FF8003FFC
FFF8003FFE
FFF8003FFE
FFF0001FFE
FFF0001FFE
FFF0001FFE
FFF0001FFE
FFF0001FFE
FFF0001FFE
FFF0001FFE
FFF0001FFE
FFF0001FFE
FFF0001FFE
FFF0001FFE
FFF0001FFE
FFF0001FFE
FFF0001FFE
FFF0001FFE
FFF0001FFE
FFFFFFFFFE
FFFFFFFFFE
FFFFFFFFFE
FFFFFFFFFE
FFFFFFFFFE
FFFFFFFFFE
FFFFFFFFFE
FFFFFFFFFE
FFFFFFFFFE
FFF0001FFE
FFF0001FFE
FFF0001FFE
FFF0001FFE
FFF0001FFE
FFF0001FFE
FFF0001FFE
FFF0001FFE
FFF0001FFE
FFF0001FFE
FFF0001FFE
FFF0001FFE
FFF0001FFE
FFF0001FFE
FFF0001FFE
FFF0001FFE
FFF0001FFE
FFF0001FFE
FFF0001FFE
FFF0001FFE
FFF0001FFE
FFF0001FFE
FFF0001FFE
FFF0001FFE
FFF0001FFE
FFF0001FFE
ENDCHAR
STARTCHAR 00C3
ENCODING 195
SWIDTH 607 0
DWIDTH 51 0
BBX 39 79 6 0
BITMAP
000FC003C0
007FF807C0
00FFFF0F80
01FFFFFF80
03FFFFFF00
07FFFFFE00
07FFFFFC00
07FFFFF800
00003FE000
0000000000
0000000000
0000000000
0000000000
0000000000
001FFFE000
01FFFFFE00
07FFFFFF80
0FFFFFFFE0
1FFFFFFFF0
3FFFFFFFF0
3FFFFFFFF8
3FFFFFFFF8
7FFFFFFFFC
7FFF01FFFC
7FFC007FFC
7FF8003FFC
FFF8003FFE
FFF8003FFE
FFF0001FFE
FFF0001FFE
FFF0001FFE
FFF0001FFE
FFF0001FFE
FFF0001FFE
FFF0001FFE
FFF0001FFE
FFF0001FFE
FFF0001FFE
FFF0001FFE
FFF0001FFE
FFF0001FFE
FFF0001FFE
FFF0001FFE
FFF0001FFE
FFFFFFFFFE
FFFFFFFFFE
FFFFFFFFFE
FFFFFFFFFE
FFFFFFFFFE
FFFFFFFFFE
FFFFFFFFFE
FFFFFFFFFE
FFFFFFFFFE
FFF0001FFE
FFF0001FFE
FFF0001FFE
FFF0001FFE
FFF0001FFE
FFF0001FFE
FFF0001FFE
FFF0001FFE
FFF0001FFE
FFF0001FFE
FFF0001FFE
FFF0001FFE
FFF0001FFE
FFF0001FFE
FFF0001FFE
FFF0001FFE
FFF0001FFE
FFF0001FFE
FFF0001FFE
FFF0001FFE
FFF0001FFE
FFF0001FFE
FFF0001FFE
FFF0001FFE
FFF0001FFE
FFF0001FFE
ENDCHAR
STARTCHAR 00C4
ENCODING 196
SWIDTH 607 0
DWIDTH 51 0
BBX 39 80 6 0
BITMAP
00FF01FE00
01FF83FF00
03FFC7FF80
03FFC7FF80
03FFC7FF80
03FFC7FF80
03FFC7FF80
03FFC7FF80
03FFC7FF80
01FF83FF00
00FF01FE00
0000000000
0000000000
0000000000
0000000000
001FFFE000
01FFFFFE00
07FFFFFF80
0FFFFFFFE0
1FFFFFFFF0
3FFFFFFFF0
3FFFFFFFF8
3FFFFFFFF8
7FFFFFFFFC
7FFF01FFFC
7FFC007FFC
7FF8003FFC
FFF8003FFE
FFF8003FFE
FFF0001FFE
FFF0001FFE
FFF0001FFE
FFF0001FFE
FFF0001FFE
FFF0001FFE
FFF0001FFE
FFF0001FFE
FFF0001FFE
FFF0001FFE
FFF0001FFE
FFF0001FFE
FFF0001FFE
FFF0001FFE
FFF0001FFE
FFF0001FFE
FFFFFFFFFE
FFFFFFFFFE
FFFFFFFFFE
FFFFFFFFFE
FFFFFFFFFE
FFFFFFFFFE
FFFFFFFFFE
FFFFFFFFFE
FFFFFFFFFE
FFF0001FFE
FFF0001FFE
FFF0001FFE
FFF0001FFE
FFF0001FFE
FFF0001FFE
FFF0001FFE
FFF0001FFE
FFF0001FFE
FFF0001FFE
FFF0001FFE
FFF0001FFE
FFF0001FFE
FFF0001FFE
FFF0001FFE
FFF0001FFE
FFF0001FFE
FFF0001FFE
FFF0001FFE
FFF0001FFE
FFF0001FFE
FFF0001FFE
FFF0001FFE
FFF0001FFE
FFF0001FFE
FFF0001FFE
ENDCHAR
STARTCHAR 00C5
ENCODING 197
SWIDTH 607 0
DWIDTH 51 0
BBX 39 83 6 0
BITMAP
00007C0000
0001FF0000
0003FF8000
0007FFC000
0007C7C000
000F83E000
000F01E000
000F01E000
000F01E000
000F83E000
0007C7C000
0007FFC000
0003FF8000
0001FF0000
00007C0000
0000000000
0000000000
0000000000
001FFFE000
01FFFFFE00
07FFFFFF80
0FFFFFFFE0
1FFFFFFFF0
3FFFFFFFF0
3FFFFFFFF8
3FFFFFFFF8
7FFFFFFFFC
7FFF01FFFC
7FFC007FFC
7FF8003FFC
FFF8003FFE
FFF8003FFE
FFF0001FFE
FFF0001FFE
FFF0001FFE
FFF0001FFE
FFF0001FFE
FFF0001FFE
FFF0001FFE
FFF0001FFE
FFF0001FFE
FFF0001FFE
FFF0001FFE
FFF0001FFE
FFF0001FFE
FFF0001FFE
FFF0001FFE
FFF0001FFE
FFFFFFFFFE
FFFFFFFFFE
FFFFFFFFFE
FFFFFFFFFE
FFFFFFFFFE
FFFFFFFFFE
FFFFFFFFFE
FFFFFFFFFE
FFFFFFFFFE
FFF0001FFE
FFF0001FFE
FFF0001FFE
FFF0001FFE
FFF0001FFE
FFF0001FFE
FFF0001FFE
FFF0001FFE
FFF0001FFE
FFF0001FFE
FFF0001FFE
FFF0001FFE
FFF0001FFE
FFF0001FFE
FFF0001FFE
FFF0001FFE
FFF0001FFE
FFF0001FFE
FFF0001FFE
FFF0001FFE
FFF0001FFE
FFF0001FFE
FFF0001FFE
FFF0001FFE
FFF0001FFE
FFF0001FFE
ENDCHAR
STARTCHAR 00C6
ENCODING 198
SWIDTH 869 0
DWIDTH 73 0
BBX 62 65 6 0
BITMAP
001FFFFFFFFFFFFC
01FFFFFFFFFFFFFC
07FFFFFFFFFFFFFC
0FFFFFFFFFFFFFFC
1FFFFFFFFFFFFFFC
3FFFFFFFFFFFFFFC
3FFFFFFFFFFFFFFC
3FFFFFFFFFFFFFFC
7FFFFFFFFFFFFFFC
7FFFC7FFFFFC0000
7FFE00FFFFC00000
7FFC007FFF800000
FFF8003FFF000000
FFF8003FFF000000
FFF0001FFF000000
FFF0001FFE000000
FFF0001FFE000000
FFF0001FFE000000
FFF0001FFE000000
FFF0001FFE000000
FFF0001FFE000000
FFF0001FFE000000
FFF0001FFE000000
FFF0001FFE000000
FFF0001FFE000000
FFF0001FFE000000
FFF0001FFE000000
FFFFFFFFFFFFFE00
FFFFFFFFFFFFFE00
FFFFFFFFFFFFFE00
FFFFFFFFFFFFFE00
FFFFFFFFFFFFFE00
FFFFFFFFFFFFFE00
FFFFFFFFFFFFFE00
FFFFFFFFFFFFFE00
FFFFFFFFFFFFFE00
FFF0001FFE000000
FFF0001FFE000000
FFF0001FFE000000
FFF0001FFE000000
FFF0001FFE000000
FFF0001FFE000000
FFF0001FFE000000
FFF0001FFE000000
FFF0001FFE000000
FFF0001FFE000000
FFF0001FFE000000
FFF0001FFE000000
FFF0001FFE000000
FFF0001FFE000000
FFF0001FFF000000
FFF0001FFF000000
FFF0000FFF000000
FFF0000FFF800000
FFF0000FFFC00000
FFF0000FFFFFFFFC
FFF0000FFFFFFFFC
FFF0000FFFFFFFFC
FFF00007FFFFFFFC
FFF00007FFFFFFFC
FFF00007FFFFFFFC
FFF00003FFFFFFFC
FFF00001FFFFFFFC
FFF00000FFFFFFFC
FFF000003FFFFFFC
ENDCHAR
STARTCHAR 00C7
ENCODING 199
SWIDTH 511 0
DWIDTH 43 0
BBX 35 82 4 -17
BITMAP
00FFFFFFE0
03FFFFFFE0
0FFFFFFFE0
1FFFFFFFE0
1FFFFFFFE0
3FFFFFFFE0
3FFFFFFFE0
3FFFFFFFE0
7FFFFFFFE0
7FFFE00000
7FFE000000
7FFC000000
7FF8000000
7FF8000000
FFF8000000
FFF0000000
FFF0000000
FFF0000000
FFF0000000
FFF0000000
FFF0000000
FFF0000000
FFF0000000
FFF0000000
FFF0000000
FFF0000000
FFF0000000
FFF0000000
FFF0000000
FFF0000000
FFF0000000
FFF0000000
FFF0000000
FFF0000000
FFF0000000
FFF0000000
FFF0000000
FFF0000000
FFF0000000
FFF0000000
FFF0000000
FFF0000000
FFF0000000
FFF0000000
FFF0000000
FFF0000000
FFF0000000
FFF0000000
FFF0000000
FFF8000000
FFF8000000
FFF8000000
7FF8000000
7FFC000000
7FFF000000
7FFFFFFFE0
7FFFFFFFE0
7FFFFFFFE0
3FFFFFFFE0
3FFFFFFFE0
1FFFFFFFE0
1FFFFFFFE0
0FFFFFFFE0
07FFFFFFE0
00FFFFFFE0
00001E0000
00003C0000
00003C0000
00003FC000
00007FF000
00007FF800
0000FFFC00
000003FC00
000001FC00
000001FC00
000001FC00
000003FC00
000007F800
000FFFF000
000FFFE000
001FFFC000
0001FE0000
ENDCHAR
STARTCHAR 00C8
ENCODING 200
SWIDTH 511 0
DWIDTH 43 0
BBX 35 82 4 0
BITMAP
01FFC00000
01FFC00000
00FFE00000
007FE00000
007FF00000
003FF00000
001FF80000
001FF80000
000FF80000
000FFC0000
0007FC0000
0003FE0000
0003FE0000
0001FE0000
0000000000
0000000000
0000000000
00FFFFFFE0
03FFFFFFE0
0FFFFFFFE0
1FFFFFFFE0
1FFFFFFFE0
3FFFFFFFE0
3FFFFFFFE0
3FFFFFFFE0
7FFFFFFFE0
7FFFE00000
7FFE000000
7FFC000000
7FF8000000
7FF8000000
FFF8000000
FFF0000000
FFF0000000
FFF0000000
FFF0000000
FFF0000000
FFF0000000
FFF0000000
FFF0000000
FFF0000000
FFF0000000
FFF0000000
FFF0000000
FFFFFFF000
FFFFFFF000
FFFFFFF000
FFFFFFF000
FFFFFFF000
FFFFFFF000
FFFFFFF000
FFFFFFF000
FFFFFFF000
FFF0000000
FFF0000000
FFF0000000
FFF0000000
FFF0000000
FFF0000000
FFF0000000
FFF0000000
FFF0000000
FFF0000000
FFF0000000
FFF0000000
FFF0000000
FFF0000000
FFF8000000
FFF8000000
7FF8000000
7FFC000000
7FFE000000
7FFFFFFFE0
7FFFFFFFE0
7FFFFFFFE0
3FFFFFFFE0
3FFFFFFFE0
3FFFFFFFE0
1FFFFFFFE0
0FFFFFFFE0
07FFFFFFE0
01FFFFFFE0
ENDCHAR
STARTCHAR 00C9
ENCODING 201
SWIDTH 511 0
DWIDTH 43 0
BBX 35 82 4 0
BITMAP
00000FFF00
00000FFE00
00000FFC00
00001FFC00
00001FF800
00003FF000
00003FF000
00007FE000
00007FC000
00007FC000
0000FF8000
0000FF8000
0001FF0000
0001FE0000
0000000000
0000000000
0000000000
00FFFFFFE0
03FFFFFFE0
0FFFFFFFE0
1FFFFFFFE0
1FFFFFFFE0
3FFFFFFFE0
3FFFFFFFE0
3FFFFFFFE0
7FFFFFFFE0
7FFFE00000
7FFE000000
7FFC000000
7FF8000000
7FF8000000
FFF8000000
FFF0000000
FFF0000000
FFF0000000
FFF0000000
FFF0000000
FFF0000000
FFF0000000
FFF0000000
FFF0000000
FFF0000000
FFF0000000
FFF0000000
FFFFFFF000
FFFFFFF000
FFFFFFF000
FFFFFFF000
FFFFFFF000
FFFFFFF000
FFFFFFF000
FFFFFFF000
FFFFFFF000
FFF0000000
FFF0000000
FFF0000000
FFF0000000
FFF0000000
FFF0000000
FFF0000000
FFF0000000
FFF0000000
FFF0000000
FFF0000000
FFF0000000
FFF0000000
FFF0000000
FFF8000000
FFF8000000
7FF8000000
7FFC000000
7FFE000000
7FFFFFFFE0
7FFFFFFFE0
7FFFFFFFE0
3FFFFFFFE0
3FFFFFFFE0
3FFFFFFFE0
1FFFFFFFE0
0FFFFFFFE0
07FFFFFFE0
01FFFFFFE0
ENDCHAR
STARTCHAR 00CA
ENCODING 202
SWIDTH 511 0
DWIDTH 43 0
BBX 35 82 4 0
BITMAP
0001FF8000
0001FF8000
0003FFC000
0007FFE000
0007FFE000
000FFFF000
001FFFF800
001FFFF800
003FE7FC00
007FC3FE00
007F81FE00
00FF007F00
01FE003F80
01F8001F80
0000000000
0000000000
0000000000
00FFFFFFE0
03FFFFFFE0
0FFFFFFFE0
1FFFFFFFE0
1FFFFFFFE0
3FFFFFFFE0
3FFFFFFFE0
3FFFFFFFE0
7FFFFFFFE0
7FFFE00000
7FFE000000
7FFC000000
7FF8000000
7FF8000000
FFF8000000
FFF0000000
FFF0000000
FFF0000000
FFF0000000
FFF0000000
FFF0000000
FFF0000000
FFF0000000
FFF0000000
FFF0000000
FFF0000000
FFF0000000
FFFFFFF000
FFFFFFF000
FFFFFFF000
FFFFFFF000
FFFFFFF000
FFFFFFF000
FFFFFFF000
FFFFFFF000
FFFFFFF000
FFF0000000
FFF0000000
FFF0000000
FFF0000000
FFF0000000
FFF0000000
FFF0000000
FFF0000000
FFF0000000
FFF0000000
FFF0000000
FFF0000000
FFF0000000
FFF0000000
FFF8000000
FFF8000000
7FF8000000
7FFC000000
7FFE000000
7FFFFFFFE0
7FFFFFFFE0
7FFFFFFFE0
3FFFFFFFE0
3FFFFFFFE0
3FFFFFFFE0
1FFFFFFFE0
0FFFFFFFE0
07FFFFFFE0
01FFFFFFE0
ENDCHAR
STARTCHAR 00CB
ENCODING 203
SWIDTH 511 0
DWIDTH 43 0
BBX 34 79 4 0
BITMAP
007F80FF00
00FFC1FF80
01FFE3FFC0
01FFE3FFC0
01FFE3FFC0
01FFE3FFC0
01FFE3FFC0
01FFE3FFC0
01FFE3FFC0
00FFC1FF80
007F80FF00
0000000000
0000000000
0000000000
00FFFFFFC0
03FFFFFFC0
0FFFFFFFC0
1FFFFFFFC0
1FFFFFFFC0
3FFFFFFFC0
3FFFFFFFC0
3FFFFFFFC0
7FFFFFFFC0
7FFFE00000
7FFE000000
7FFC000000
7FF8000000
7FF8000000
FFF8000000
FFF0000000
FFF0000000
FFF0000000
FFF0000000
FFF0000000
FFF0000000
FFF0000000
FFF0000000
FFF0000000
FFF0000000
FFF0000000
FFF0000000
FFFFFFF000
FFFFFFF000
FFFFFFF000
FFFFFFF000
FFFFFFF000
FFFFFFF000
FFFFFFF000
FFFFFFF000
FFFFFFF000
FFF0000000
FFF0000000
FFF0000000
FFF0000000
FFF0000000
FFF0000000
FFF0000000
FFF0000000
FFF0000000
FFF0000000
FFF0000000
FFF0000000
FFF0000000
FFF0000000
FFF8000000
FFF8000000
7FF8000000
7FFC000000
7FFE000000
7FFFFFFFC0
7FFFFFFFC0
7FFFFFFFC0
3FFFFFFFC0
3FFFFFFFC0
3FFFFFFFC0
1FFFFFFFC0
0FFFFFFFC0
07FFFFFFC0
01FFFFFFC0
ENDCHAR
STARTCHAR 00CC
ENCODING 204
SWIDTH 273 0
DWIDTH 23 0
BBX 17 82 6 0
BITMAP
FFE000
7FF000
3FF000
3FF000
1FF800
1FF800
0FFC00
07FC00
07FC00
03FE00
03FE00
01FF00
00FF00
00FF80
000000
000000
000000
FFF000
FFF000
FFF000
FFF000
FFF000
FFF000
FFF000
FFF000
FFF000
FFF000
FFF000
FFF000
FFF000
FFF000
FFF000
FFF000
FFF000
FFF000
FFF000
FFF000
FFF000
FFF000
FFF000
FFF000
FFF000
FFF000
FFF000
FFF000
FFF000
FFF000
FFF000
FFF000
FFF000
FFF000
FFF000
FFF000
FFF000
FFF000
FFF000
FFF000
FFF000
FFF000
FFF000
FFF000
FFF000
FFF000
FFF000
FFF000
FFF000
FFF000
FFF000
FFF000
FFF000
FFF000
FFF000
FFF000
FFF000
FFF000
FFF000
FFF000
FFF000
FFF000
FFF000
FFF000
FFF000
ENDCHAR
STARTCHAR 00CD
ENCODING 205
SWIDTH 273 0
DWIDTH 23 0
BBX 18 82 6 0
BITMAP
01FFC0
01FFC0
03FF80
03FF00
03FF00
07FE00
07FE00
0FFC00
0FF800
0FF800
1FF000
1FE000
3FE000
3FC000
000000
000000
000000
FFF000
FFF000
FFF000
FFF000
FFF000
FFF000
FFF000
FFF000
FFF000
FFF000
FFF000
FFF000
FFF000
FFF000
FFF000
FFF000
FFF000
FFF000
FFF000
FFF000
FFF000
FFF000
FFF000
FFF000
FFF000
FFF000
FFF000
FFF000
FFF000
FFF000
FFF000
FFF000
FFF000
FFF000
FFF000
FFF000
FFF000
FFF000
FFF000
FFF000
FFF000
FFF000
FFF000
FFF000
FFF000
FFF000
FFF000
FFF000
FFF000
FFF000
FFF000
FFF000
FFF000
FFF000
FFF000
FFF000
FFF000
FFF000
FFF000
FFF000
FFF000
FFF000
FFF000
FFF000
FFF000
ENDCHAR
STARTCHAR 00CE
ENCODING 206
SWIDTH 273 0
DWIDTH 23 0
BBX 27 82 6 0
BITMAP
007FC000
00FFC000
01FFE000
01FFF000
03FFF000
07FFF800
07FFFC00
0FFFFC00
1FF3FE00
1FE1FF00
3FC07F80
7F803F80
7F001FC0
FE000FE0
00000000
00000000
00000000
FFF00000
FFF00000
FFF00000
FFF00000
FFF00000
FFF00000
FFF00000
FFF00000
FFF00000
FFF00000
FFF00000
FFF00000
FFF00000
FFF00000
FFF00000
FFF00000
FFF00000
FFF00000
FFF00000
FFF00000
FFF00000
FFF00000
FFF00000
FFF00000
FFF00000
FFF00000
FFF00000
FFF00000
FFF00000
FFF00000
FFF00000
FFF00000
FFF00000
FFF00000
FFF00000
FFF00000
FFF00000
FFF00000
FFF00000
FFF00000
FFF00000
FFF00000
FFF00000
FFF00000
FFF00000
FFF00000
FFF00000
FFF00000
FFF00000
FFF00000
FFF00000
FFF00000
FFF00000
FFF00000
FFF00000
FFF00000
FFF00000
FFF00000
FFF00000
FFF00000
FFF00000
FFF00000
FFF00000
FFF00000
FFF00000
ENDCHAR
STARTCHAR 00CF
ENCODING 207
SWIDTH 273 0
DWIDTH 23 0
BBX 27 79 5 0
BITMAP
3FC07F80
7FE0FFC0
FFF1FFE0
FFF1FFE0
FFF1FFE0
FFF1FFE0
FFF1FFE0
FFF1FFE0
FFF1FFE0
7FE0FFC0
3FC07F80
00000000
00000000
00000000
FFF00000
FFF00000
FFF00000
FFF00000
FFF00000
FFF00000
FFF00000
FFF00000
FFF00000
FFF00000
FFF00000
FFF00000
FFF00000
FFF00000
FFF00000
FFF00000
FFF00000
FFF00000
FFF00000
FFF00000
FFF00000
FFF00000
FFF00000
FFF00000
FFF00000
FFF00000
FFF00000
FFF00000
FFF00000
FFF00000
FFF00000
FFF00000
FFF00000
FFF00000
FFF00000
FFF00000
FFF00000
FFF00000
FFF00000
FFF00000
FFF00000
FFF00000
FFF00000
FFF00000
FFF00000
FFF00000
FFF00000
FFF00000
FFF00000
FFF00000
FFF00000
FFF00000
FFF00000
FFF00000
FFF00000
FFF00000
FFF00000
FFF00000
FFF00000
FFF00000
FFF00000
FFF00000
FFF00000
FFF00000
FFF00000
ENDCHAR
STARTCHAR 00D1
ENCODING 209
SWIDTH 595 0
DWIDTH 50 0
BBX 39 79 6 0
BITMAP
001FC003C0
007FF80780
00FFFE1F80
01FFFFFF00
03FFFFFF00
07FFFFFE00
07FFFFFC00
0FFFFFF800
00007FE000
0000000000
0000000000
0000000000
0000000000
0000000000
001FFFE000
01FFFFFE00
07FFFFFF80
0FFFFFFFE0
1FFFFFFFF0
3FFFFFFFF0
3FFFFFFFF8
3FFFFFFFF8
7FFFFFFFFC
7FFF01FFFC
7FFC007FFC
7FF8003FFC
FFF8003FFE
FFF8003FFE
FFF0001FFE
FFF0001FFE
FFF0001FFE
FFF0001FFE
FFF0001FFE
FFF0001FFE
FFF0001FFE
FFF0001FFE
FFF0001FFE
FFF0001FFE
FFF0001FFE
FFF0001FFE
FFF0001FFE
FFF0001FFE
FFF0001FFE
FFF0001FFE
FFF0001FFE
FFF0001FFE
FFF0001FFE
FFF0001FFE
FFF0001FFE
FFF0001FFE
FFF0001FFE
FFF0001FFE
FFF0001FFE
FFF0001FFE
FFF0001FFE
FFF0001FFE
FFF0001FFE
FFF0001FFE
FFF0001FFE
FFF0001FFE
FFF0001FFE
FFF0001FFE
FFF0001FFE
FFF0001FFE
FFF0001FFE
FFF0001FFE
FFF0001FFE
FFF0001FFE
FFF0001FFE
FFF0001FFE
FFF0001FFE
FFF0001FFE
FFF0001FFE
FFF0001FFE
FFF0001FFE
FFF0001FFE
FFF0001FFE
FFF0001FFE
FFF0001FFE
ENDCHAR
STARTCHAR 00D2
ENCODING 210
SWIDTH 595 0
DWIDTH 50 0
BBX 41 82 4 0
BITMAP
00FFE0000000
007FE0000000
007FF0000000
003FF0000000
003FF8000000
001FF8000000
000FF8000000
000FFC000000
0007FC000000
0003FE000000
0003FE000000
0001FF000000
0001FF000000
0000FF000000
000000000000
000000000000
000000000000
000FFFF80000
00FFFFFF8000
03FFFFFFE000
07FFFFFFF000
0FFFFFFFF800
1FFFFFFFFC00
3FFFFFFFFE00
3FFFFFFFFE00
7FFFFFFFFF00
7FFF80FFFF00
7FFE003FFF00
7FFC001FFF00
7FF8000FFF00
FFF8000FFF80
FFF8000FFF80
FFF00007FF80
FFF00007FF80
FFF00007FF80
FFF00007FF80
FFF00007FF80
FFF00007FF80
FFF00007FF80
FFF00007FF80
FFF00007FF80
FFF00007FF80
FFF00007FF80
FFF00007FF80
FFF00007FF80
FFF00007FF80
FFF00007FF80
FFF00007FF80
FFF00007FF80
FFF00007FF80
FFF00007FF80
FFF00007FF80
FFF00007FF80
FFF00007FF80
FFF00007FF80
FFF00007FF80
FFF00007FF80
FFF00007FF80
FFF00007FF80
FFF00007FF80
FFF00007FF80
FFF00007FF80
FFF00007FF80
FFF00007FF80
FFF00007FF80
FFF00007FF80
FFF80007FF80
FFF8000FFF80
FFF8000FFF80
7FF8000FFF00
7FFC001FFF00
7FFE001FFF00
7FFF807FFF00
7FFFFFFFFF00
3FFFFFFFFE00
3FFFFFFFFE00
1FFFFFFFFC00
1FFFFFFFF800
0FFFFFFFF800
03FFFFFFE000
00FFFFFF8000
001FFFF80000
ENDCHAR
STARTCHAR 00D3
ENCODING 211
SWIDTH 595 0
DWIDTH 50 0
BBX 41 82 4 0
BITMAP
000007FF0000
000007FE0000
00000FFE0000
00000FFC0000
00001FF80000
00001FF80000
00003FF00000
00003FF00000
00003FE00000
00007FC00000
00007FC00000
0000FF800000
0000FF000000
0000FF000000
000000000000
000000000000
000000000000
000FFFF80000
00FFFFFF8000
03FFFFFFE000
07FFFFFFF000
0FFFFFFFF800
1FFFFFFFFC00
3FFFFFFFFE00
3FFFFFFFFE00
7FFFFFFFFF00
7FFF80FFFF00
7FFE003FFF00
7FFC001FFF00
7FF8000FFF00
FFF8000FFF80
FFF8000FFF80
FFF00007FF80
FFF00007FF80
FFF00007FF80
FFF00007FF80
FFF00007FF80
FFF00007FF80
FFF00007FF80
FFF00007FF80
FFF00007FF80
FFF00007FF80
FFF00007FF80
FFF00007FF80
FFF00007FF80
FFF00007FF80
FFF00007FF80
FFF00007FF80
FFF00007FF80
FFF00007FF80
FFF00007FF80
FFF00007FF80
FFF00007FF80
FFF00007FF80
FFF00007FF80
FFF00007FF80
FFF00007FF80
FFF00007FF80
FFF00007FF80
FFF00007FF80
FFF00007FF80
FFF00007FF80
FFF00007FF80
FFF00007FF80
FFF00007FF80
FFF00007FF80
FFF80007FF80
FFF8000FFF80
FFF8000FFF80
7FF8000FFF00
7FFC001FFF00
7FFE001FFF00
7FFF807FFF00
7FFFFFFFFF00
3FFFFFFFFE00
3FFFFFFFFE00
1FFFFFFFFC00
1FFFFFFFF800
0FFFFFFFF800
03FFFFFFE000
00FFFFFF8000
001FFFF80000
ENDCHAR
STARTCHAR 00D4
ENCODING 212
SWIDTH 595 0
DWIDTH 50 0
BBX 41 82 4 0
BITMAP
0000FF800000
0001FF800000
0003FFC00000
0003FFE00000
0007FFE00000
000FFFF00000
000FFFF80000
001FFFF80000
001FE7FC0000
003FC3FE0000
007F81FE0000
007F00FF0000
00FE007F8000
01FC003F8000
000000000000
000000000000
000000000000
000FFFF80000
00FFFFFF8000
03FFFFFFE000
07FFFFFFF000
0FFFFFFFF800
1FFFFFFFFC00
3FFFFFFFFE00
3FFFFFFFFE00
7FFFFFFFFF00
7FFF80FFFF00
7FFE003FFF00
7FFC001FFF00
7FF8000FFF00
FFF8000FFF80
FFF8000FFF80
FFF00007FF80
FFF00007FF80
FFF00007FF80
FFF00007FF80
FFF00007FF80
FFF00007FF80
FFF00007FF80
FFF00007FF80
FFF00007FF80
FFF00007FF80
FFF00007FF80
FFF00007FF80
FFF00007FF80
FFF00007FF80
FFF00007FF80
FFF00007FF80
FFF00007FF80
FFF00007FF80
FFF00007FF80
FFF00007FF80
FFF00007FF80
FFF00007FF80
FFF00007FF80
FFF00007FF80
FFF00007FF80
FFF00007FF80
FFF00007FF80
FFF00007FF80
FFF00007FF80
FFF00007FF80
FFF00007FF80
FFF00007FF80
FFF00007FF80
FFF00007FF80
FFF80007FF80
FFF8000FFF80
FFF8000FFF80
7FF8000FFF00
7FFC001FFF00
7FFE001FFF00
7FFF807FFF00
7FFFFFFFFF00
3FFFFFFFFE00
3FFFFFFFFE00
1FFFFFFFFC00
1FFFFFFFF800
0FFFFFFFF800
03FFFFFFE000
00FFFFFF8000
001FFFF80000
ENDCHAR
STARTCHAR 00D5
ENCODING 213
SWIDTH 595 0
DWIDTH 50 0
BBX 41 79 4 0
BITMAP
000FC003C000
007FF807C000
00FFFF0F8000
01FFFFFF8000
03FFFFFF0000
03FFFFFE0000
07FFFFFE0000
07FFFFF80000
00003FE00000
000000000000
000000000000
000000000000
000000000000
000000000000
000FFFF80000
00FFFFFF8000
03FFFFFFE000
07FFFFFFF000
0FFFFFFFF800
1FFFFFFFFC00
3FFFFFFFFE00
3FFFFFFFFE00
7FFFFFFFFF00
7FFF80FFFF00
7FFE003FFF00
7FFC001FFF00
7FF8000FFF00
FFF8000FFF80
FFF8000FFF80
FFF00007FF80
FFF00007FF80
FFF00007FF80
FFF00007FF80
FFF00007FF80
FFF00007FF80
FFF00007FF80
FFF00007FF80
FFF00007FF80
FFF00007FF80
FFF00007FF80
FFF00007FF80
FFF00007FF80
FFF00007FF80
FFF00007FF80
FFF00007FF80
FFF00007FF80
FFF00007FF80
FFF00007FF80
FFF00007FF80
FFF00007FF80
FFF00007FF80
FFF00007FF80
FFF00007FF80
FFF00007FF80
FFF00007FF80
FFF00007FF80
FFF00007FF80
FFF00007FF80
FFF00007FF80
FFF00007FF80
FFF00007FF80
FFF00007FF80
FFF00007FF80
FFF80007FF80
FFF8000FFF80
FFF8000FFF80
7FF8000FFF00
7FFC001FFF00
7FFE001FFF00
7FFF807FFF00
7FFFFFFFFF00
3FFFFFFFFE00
3FFFFFFFFE00
1FFFFFFFFC00
1FFFFFFFF800
0FFFFFFFF800
03FFFFFFE000
00FFFFFF8000
001FFFF80000
ENDCHAR
STARTCHAR 00D6
ENCODING 214
SWIDTH 595 0
DWIDTH 50 0
BBX 41 80 4 0
BITMAP
007F80FF0000
00FFC1FF8000
01FFE3FFC000
01FFE3FFC000
01FFE3FFC000
01FFE3FFC000
01FFE3FFC000
01FFE3FFC000
01FFE3FFC000
00FFC1FF8000
007F80FF0000
000000000000
000000000000
000000000000
000000000000
000FFFF80000
00FFFFFF8000
03FFFFFFE000
07FFFFFFF000
0FFFFFFFF800
1FFFFFFFFC00
3FFFFFFFFE00
3FFFFFFFFE00
7FFFFFFFFF00
7FFF80FFFF00
7FFE003FFF00
7FFC001FFF00
7FF8000FFF00
FFF8000FFF80
FFF8000FFF80
FFF00007FF80
FFF00007FF80
FFF00007FF80
FFF00007FF80
FFF00007FF80
FFF00007FF80
FFF00007FF80
FFF00007FF80
FFF00007FF80
FFF00007FF80
FFF00007FF80
FFF00007FF80
FFF00007FF80
FFF00007FF80
FFF00007FF80
FFF00007FF80
FFF00007FF80
FFF00007FF80
FFF00007FF80
FFF00007FF80
FFF00007FF80
FFF00007FF80
FFF00007FF80
FFF00007FF80
FFF00007FF80
FFF00007FF80
FFF00007FF80
FFF00007FF80
FFF00007FF80
FFF00007FF80
FFF00007FF80
FFF00007FF80
FFF00007FF80
FFF00007FF80
FFF80007FF80
FFF8000FFF80
FFF8000FFF80
7FF8000FFF00
7FFC001FFF00
7FFE001FFF00
7FFF807FFF00
7FFFFFFFFF00
3FFFFFFFFE00
3FFFFFFFFE00
1FFFFFFFFC00
1FFFFFFFF800
0FFFFFFFF800
03FFFFFFE000
00FFFFFF8000
001FFFF80000
ENDCHAR
STARTCHAR 00D8
ENCODING 216
SWIDTH 595 0
DWIDTH 50 0
BBX 41 84 4 -10
BITMAP
00000001FC00
00000001FC00
00000001F800
00000003F800
00000003F800
00000003F000
00000007F000
00000007F000
00000007E000
0000000FE000
000FFFFFE000
00FFFFFFC000
03FFFFFFE000
07FFFFFFF800
0FFFFFFFFC00
1FFFFFFFFC00
3FFFFFFFFE00
3FFFFFFFFE00
7FFFFFFFFF00
7FFF00FFFF00
7FFE007FFF00
7FFC00FFFF00
7FF800FFFF80
FFF800FFFF80
FFF801FFFF80
FFF001FFFF80
FFF001FFFF80
FFF003FFFF80
FFF003F7FF80
FFF003F7FF80
FFF007F7FF80
FFF007E7FF80
FFF007E7FF80
FFF00FE7FF80
FFF00FC7FF80
FFF00FC7FF80
FFF01FC7FF80
FFF01F87FF80
FFF01F87FF80
FFF03F87FF80
FFF03F07FF80
FFF07F07FF80
FFF07F07FF80
FFF07E07FF80
FFF0FE07FF80
FFF0FE07FF80
FFF0FC07FF80
FFF1FC07FF80
FFF1FC07FF80
FFF1F807FF80
FFF3F807FF80
FFF3F807FF80
FFF3F007FF80
FFF7F007FF80
FFF7F007FF80
FFF7E007FF80
FFFFE007FF80
FFFFE007FF80
FFFFC007FF80
FFFFC007FF80
FFFFC00FFF80
FFFF800FFF80
7FFF800FFF00
7FFF801FFF00
7FFF001FFF00
7FFF007FFF00
7FFFFFFFFE00
3FFFFFFFFE00
3FFFFFFFFE00
1FFFFFFFFC00
1FFFFFFFF800
0FFFFFFFF800
07FFFFFFE000
01FFFFFF8000
03FFFFF80000
03F800000000
03F000000000
07F000000000
07F000000000
07E000000000
0FE000000000
0FE000000000
1FC000000000
1FC000000000
ENDCHAR
STARTCHAR 00D9
ENCODING 217
SWIDTH 619 0
DWIDTH 52 0
BBX 40 82 6 0
BITMAP
00FFE00000
00FFE00000
007FF00000
003FF00000
003FF80000
001FF80000
000FFC0000
000FFC0000
0007FC0000
0007FE0000
0003FE0000
0001FF0000
0001FF0000
0000FF0000
0000000000
0000000000
0000000000
FFF0000FFF
FFF0000FFF
FFF0000FFF
FFF0000FFF
FFF0000FFF
FFF0000FFF
FFF0000FFF
FFF0000FFF
FFF0000FFF
FFF0000FFF
FFF0000FFF
FFF0000FFF
FFF0000FFF
FFF0000FFF
FFF0000FFF
FFF0000FFF
FFF0000FFF
FFF0000FFF
FFF0000FFF
FFF0000FFF
FFF0000FFF
FFF0000FFF
FFF0000FFF
FFF0000FFF
FFF0000FFF
FFF0000FFF
FFF0000FFF
FFF0000FFF
FFF0000FFF
FFF0000FFF
FFF0000FFF
FFF0000FFF
FFF0000FFF
FFF0000FFF
FFF0000FFF
FFF0000FFF
FFF0000FFF
FFF0000FFF
FFF0000FFF
FFF0000FFF
FFF0000FFF
FFF0000FFF
FFF0000FFF
FFF0000FFF
FFF0000FFF
FFF0000FFF
FFF0000FFF
FFF0000FFF
FFF0000FFF
FFF0000FFF
FFF0000FFF
FFF8001FFF
FFF8001FFF
FFF8001FFF
7FFC003FFF
7FFE007FFE
7FFFFFFFFE
7FFFFFFFFE
7FFFFFFFFE
3FFFFFFFFC
3FFFFFFFFC
1FFFFFFFF8
0FFFFFFFE0
03FFFFFF80
003FFFF800
ENDCHAR
STARTCHAR 00DA
ENCODING 218
SWIDTH 619 0
DWIDTH 52 0
BBX 40 82 6 0
BITMAP
000003FF80
000007FF00
000007FF00
000007FE00
00000FFE00
00000FFC00
00001FF800
00001FF800
00003FF000
00003FE000
00003FE000
00007FC000
00007F8000
0000FF8000
0000000000
0000000000
0000000000
FFF0000FFF
FFF0000FFF
FFF0000FFF
FFF0000FFF
FFF0000FFF
FFF0000FFF
FFF0000FFF
FFF0000FFF
FFF0000FFF
FFF0000FFF
FFF0000FFF
FFF0000FFF
FFF0000FFF
FFF0000FFF
FFF0000FFF
FFF0000FFF
FFF0000FFF
FFF0000FFF
FFF0000FFF
FFF0000FFF
FFF0000FFF
FFF0000FFF
FFF0000FFF
FFF0000FFF
FFF0000FFF
FFF0000FFF
FFF0000FFF
FFF0000FFF
FFF0000FFF
FFF0000FFF
FFF0000FFF
FFF0000FFF
FFF0000FFF
FFF0000FFF
FFF0000FFF
FFF0000FFF
FFF0000FFF
FFF0000FFF
FFF0000FFF
FFF0000FFF
FFF0000FFF
FFF0000FFF
FFF0000FFF
FFF0000FFF
FFF0000FFF
FFF0000FFF
FFF0000FFF
FFF0000FFF
FFF0000FFF
FFF0000FFF
FFF0000FFF
FFF8001FFF
FFF8001FFF
FFF8001FFF
7FFC003FFF
7FFE007FFE
7FFFFFFFFE
7FFFFFFFFE
7FFFFFFFFE
3FFFFFFFFC
3FFFFFFFFC
1FFFFFFFF8
0FFFFFFFE0
03FFFFFF80
003FFFF800
ENDCHAR
STARTCHAR 00DB
ENCODING 219
SWIDTH 619 0
DWIDTH 52 0
BBX 40 82 6 0
BITMAP
0001FF8000
0001FF8000
0003FFC000
0007FFE000
0007FFE000
000FFFF000
001FFFF800
001FFFFC00
003FE7FC00
007FC3FE00
007F81FF00
00FF007F00
01FC003F80
03F8001FC0
0000000000
0000000000
0000000000
FFF0000FFF
FFF0000FFF
FFF0000FFF
FFF0000FFF
FFF0000FFF
FFF0000FFF
FFF0000FFF
FFF0000FFF
FFF0000FFF
FFF0000FFF
FFF0000FFF
FFF0000FFF
FFF0000FFF
FFF0000FFF
FFF0000FFF
FFF0000FFF
FFF0000FFF
FFF0000FFF
FFF0000FFF
FFF0000FFF
FFF0000FFF
FFF0000FFF
FFF0000FFF
FFF0000FFF
FFF0000FFF
FFF0000FFF
FFF0000FFF
FFF0000FFF
FFF0000FFF
FFF0000FFF
FFF0000FFF
FFF0000FFF
FFF0000FFF
FFF0000FFF
FFF0000FFF
FFF0000FFF
FFF0000FFF
FFF0000FFF
FFF0000FFF
FFF0000FFF
FFF0000FFF
FFF0000FFF
FFF0000FFF
FFF0000FFF
FFF0000FFF
FFF0000FFF
FFF0000FFF
FFF0000FFF
FFF0000FFF
FFF0000FFF
FFF0000FFF
FFF8001FFF
FFF8001FFF
FFF8001FFF
7FFC003FFF
7FFE007FFE
7FFFFFFFFE
7FFFFFFFFE
7FFFFFFFFE
3FFFFFFFFC
3FFFFFFFFC
1FFFFFFFF8
0FFFFFFFE0
03FFFFFF80
003FFFF800
ENDCHAR
STARTCHAR 00DC
ENCODING 220
SWIDTH 619 0
DWIDTH 52 0
BBX 40 80 6 0
BITMAP
00FF01FE00
01FF83FF00
03FFC7FF80
03FFC7FF80
03FFC7FF80
03FFC7FF80
03FFC7FF80
03FFC7FF80
03FFC7FF80
01FF83FF00
00FF01FE00
0000000000
0000000000
0000000000
0000000000
FFF0000FFF
FFF0000FFF
FFF0000FFF
FFF0000FFF
FFF0000FFF
FFF0000FFF
FFF0000FFF
FFF0000FFF
FFF0000FFF
FFF0000FFF
FFF0000FFF
FFF0000FFF
FFF0000FFF
FFF0000FFF
FFF0000FFF
FFF0000FFF
FFF0000FFF
FFF0000FFF
FFF0000FFF
FFF0000FFF
FFF0000FFF
FFF0000FFF
FFF0000FFF
FFF0000FFF
FFF0000FFF
FFF0000FFF
FFF0000FFF
FFF0000FFF
FFF0000FFF
FFF0000FFF
FFF0000FFF
FFF0000FFF
FFF0000FFF
FFF0000FFF
FFF0000FFF
FFF0000FFF
FFF0000FFF
FFF0000FFF
FFF0000FFF
FFF0000FFF
FFF0000FFF
FFF0000FFF
FFF0000FFF
FFF0000FFF
FFF0000FFF
FFF0000FFF
FFF0000FFF
FFF0000FFF
FFF0000FFF
FFF0000FFF
FFF0000FFF
FFF8001FFF
FFF8001FFF
FFF8001FFF
7FFC003FFF
7FFE007FFE
7FFFFFFFFE
7FFFFFFFFE
7FFFFFFFFE
3FFFFFFFFC
3FFFFFFFFC
1FFFFFFFF8
0FFFFFFFE0
03FFFFFF80
003FFFF800
ENDCHAR
STARTCHAR 00DD
ENCODING 221
SWIDTH 571 0
DWIDTH 48 0
BBX 0 0 0 0
BITMAP
ENDCHAR
STARTCHAR 00DF
ENCODING 223
SWIDTH 559 0
DWIDTH 47 0
BBX 37 74 6 -9
BITMAP
000FFFC000
00FFFFFC00
03FFFFFF00
0FFFFFFFC0
1FFFFFFFE0
1FFFFFFFF0
3FFFFFFFF0
3FFFFFFFF8
7FFFFFFFF8
7FFE03FFF8
7FFC01FFF8
7FF800FFF8
FFF800FFF8
FFF0007FF8
FFF0007FF8
FFF0007FF8
FFF0007FF8
FFF0007FF8
FFF0007FF8
FFF0007FF8
FFF000FFF8
FFF000FFF8
FFF001FFF8
FFF007FFF8
FFF0FFFFF0
FFF0FFFFF0
FFF0FFFFE0
FFF0FFFFC0
FFF0FFFF00
FFF0FFFF00
FFF0FFFF80
FFF0FFFFC0
FFF0FFFFE0
FFF0FFFFE0
FFF00FFFF0
FFF003FFF0
FFF001FFF8
FFF000FFF8
FFF000FFF8
FFF0007FF8
FFF0007FF8
FFF0007FF8
FFF0007FF8
FFF0007FF8
FFF0007FF8
FFF0007FF8
FFF0007FF8
FFF0007FF8
FFF0007FF8
FFF0007FF8
FFF0007FF8
FFF0007FF8
FFF000FFF8
FFF000FFF8
FFF003FFF8
FFF007FFF8
FFF0FFFFF8
FFF0FFFFF0
FFF0FFFFF0
FFF0FFFFE0
FFF0FFFFC0
FFF0FFFF80
FFF0FFFF00
FFF0FFF800
FFF0FF8000
FFF0000000
FFF0000000
FFF0000000
FFF0000000
FFF0000000
FFF0000000
FFF0000000
FFF0000000
FFF0000000
ENDCHAR
STARTCHAR 00E0
ENCODING 224
SWIDTH 607 0
DWIDTH 51 0
BBX 39 65 6 0
BITMAP
01FFC00000
00FFC00000
00FFE00000
007FE00000
007FF00000
003FF00000
001FF80000
001FF80000
000FFC0000
0007FC0000
0007FC0000
0003FE0000
0001FE0000
0001FF0000
0000000000
0000000000
0000000000
001FFFF000
03FFFFFF80
0FFFFFFFE0
1FFFFFFFF0
3FFFFFFFF8
3FFFFFFFF8
7FFFFFFFFC
7FFC00FFFC
7FF8003FFC
FFF8003FFE
FFF0001FFE
FFF0001FFE
FFF0001FFE
FFF0001FFE
FFF0001FFE
FFF0001FFE
FFF0001FFE
FFF0001FFE
FFF0001FFE
FFF0001FFE
FFF0001FFE
FFF0001FFE
FFFFFFFFFE
FFFFFFFFFE
FFFFFFFFFE
FFFFFFFFFE
FFFFFFFFFE
FFFFFFFFFE
FFFFFFFFFE
FFF0001FFE
FFF0001FFE
FFF0001FFE
FFF0001FFE
FFF0001FFE
FFF0001FFE
FFF0001FFE
FFF0001FFE
FFF0001FFE
FFF0001FFE
FFF0001FFE
FFF0001FFE
FFF0001FFE
FFF0001FFE
FFF0001FFE
FFF0001FFE
FFF0001FFE
FFF0001FFE
FFF0001FFE
ENDCHAR
STARTCHAR 00E1
ENCODING 225
SWIDTH 607 0
DWIDTH 51 0
BBX 39 65 6 0
BITMAP
00000FFE00
00000FFE00
00001FFC00
00001FF800
00003FF800
00003FF000
00007FE000
00007FE000
00007FC000
0000FF8000
0000FF8000
0001FF0000
0001FE0000
0003FE0000
0000000000
0000000000
0000000000
001FFFF000
03FFFFFF80
0FFFFFFFE0
1FFFFFFFF0
3FFFFFFFF8
3FFFFFFFF8
7FFFFFFFFC
7FFC00FFFC
7FF8003FFC
FFF8003FFE
FFF0001FFE
FFF0001FFE
FFF0001FFE
FFF0001FFE
FFF0001FFE
FFF0001FFE
FFF0001FFE
FFF0001FFE
FFF0001FFE
FFF0001FFE
FFF0001FFE
FFF0001FFE
FFFFFFFFFE
FFFFFFFFFE
FFFFFFFFFE
FFFFFFFFFE
FFFFFFFFFE
FFFFFFFFFE
FFFFFFFFFE
FFF0001FFE
FFF0001FFE
FFF0001FFE
FFF0001FFE
FFF0001FFE
FFF0001FFE
FFF0001FFE
FFF0001FFE
FFF0001FFE
FFF0001FFE
FFF0001FFE
FFF0001FFE
FFF0001FFE
FFF0001FFE
FFF0001FFE
FFF0001FFE
FFF0001FFE
FFF0001FFE
FFF0001FFE
ENDCHAR
STARTCHAR 00E2
ENCODING 226
SWIDTH 607 0
DWIDTH 51 0
BBX 39 65 6 0
BITMAP
0003FE0000
0007FF0000
000FFF0000
000FFF8000
001FFFC000
003FFFC000
003FFFE000
007FFFF000
007F9FF000
00FF0FF800
01FE03FC00
01FC01FC00
03F800FE00
07F0007F00
0000000000
0000000000
0000000000
001FFFF000
03FFFFFF80
0FFFFFFFE0
1FFFFFFFF0
3FFFFFFFF8
3FFFFFFFF8
7FFFFFFFFC
7FFC00FFFC
7FF8003FFC
FFF8003FFE
FFF0001FFE
FFF0001FFE
FFF0001FFE
FFF0001FFE
FFF0001FFE
FFF0001FFE
FFF0001FFE
FFF0001FFE
FFF0001FFE
FFF0001FFE
FFF0001FFE
FFF0001FFE
FFFFFFFFFE
FFFFFFFFFE
FFFFFFFFFE
FFFFFFFFFE
FFFFFFFFFE
FFFFFFFFFE
FFFFFFFFFE
FFF0001FFE
FFF0001FFE
FFF0001FFE
FFF0001FFE
FFF0001FFE
FFF0001FFE
FFF0001FFE
FFF0001FFE
FFF0001FFE
FFF0001FFE
FFF0001FFE
FFF0001FFE
FFF0001FFE
FFF0001FFE
FFF0001FFE
FFF0001FFE
FFF0001FFE
FFF0001FFE
FFF0001FFE
ENDCHAR
STARTCHAR 00E3
ENCODING 227
SWIDTH 607 0
DWIDTH 51 0
BBX 39 63 6 0
BITMAP
001F800780
007FF00F80
01FFFE1F80
03FFFFFF00
03FFFFFE00
07FFFFFE00
0FFFFFFC00
0FFFFFF800
00007FC000
0000000000
0000000000
0000000000
0000000000
0000000000
0000000000
001FFFF000
03FFFFFF80
0FFFFFFFE0
1FFFFFFFF0
3FFFFFFFF8
3FFFFFFFF8
7FFFFFFFFC
7FFC00FFFC
7FF8003FFC
FFF8003FFE
FFF0001FFE
FFF0001FFE
FFF0001FFE
FFF0001FFE
FFF0001FFE
FFF0001FFE
FFF0001FFE
FFF0001FFE
FFF0001FFE
FFF0001FFE
FFF0001FFE
FFF0001FFE
FFFFFFFFFE
FFFFFFFFFE
FFFFFFFFFE
FFFFFFFFFE
FFFFFFFFFE
FFFFFFFFFE
FFFFFFFFFE
FFF0001FFE
FFF0001FFE
FFF0001FFE
FFF0001FFE
FFF0001FFE
FFF0001FFE
FFF0001FFE
FFF0001FFE
FFF0001FFE
FFF0001FFE
FFF0001FFE
FFF0001FFE
FFF0001FFE
FFF0001FFE
FFF0001FFE
FFF0001FFE
FFF0001FFE
FFF0001FFE
FFF0001FFE
ENDCHAR
STARTCHAR 00E4
ENCODING 228
SWIDTH 607 0
DWIDTH 51 0
BBX 39 63 6 0
BITMAP
00FF01FE00
01FF83FF00
03FFC7FF80
03FFC7FF80
03FFC7FF80
03FFC7FF80
03FFC7FF80
03FFC7FF80
03FFC7FF80
01FF83FF00
00FF01FE00
0000000000
0000000000
0000000000
0000000000
001FFFF000
03FFFFFF80
0FFFFFFFE0
1FFFFFFFF0
3FFFFFFFF8
3FFFFFFFF8
7FFFFFFFFC
7FFC00FFFC
7FF8003FFC
FFF8003FFE
FFF0001FFE
FFF0001FFE
FFF0001FFE
FFF0001FFE
FFF0001FFE
FFF0001FFE
FFF0001FFE
FFF0001FFE
FFF0001FFE
FFF0001FFE
FFF0001FFE
FFF0001FFE
FFFFFFFFFE
FFFFFFFFFE
FFFFFFFFFE
FFFFFFFFFE
FFFFFFFFFE
FFFFFFFFFE
FFFFFFFFFE
FFF0001FFE
FFF0001FFE
FFF0001FFE
FFF0001FFE
FFF0001FFE
FFF0001FFE
FFF0001FFE
FFF0001FFE
FFF0001FFE
FFF0001FFE
FFF0001FFE
FFF0001FFE
FFF0001FFE
FFF0001FFE
FFF0001FFE
FFF0001FFE
FFF0001FFE
FFF0001FFE
FFF0001FFE
ENDCHAR
STARTCHAR 00E5
ENCODING 229
SWIDTH 607 0
DWIDTH 51 0
BBX 39 66 6 0
BITMAP
0000F80000
0003FE0000
0007FF0000
000FFF8000
000F8F8000
001F07C000
001E03C000
001E03C000
001E03C000
001F07C000
000F8F8000
000FFF8000
0007FF0000
0003FE0000
0000F80000
0000000000
0000000000
0000000000
001FFFF000
03FFFFFF80
0FFFFFFFE0
1FFFFFFFF0
3FFFFFFFF8
3FFFFFFFF8
7FFFFFFFFC
7FFC00FFFC
7FF8003FFC
FFF8003FFE
FFF0001FFE
FFF0001FFE
FFF0001FFE
FFF0001FFE
FFF0001FFE
FFF0001FFE
FFF0001FFE
FFF0001FFE
FFF0001FFE
FFF0001FFE
FFF0001FFE
FFF0001FFE
FFFFFFFFFE
FFFFFFFFFE
FFFFFFFFFE
FFFFFFFFFE
FFFFFFFFFE
FFFFFFFFFE
FFFFFFFFFE
FFF0001FFE
FFF0001FFE
FFF0001FFE
FFF0001FFE
FFF0001FFE
FFF0001FFE
FFF0001FFE
FFF0001FFE
FFF0001FFE
FFF0001FFE
FFF0001FFE
FFF0001FFE
FFF0001FFE
FFF0001FFE
FFF0001FFE
FFF0001FFE
FFF0001FFE
FFF0001FFE
FFF0001FFE
ENDCHAR
STARTCHAR 00E6
ENCODING 230
SWIDTH 869 0
DWIDTH 73 0
BBX 62 48 6 0
BITMAP
003FFFFFFFFFFFFC
03FFFFFFFFFFFFFC
0FFFFFFFFFFFFFFC
1FFFFFFFFFFFFFFC
3FFFFFFFFFFFFFFC
3FFFFFFFFFFFFFFC
7FFFFFFFFFFFFFFC
7FFE00FFFFE00000
7FF8007FFF800000
FFF8003FFF000000
FFF0001FFF000000
FFF0001FFE000000
FFF0001FFE000000
FFF0001FFE000000
FFF0001FFE000000
FFF0001FFE000000
FFF0001FFE000000
FFF0001FFE000000
FFF0001FFE000000
FFFFFFFFFFFFFE00
FFFFFFFFFFFFFE00
FFFFFFFFFFFFFE00
FFFFFFFFFFFFFE00
FFFFFFFFFFFFFE00
FFFFFFFFFFFFFE00
FFFFFFFFFFFFFE00
FFF0001FFE000000
FFF0001FFE000000
FFF0001FFE000000
FFF0001FFE000000
FFF0001FFE000000
FFF0001FFE000000
FFF0001FFE000000
FFF0001FFE000000
FFF0001FFE000000
FFF0001FFE000000
FFF0001FFE000000
FFF0001FFF000000
FFF0000FFF000000
FFF0000FFF800000
FFF0000FFFC00000
FFF0000FFFFFFFFC
FFF0000FFFFFFFFC
FFF00007FFFFFFFC
FFF00007FFFFFFFC
FFF00003FFFFFFFC
FFF00001FFFFFFFC
FFF000003FFFFFFC
ENDCHAR
STARTCHAR 00E7
ENCODING 231
SWIDTH 511 0
DWIDTH 43 0
BBX 35 66 4 -18
BITMAP
01FFFFFFE0
07FFFFFFE0
0FFFFFFFE0
1FFFFFFFE0
3FFFFFFFE0
3FFFFFFFE0
7FFFFFFFE0
7FFE000000
7FFC000000
7FF8000000
FFF8000000
FFF0000000
FFF0000000
FFF0000000
FFF0000000
FFF0000000
FFF0000000
FFF0000000
FFF0000000
FFF0000000
FFF0000000
FFF0000000
FFF0000000
FFF0000000
FFF0000000
FFF0000000
FFF0000000
FFF0000000
FFF0000000
FFF0000000
FFF0000000
FFF0000000
FFF0000000
FFF0000000
FFF0000000
FFF0000000
FFF0000000
FFF8000000
FFF8000000
7FFC000000
7FFE000000
7FFFFFFFE0
7FFFFFFFE0
3FFFFFFFE0
3FFFFFFFE0
1FFFFFFFE0
0FFFFFFFE0
01FFFFFFE0
00001E0000
00001E0000
00001E0000
00003C0000
00003E0000
00003FE000
00007FF800
00007FF800
00007FFC00
000003FC00
000001FC00
000001FC00
000001FC00
000007F800
0007FFF000
000FFFE000
001FFFC000
0001FE0000
ENDCHAR
STARTCHAR 00E8
ENCODING 232
SWIDTH 511 0
DWIDTH 43 0
BBX 35 65 4 0
BITMAP
01FFC00000
01FFC00000
00FFE00000
007FE00000
007FF00000
003FF00000
001FF80000
001FF80000
000FF80000
0007FC0000
0007FC0000
0003FE0000
0001FE0000
0001FF0000
0000000000
0000000000
0000000000
01FFFFFFE0
07FFFFFFE0
0FFFFFFFE0
1FFFFFFFE0
3FFFFFFFE0
3FFFFFFFE0
7FFFFFFFE0
7FFE000000
7FFC000000
7FF8000000
FFF8000000
FFF0000000
FFF0000000
FFF0000000
FFF0000000
FFF0000000
FFF0000000
FFF0000000
FFF0000000
FFFFFFF000
FFFFFFF000
FFFFFFF000
FFFFFFF000
FFFFFFF000
FFFFFFF000
FFFFFFF000
FFF0000000
FFF0000000
FFF0000000
FFF0000000
FFF0000000
FFF0000000
FFF0000000
FFF0000000
FFF0000000
FFF0000000
FFF0000000
FFF8000000
FFF8000000
7FFC000000
7FFE000000
7FFFFFFFE0
7FFFFFFFE0
3FFFFFFFE0
3FFFFFFFE0
1FFFFFFFE0
0FFFFFFFE0
01FFFFFFE0
ENDCHAR
STARTCHAR 00E9
ENCODING 233
SWIDTH 511 0
DWIDTH 43 0
BBX 35 65 4 0
BITMAP
00001FFC00
00001FFC00
00003FF800
00003FF000
00003FF000
00007FE000
00007FE000
0000FFC000
0000FF8000
0001FF8000
0001FF0000
0001FE0000
0003FE0000
0003FC0000
0000000000
0000000000
0000000000
01FFFFFFE0
07FFFFFFE0
0FFFFFFFE0
1FFFFFFFE0
3FFFFFFFE0
3FFFFFFFE0
7FFFFFFFE0
7FFE000000
7FFC000000
7FF8000000
FFF8000000
FFF0000000
FFF0000000
FFF0000000
FFF0000000
FFF0000000
FFF0000000
FFF0000000
FFF0000000
FFFFFFF000
FFFFFFF000
FFFFFFF000
FFFFFFF000
FFFFFFF000
FFFFFFF000
FFFFFFF000
FFF0000000
FFF0000000
FFF0000000
FFF0000000
FFF0000000
FFF0000000
FFF0000000
FFF0000000
FFF0000000
FFF0000000
FFF0000000
FFF8000000
FFF8000000
7FFC000000
7FFE000000
7FFFFFFFE0
7FFFFFFFE0
3FFFFFFFE0
3FFFFFFFE0
1FFFFFFFE0
0FFFFFFFE0
01FFFFFFE0
ENDCHAR
STARTCHAR 00EA
ENCODING 234
SWIDTH 511 0
DWIDTH 43 0
BBX 35 65 4 0
BITMAP
0001FF8000
0003FF8000
0003FFC000
0007FFE000
000FFFE000
000FFFF000
001FFFF800
003FFFF800
003FE7FC00
007F83FE00
00FF01FE00
00FE00FF00
01FC007F80
03F8003F80
0000000000
0000000000
0000000000
01FFFFFFE0
07FFFFFFE0
0FFFFFFFE0
1FFFFFFFE0
3FFFFFFFE0
3FFFFFFFE0
7FFFFFFFE0
7FFE000000
7FFC000000
7FF8000000
FFF8000000
FFF0000000
FFF0000000
FFF0000000
FFF0000000
FFF0000000
FFF0000000
FFF0000000
FFF0000000
FFFFFFF000
FFFFFFF000
FFFFFFF000
FFFFFFF000
FFFFFFF000
FFFFFFF000
FFFFFFF000
FFF0000000
FFF0000000
FFF0000000
FFF0000000
FFF0000000
FFF0000000
FFF0000000
FFF0000000
FFF0000000
FFF0000000
FFF0000000
FFF8000000
FFF8000000
7FFC000000
7FFE000000
7FFFFFFFE0
7FFFFFFFE0
3FFFFFFFE0
3FFFFFFFE0
1FFFFFFFE0
0FFFFFFFE0
01FFFFFFE0
ENDCHAR
STARTCHAR 00EB
ENCODING 235
SWIDTH 511 0
DWIDTH 43 0
BBX 34 63 4 0
BITMAP
007F80FF00
00FFC1FF80
01FFE3FFC0
01FFE3FFC0
01FFE3FFC0
01FFE3FFC0
01FFE3FFC0
01FFE3FFC0
01FFE3FFC0
00FFC1FF80
007F80FF00
0000000000
0000000000
0000000000
0000000000
01FFFFFFC0
07FFFFFFC0
0FFFFFFFC0
1FFFFFFFC0
3FFFFFFFC0
3FFFFFFFC0
7FFFFFFFC0
7FFE000000
7FFC000000
7FF8000000
FFF8000000
FFF0000000
FFF0000000
FFF0000000
FFF0000000
FFF0000000
FFF0000000
FFF0000000
FFF0000000
FFFFFFF800
FFFFFFF800
FFFFFFF800
FFFFFFF800
FFFFFFF800
FFFFFFF800
FFFFFFF800
FFF0000000
FFF0000000
FFF0000000
FFF0000000
FFF0000000
FFF0000000
FFF0000000
FFF0000000
FFF0000000
FFF0000000
FFF0000000
FFF8000000
FFF8000000
7FFC000000
7FFF000000
7FFFFFFFC0
7FFFFFFFC0
3FFFFFFFC0
3FFFFFFFC0
1FFFFFFFC0
0FFFFFFFC0
03FFFFFFC0
ENDCHAR
STARTCHAR 00EC
ENCODING 236
SWIDTH 273 0
DWIDTH 23 0
BBX 17 65 5 0
BITMAP
FFF000
7FF000
3FF800
3FF800
1FF800
0FFC00
0FFC00
07FE00
03FE00
03FF00
01FF00
00FF00
00FF80
007F80
000000
000000
000000
FFF000
FFF000
FFF000
FFF000
FFF000
FFF000
FFF000
FFF000
FFF000
FFF000
FFF000
FFF000
FFF000
FFF000
FFF000
FFF000
FFF000
FFF000
FFF000
FFF000
FFF000
FFF000
FFF000
FFF000
FFF000
FFF000
FFF000
FFF000
FFF000
FFF000
FFF000
FFF000
FFF000
FFF000
FFF000
FFF000
FFF000
FFF000
FFF000
FFF000
FFF000
FFF000
FFF000
FFF000
FFF000
FFF000
FFF000
FFF000
ENDCHAR
STARTCHAR 00ED
ENCODING 237
SWIDTH 273 0
DWIDTH 23 0
BBX 18 65 5 0
BITMAP
01FFC0
01FFC0
03FF80
03FF00
07FF00
07FE00
07FC00
0FFC00
0FF800
1FF800
1FF000
3FE000
3FE000
7FC000
000000
000000
000000
FFF000
FFF000
FFF000
FFF000
FFF000
FFF000
FFF000
FFF000
FFF000
FFF000
FFF000
FFF000
FFF000
FFF000
FFF000
FFF000
FFF000
FFF000
FFF000
FFF000
FFF000
FFF000
FFF000
FFF000
FFF000
FFF000
FFF000
FFF000
FFF000
FFF000
FFF000
FFF000
FFF000
FFF000
FFF000
FFF000
FFF000
FFF000
FFF000
FFF000
FFF000
FFF000
FFF000
FFF000
FFF000
FFF000
FFF000
FFF000
ENDCHAR
STARTCHAR 00EE
ENCODING 238
SWIDTH 273 0
DWIDTH 23 0
BBX 27 65 5 0
BITMAP
007FC000
00FFE000
00FFF000
01FFF000
03FFF800
03FFFC00
07FFFC00
0FFFFE00
0FF1FF00
1FE0FF00
3FC07F80
7F803FC0
7F001FC0
FE000FE0
00000000
00000000
00000000
FFF00000
FFF00000
FFF00000
FFF00000
FFF00000
FFF00000
FFF00000
FFF00000
FFF00000
FFF00000
FFF00000
FFF00000
FFF00000
FFF00000
FFF00000
FFF00000
FFF00000
FFF00000
FFF00000
FFF00000
FFF00000
FFF00000
FFF00000
FFF00000
FFF00000
FFF00000
FFF00000
FFF00000
FFF00000
FFF00000
FFF00000
FFF00000
FFF00000
FFF00000
FFF00000
FFF00000
FFF00000
FFF00000
FFF00000
FFF00000
FFF00000
FFF00000
FFF00000
FFF00000
FFF00000
FFF00000
FFF00000
FFF00000
ENDCHAR
STARTCHAR 00EF
ENCODING 239
SWIDTH 273 0
DWIDTH 23 0
BBX 28 63 5 0
BITMAP
3FC03FC0
7FE07FE0
FFF0FFF0
FFF0FFF0
FFF0FFF0
FFF0FFF0
FFF0FFF0
FFF0FFF0
FFF0FFF0
7FE07FE0
3FC03FC0
00000000
00000000
00000000
00000000
FFF00000
FFF00000
FFF00000
FFF00000
FFF00000
FFF00000
FFF00000
FFF00000
FFF00000
FFF00000
FFF00000
FFF00000
FFF00000
FFF00000
FFF00000
FFF00000
FFF00000
FFF00000
FFF00000
FFF00000
FFF00000
FFF00000
FFF00000
FFF00000
FFF00000
FFF00000
FFF00000
FFF00000
FFF00000
FFF00000
FFF00000
FFF00000
FFF00000
FFF00000
FFF00000
FFF00000
FFF00000
FFF00000
FFF00000
FFF00000
FFF00000
FFF00000
FFF00000
FFF00000
FFF00000
FFF00000
FFF00000
FFF00000
ENDCHAR
STARTCHAR 00F1
ENCODING 241
SWIDTH 607 0
DWIDTH 51 0
BBX 39 63 6 0
BITMAP
000FC003C0
007FF807C0
00FFFF0F80
01FFFFFF80
03FFFFFF00
03FFFFFE00
07FFFFFC00
07FFFFF800
00003FE000
0000000000
0000000000
0000000000
0000000000
0000000000
0000000000
001FFFF000
03FFFFFF80
0FFFFFFFE0
1FFFFFFFF0
3FFFFFFFF8
3FFFFFFFF8
7FFFFFFFFC
7FFC00FFFC
7FF8003FFC
FFF8003FFE
FFF0001FFE
FFF0001FFE
FFF0001FFE
FFF0001FFE
FFF0001FFE
FFF0001FFE
FFF0001FFE
FFF0001FFE
FFF0001FFE
FFF0001FFE
FFF0001FFE
FFF0001FFE
FFF0001FFE
FFF0001FFE
FFF0001FFE
FFF0001FFE
FFF0001FFE
FFF0001FFE
FFF0001FFE
FFF0001FFE
FFF0001FFE
FFF0001FFE
FFF0001FFE
FFF0001FFE
FFF0001FFE
FFF0001FFE
FFF0001FFE
FFF0001FFE
FFF0001FFE
FFF0001FFE
FFF0001FFE
FFF0001FFE
FFF0001FFE
FFF0001FFE
FFF0001FFE
FFF0001FFE
FFF0001FFE
FFF0001FFE
ENDCHAR
STARTCHAR 00F2
ENCODING 242
SWIDTH 595 0
DWIDTH 50 0
BBX 41 65 4 0
BITMAP
01FFC0000000
00FFE0000000
007FE0000000
007FF0000000
003FF0000000
001FF8000000
001FF8000000
000FF8000000
0007FC000000
0007FC000000
0003FE000000
0003FE000000
0001FF000000
0000FF000000
000000000000
000000000000
000000000000
001FFFFC0000
01FFFFFFC000
07FFFFFFF000
1FFFFFFFF800
3FFFFFFFFC00
3FFFFFFFFE00
7FFFFFFFFF00
7FFE003FFF00
7FFC001FFF00
FFF8000FFF80
FFF8000FFF80
FFF00007FF80
FFF00007FF80
FFF00007FF80
FFF00007FF80
FFF00007FF80
FFF00007FF80
FFF00007FF80
FFF00007FF80
FFF00007FF80
FFF00007FF80
FFF00007FF80
FFF00007FF80
FFF00007FF80
FFF00007FF80
FFF00007FF80
FFF00007FF80
FFF00007FF80
FFF00007FF80
FFF00007FF80
FFF00007FF80
FFF00007FF80
FFF00007FF80
FFF00007FF80
FFF00007FF80
FFF00007FF80
FFF80007FF80
FFF8000FFF80
7FF8000FFF00
7FFC001FFF00
7FFE003FFF00
7FFFFFFFFF00
3FFFFFFFFE00
3FFFFFFFFE00
1FFFFFFFFC00
0FFFFFFFF000
03FFFFFFC000
001FFFFC0000
ENDCHAR
STARTCHAR 00F3
ENCODING 243
SWIDTH 595 0
DWIDTH 50 0
BBX 41 65 4 0
BITMAP
000007FF0000
00000FFE0000
00000FFE0000
00000FFC0000
00001FF80000
00001FF80000
00003FF00000
00003FE00000
00007FE00000
00007FC00000
00007F800000
0000FF800000
0000FF000000
0001FE000000
000000000000
000000000000
000000000000
001FFFFC0000
01FFFFFFC000
07FFFFFFF000
1FFFFFFFF800
3FFFFFFFFC00
3FFFFFFFFE00
7FFFFFFFFF00
7FFE003FFF00
7FFC001FFF00
FFF8000FFF80
FFF8000FFF80
FFF00007FF80
FFF00007FF80
FFF00007FF80
FFF00007FF80
FFF00007FF80
FFF00007FF80
FFF00007FF80
FFF00007FF80
FFF00007FF80
FFF00007FF80
FFF00007FF80
FFF00007FF80
FFF00007FF80
FFF00007FF80
FFF00007FF80
FFF00007FF80
FFF00007FF80
FFF00007FF80
FFF00007FF80
FFF00007FF80
FFF00007FF80
FFF00007FF80
FFF00007FF80
FFF00007FF80
FFF00007FF80
FFF80007FF80
FFF8000FFF80
7FF8000FFF00
7FFC001FFF00
7FFE003FFF00
7FFFFFFFFF00
3FFFFFFFFE00
3FFFFFFFFE00
1FFFFFFFFC00
0FFFFFFFF000
03FFFFFFC000
001FFFFC0000
ENDCHAR
STARTCHAR 00F4
ENCODING 244
SWIDTH 595 0
DWIDTH 50 0
BBX 41 65 4 0
BITMAP
0001FF000000
0003FF800000
0003FFC00000
0007FFC00000
000FFFE00000
000FFFF00000
001FFFF00000
001FFFF80000
003FE7F80000
007FC3FC0000
007F81FE0000
00FF00FE0000
01FE007F0000
01FC003F8000
000000000000
000000000000
000000000000
001FFFFC0000
01FFFFFFC000
07FFFFFFF000
1FFFFFFFF800
3FFFFFFFFC00
3FFFFFFFFE00
7FFFFFFFFF00
7FFE003FFF00
7FFC001FFF00
FFF8000FFF80
FFF8000FFF80
FFF00007FF80
FFF00007FF80
FFF00007FF80
FFF00007FF80
FFF00007FF80
FFF00007FF80
FFF00007FF80
FFF00007FF80
FFF00007FF80
FFF00007FF80
FFF00007FF80
FFF00007FF80
FFF00007FF80
FFF00007FF80
FFF00007FF80
FFF00007FF80
FFF00007FF80
FFF00007FF80
FFF00007FF80
FFF00007FF80
FFF00007FF80
FFF00007FF80
FFF00007FF80
FFF00007FF80
FFF00007FF80
FFF80007FF80
FFF8000FFF80
7FF8000FFF00
7FFC001FFF00
7FFE003FFF00
7FFFFFFFFF00
3FFFFFFFFE00
3FFFFFFFFE00
1FFFFFFFFC00
0FFFFFFFF000
03FFFFFFC000
001FFFFC0000
ENDCHAR
STARTCHAR 00F5
ENCODING 245
SWIDTH 595 0
DWIDTH 50 0
BBX 41 63 4 0
BITMAP
000FC003E000
003FF803C000
007FFF0FC000
00FFFFFF8000
01FFFFFF8000
03FFFFFF0000
03FFFFFE0000
07FFFFFC0000
00001FF00000
000000000000
000000000000
000000000000
000000000000
000000000000
000000000000
001FFFFC0000
01FFFFFFC000
07FFFFFFF000
1FFFFFFFF800
3FFFFFFFFC00
3FFFFFFFFE00
7FFFFFFFFF00
7FFE003FFF00
7FFC001FFF00
FFF8000FFF80
FFF8000FFF80
FFF00007FF80
FFF00007FF80
FFF00007FF80
FFF00007FF80
FFF00007FF80
FFF00007FF80
FFF00007FF80
FFF00007FF80
FFF00007FF80
FFF00007FF80
FFF00007FF80
FFF00007FF80
FFF00007FF80
FFF00007FF80
FFF00007FF80
FFF00007FF80
FFF00007FF80
FFF00007FF80
FFF00007FF80
FFF00007FF80
FFF00007FF80
FFF00007FF80
FFF00007FF80
FFF00007FF80
FFF00007FF80
FFF80007FF80
FFF8000FFF80
7FF8000FFF00
7FFC001FFF00
7FFE003FFF00
7FFFFFFFFF00
3FFFFFFFFE00
3FFFFFFFFE00
1FFFFFFFFC00
0FFFFFFFF000
03FFFFFFC000
001FFFFC0000
ENDCHAR
STARTCHAR 00F6
ENCODING 246
SWIDTH 595 0
DWIDTH 50 0
BBX 42 63 4 0
BITMAP
00FF00FF0000
01FF81FF8000
03FFC3FFC000
03FFC3FFC000
03FFC3FFC000
03FFC3FFC000
03FFC3FFC000
03FFC3FFC000
03FFC3FFC000
01FF81FF8000
00FF00FF0000
000000000000
000000000000
000000000000
000000000000
000FFFFC0000
01FFFFFFE000
07FFFFFFF800
1FFFFFFFFC00
1FFFFFFFFE00
3FFFFFFFFF00
7FFFFFFFFF80
7FFE003FFF80
7FFC000FFF80
FFF80007FFC0
FFF80007FFC0
FFF00003FFC0
FFF00003FFC0
FFF00003FFC0
FFF00003FFC0
FFF00003FFC0
FFF00003FFC0
FFF00003FFC0
FFF00003FFC0
FFF00003FFC0
FFF00003FFC0
FFF00003FFC0
FFF00003FFC0
FFF00003FFC0
FFF00003FFC0
FFF00003FFC0
FFF00003FFC0
FFF00003FFC0
FFF00003FFC0
FFF00003FFC0
FFF00003FFC0
FFF00003FFC0
FFF00003FFC0
FFF00003FFC0
FFF00003FFC0
FFF00003FFC0
FFF80003FFC0
FFF80007FFC0
7FF80007FF80
7FFC000FFF80
7FFF001FFF80
7FFFFFFFFF80
3FFFFFFFFF00
3FFFFFFFFE00
1FFFFFFFFE00
07FFFFFFF800
01FFFFFFE000
001FFFFE0000
ENDCHAR
STARTCHAR 00F7
ENCODING 247
SWIDTH 607 0
DWIDTH 51 0
BBX 43 47 4 0
BITMAP
0000FFC00000
0001FFE00000
0003FFF00000
0003FFF00000
0003FFF00000
0003FFF00000
0003FFF00000
0003FFF00000
0003FFF00000
0003FFF00000
0001FFE00000
0000FFC00000
000000000000
000000000000
000000000000
000000000000
000000000000
000000000000
3FFFFFFFFF80
FFFFFFFFFFE0
FFFFFFFFFFE0
FFFFFFFFFFE0
FFFFFFFFFFE0
FFFFFFFFFFE0
FFFFFFFFFFE0
FFFFFFFFFFE0
FFFFFFFFFFE0
FFFFFFFFFFE0
FFFFFFFFFFE0
7FFFFFFFFF80
000000000000
000000000000
000000000000
000000000000
000000000000
0000FFC00000
0001FFE00000
0003FFF00000
0003FFF00000
0003FFF00000
0003FFF00000
0003FFF00000
0003FFF00000
0003FFF00000
0003FFF00000
0001FFE00000
0000FFC00000
ENDCHAR
STARTCHAR 00F8
ENCODING 248
SWIDTH 595 0
DWIDTH 50 0
BBX 41 62 4 -6
BITMAP
00000001FC00
00000001F800
00000003F800
00000003F000
00000007F000
00000007E000
0000000FE000
001FFFFFC000
01FFFFFFC000
07FFFFFFF000
1FFFFFFFFC00
3FFFFFFFFE00
3FFFFFFFFE00
7FFFFFFFFF00
7FFE007FFF00
7FFC00FFFF00
FFF800FFFF80
FFF800FFFF80
FFF001FFFF80
FFF001FFFF80
FFF003FFFF80
FFF003F7FF80
FFF007F7FF80
FFF007E7FF80
FFF00FE7FF80
FFF00FC7FF80
FFF01FC7FF80
FFF01F87FF80
FFF03F87FF80
FFF03F07FF80
FFF07F07FF80
FFF07E07FF80
FFF0FE07FF80
FFF0FE07FF80
FFF0FC07FF80
FFF1FC07FF80
FFF1F807FF80
FFF3F807FF80
FFF3F007FF80
FFF7F007FF80
FFF7E007FF80
FFFFE007FF80
FFFFC007FF80
FFFFC007FF80
FFFF800FFF80
7FFF800FFF00
7FFF801FFF00
7FFF003FFF00
7FFFFFFFFF00
3FFFFFFFFE00
3FFFFFFFFC00
1FFFFFFFFC00
0FFFFFFFF000
03FFFFFFC000
03FFFFFC0000
03F800000000
07F000000000
07F000000000
0FE000000000
0FE000000000
1FC000000000
1FC000000000
ENDCHAR
STARTCHAR 00F9
ENCODING 249
SWIDTH 619 0
DWIDTH 52 0
BBX 40 65 6 0
BITMAP
00FFE00000
007FF00000
003FF00000
003FF80000
001FF80000
000FFC0000
000FFC0000
0007FE0000
0007FE0000
0003FE0000
0001FF0000
0001FF0000
0000FF8000
00007F8000
0000000000
0000000000
0000000000
FFF0000FFF
FFF0000FFF
FFF0000FFF
FFF0000FFF
FFF0000FFF
FFF0000FFF
FFF0000FFF
FFF0000FFF
FFF0000FFF
FFF0000FFF
FFF0000FFF
FFF0000FFF
FFF0000FFF
FFF0000FFF
FFF0000FFF
FFF0000FFF
FFF0000FFF
FFF0000FFF
FFF0000FFF
FFF0000FFF
FFF0000FFF
FFF0000FFF
FFF0000FFF
FFF0000FFF
FFF0000FFF
FFF0000FFF
FFF0000FFF
FFF0000FFF
FFF0000FFF
FFF0000FFF
FFF0000FFF
FFF0000FFF
FFF0000FFF
FFF0000FFF
FFF0000FFF
FFF0000FFF
FFF0000FFF
FFF0000FFF
FFF8001FFF
FFF8001FFF
7FFC003FFF
7FFFE7FFFE
7FFFFFFFFE
3FFFFFFFFC
3FFFFFFFFC
1FFFFFFFF8
07FFFFFFE0
007FFFFC00
ENDCHAR
STARTCHAR 00FA
ENCODING 250
SWIDTH 619 0
DWIDTH 52 0
BBX 40 65 6 0
BITMAP
000007FF80
000007FF00
00000FFE00
00000FFE00
00000FFC00
00001FF800
00001FF800
00003FF000
00003FE000
00007FE000
00007FC000
0000FF8000
0000FF8000
0000FF0000
0000000000
0000000000
0000000000
FFF0000FFF
FFF0000FFF
FFF0000FFF
FFF0000FFF
FFF0000FFF
FFF0000FFF
FFF0000FFF
FFF0000FFF
FFF0000FFF
FFF0000FFF
FFF0000FFF
FFF0000FFF
FFF0000FFF
FFF0000FFF
FFF0000FFF
FFF0000FFF
FFF0000FFF
FFF0000FFF
FFF0000FFF
FFF0000FFF
FFF0000FFF
FFF0000FFF
FFF0000FFF
FFF0000FFF
FFF0000FFF
FFF0000FFF
FFF0000FFF
FFF0000FFF
FFF0000FFF
FFF0000FFF
FFF0000FFF
FFF0000FFF
FFF0000FFF
FFF0000FFF
FFF0000FFF
FFF0000FFF
FFF0000FFF
FFF0000FFF
FFF8001FFF
FFF8001FFF
7FFC003FFF
7FFFE7FFFE
7FFFFFFFFE
3FFFFFFFFC
3FFFFFFFFC
1FFFFFFFF8
07FFFFFFE0
007FFFFC00
ENDCHAR
STARTCHAR 00FB
ENCODING 251
SWIDTH 619 0
DWIDTH 52 0
BBX 40 65 6 0
BITMAP
0001FF0000
0003FF8000
0007FFC000
0007FFC000
000FFFE000
001FFFF000
001FFFF000
003FEFF800
007FC7FC00
007F83FE00
00FF01FE00
01FE00FF00
01FC007F80
0000000000
0000000000
0000000000
0000000000
FFF0000FFF
FFF0000FFF
FFF0000FFF
FFF0000FFF
FFF0000FFF
FFF0000FFF
FFF0000FFF
FFF0000FFF
FFF0000FFF
FFF0000FFF
FFF0000FFF
FFF0000FFF
FFF0000FFF
FFF0000FFF
FFF0000FFF
FFF0000FFF
FFF0000FFF
FFF0000FFF
FFF0000FFF
FFF0000FFF
FFF0000FFF
FFF0000FFF
FFF0000FFF
FFF0000FFF
FFF0000FFF
FFF0000FFF
FFF0000FFF
FFF0000FFF
FFF0000FFF
FFF0000FFF
FFF0000FFF
FFF0000FFF
FFF0000FFF
FFF0000FFF
FFF0000FFF
FFF0000FFF
FFF0000FFF
FFF0000FFF
FFF8001FFF
FFF8001FFF
7FFC003FFF
7FFFE7FFFE
7FFFFFFFFE
3FFFFFFFFC
3FFFFFFFFC
1FFFFFFFF8
07FFFFFFE0
007FFFFC00
ENDCHAR
STARTCHAR 00FC
ENCODING 252
SWIDTH 619 0
DWIDTH 52 0
BBX 40 63 6 0
BITMAP
00FF01FE00
01FF83FF00
03FFC7FF80
03FFC7FF80
03FFC7FF80
03FFC7FF80
03FFC7FF80
03FFC7FF80
03FFC7FF80
01FF83FF00
00FF01FE00
0000000000
0000000000
0000000000
0000000000
FFF0000FFF
FFF0000FFF
FFF0000FFF
FFF0000FFF
FFF0000FFF
FFF0000FFF
FFF0000FFF
FFF0000FFF
FFF0000FFF
FFF0000FFF
FFF0000FFF
FFF0000FFF
FFF0000FFF
FFF0000FFF
FFF0000FFF
FFF0000FFF
FFF0000FFF
FFF0000FFF
FFF0000FFF
FFF0000FFF
FFF0000FFF
FFF0000FFF
FFF0000FFF
FFF0000FFF
FFF0000FFF
FFF0000FFF
FFF0000FFF
FFF0000FFF
FFF0000FFF
FFF0000FFF
FFF0000FFF
FFF0000FFF
FFF0000FFF
FFF0000FFF
FFF0000FFF
FFF0000FFF
FFF0000FFF
FFF0000FFF
FFF8001FFF
FFF8001FFF
7FFC003FFF
7FFFE7FFFE
7FFFFFFFFE
3FFFFFFFFC
3FFFFFFFFC
1FFFFFFFF8
07FFFFFFE0
007FFFFC00
ENDCHAR
STARTCHAR 00FF
ENCODING 255
SWIDTH 571 0
DWIDTH 48 0
BBX 40 63 4 0
BITMAP
007F80FF00
00FFC1FF80
01FFE3FFC0
01FFE3FFC0
01FFE3FFC0
01FFE3FFC0
01FFE3FFC0
01FFE3FFC0
01FFE3FFC0
00FFC1FF80
007F80FF00
0000000000
0000000000
0000000000
0000000000
FFF0000FFF
FFF0000FFF
FFF0000FFF
FFF0000FFF
FFF0000FFF
FFF0000FFF
FFF0000FFF
FFF0000FFF
FFF0000FFF
FFF0000FFF
FFF0000FFF
FFF0000FFF
FFF0000FFF
FFF0000FFF
FFF0000FFF
FFF0000FFF
FFF0000FFF
FFF0000FFF
FFF0000FFF
FFF8001FFF
FFF8001FFF
FFFC003FFF
FFFE00FFFE
7FFFFFFFFE
7FFFFFFFFE
7FFFFFFFFC
3FFFFFFFF8
0FFFFFFFF0
01FFFFFF80
0003FFC000
0003FFC000
0003FFC000
0003FFC000
0003FFC000
0003FFC000
0003FFC000
0003FFC000
0003FFC000
0003FFC000
0003FFC000
0003FFC000
0003FFC000
0003FFC000
0003FFC000
0003FFC000
0003FFC000
0003FFC000
0003FFC000
ENDCHAR
STARTCHAR 0131
ENCODING 305
SWIDTH 273 0
DWIDTH 23 0
BBX 12 48 5 0
BITMAP
FFF0
FFF0
FFF0
FFF0
FFF0
FFF0
FFF0
FFF0
FFF0
FFF0
FFF0
FFF0
FFF0
FFF0
FFF0
FFF0
FFF0
FFF0
FFF0
FFF0
FFF0
FFF0
FFF0
FFF0
FFF0
FFF0
FFF0
FFF0
FFF0
FFF0
FFF0
FFF0
FFF0
FFF0
FFF0
FFF0
FFF0
FFF0
FFF0
FFF0
FFF0
FFF0
FFF0
FFF0
FFF0
FFF0
FFF0
FFF0
ENDCHAR
STARTCHAR 0152
ENCODING 338
SWIDTH 845 0
DWIDTH 71 0
BBX 61 65 4 0
BITMAP
000FFFFFFFFFFFF8
00FFFFFFFFFFFFF8
03FFFFFFFFFFFFF8
0FFFFFFFFFFFFFF8
1FFFFFFFFFFFFFF8
1FFFFFFFFFFFFFF8
3FFFFFFFFFFFFFF8
3FFFFFFFFFFFFFF8
7FFFFFFFFFFFFFF8
7FFFC7FFFFFC0000
7FFE00FFFFC00000
7FFC007FFF800000
7FF8003FFF000000
FFF8003FFF000000
FFF0001FFF000000
FFF0001FFE000000
FFF0001FFE000000
FFF0001FFE000000
FFF0001FFE000000
FFF0001FFE000000
FFF0001FFE000000
FFF0001FFE000000
FFF0001FFE000000
FFF0001FFE000000
FFF0001FFE000000
FFF0001FFE000000
FFF0001FFE000000
FFF0001FFFFFFE00
FFF0001FFFFFFE00
FFF0001FFFFFFE00
FFF0001FFFFFFE00
FFF0001FFFFFFE00
FFF0001FFFFFFE00
FFF0001FFFFFFE00
FFF0001FFFFFFE00
FFF0001FFFFFFE00
FFF0001FFE000000
FFF0001FFE000000
FFF0001FFE000000
FFF0001FFE000000
FFF0001FFE000000
FFF0001FFE000000
FFF0001FFE000000
FFF0001FFE000000
FFF0001FFE000000
FFF0001FFE000000
FFF0001FFE000000
FFF0001FFE000000
FFF0001FFE000000
FFF0001FFE000000
FFF8001FFF000000
FFF8003FFF000000
FFF8003FFF000000
7FFC007FFF800000
7FFE00FFFFC00000
7FFFC7FFFFFC0000
7FFFFFFFFFFFFFF8
7FFFFFFFFFFFFFF8
3FFFFFFFFFFFFFF8
3FFFFFFFFFFFFFF8
1FFFFFFFFFFFFFF8
0FFFFFFFFFFFFFF8
07FFFFFFFFFFFFF8
01FFFFFFFFFFFFF8
001FFFFFFFFFFFF8
ENDCHAR
STARTCHAR 0153
ENCODING 339
SWIDTH 845 0
DWIDTH 71 0
BBX 61 48 4 0
BITMAP
001FFFFFFFFFFFF8
03FFFFFFFFFFFFF8
0FFFFFFFFFFFFFF8
1FFFFFFFFFFFFFF8
3FFFFFFFFFFFFFF8
3FFFFFFFFFFFFFF8
7FFFFFFFFFFFFFF8
7FFE00FFFFE00000
7FFC007FFF800000
FFF8003FFF000000
FFF8003FFF000000
FFF0001FFE000000
FFF0001FFE000000
FFF0001FFE000000
FFF0001FFE000000
FFF0001FFE000000
FFF0001FFE000000
FFF0001FFE000000
FFF0001FFE000000
FFF0001FFFFFFE00
FFF0001FFFFFFE00
FFF0001FFFFFFE00
FFF0001FFFFFFE00
FFF0001FFFFFFE00
FFF0001FFFFFFE00
FFF0001FFFFFFE00
FFF0001FFE000000
FFF0001FFE000000
FFF0001FFE000000
FFF0001FFE000000
FFF0001FFE000000
FFF0001FFE000000
FFF0001FFE000000
FFF0001FFE000000
FFF0001FFE000000
FFF0001FFE000000
FFF0001FFE000000
FFF8003FFF000000
FFF8003FFF000000
7FFC007FFF800000
7FFE00FFFFE00000
7FFFFFFFFFFFFFF8
3FFFFFFFFFFFFFF8
3FFFFFFFFFFFFFF8
1FFFFFFFFFFFFFF8
0FFFFFFFFFFFFFF8
03FFFFFFFFFFFFF8
003FFFFFFFFFFFF8
ENDCHAR
STARTCHAR 0160
ENCODING 352
SWIDTH 571 0
DWIDTH 48 0
BBX 0 0 0 0
BITMAP
ENDCHAR
STARTCHAR 0161
ENCODING 353
SWIDTH 571 0
DWIDTH 48 0
BBX 0 0 0 0
BITMAP
ENDCHAR
STARTCHAR 0178
ENCODING 376
SWIDTH 571 0
DWIDTH 48 0
BBX 40 79 4 0
BITMAP
00FF00FF00
01FF81FF80
03FFC3FFC0
03FFC3FFC0
03FFC3FFC0
03FFC3FFC0
03FFC3FFC0
03FFC3FFC0
03FFC3FFC0
01FF81FF80
00FF00FF00
0000000000
0000000000
0000000000
FFF0000FFF
FFF0000FFF
FFF0000FFF
FFF0000FFF
FFF0000FFF
FFF0000FFF
FFF0000FFF
FFF0000FFF
FFF0000FFF
FFF0000FFF
FFF0000FFF
FFF0000FFF
FFF0000FFF
FFF0000FFF
FFF0000FFF
FFF0000FFF
FFF0000FFF
FFF0000FFF
FFF0000FFF
FFF0000FFF
FFF0000FFF
FFF0000FFF
FFF0000FFF
FFF0000FFF
FFF0000FFF
FFF0000FFF
FFF8001FFF
FFF8001FFF
FFF8001FFF
FFFC003FFF
FFFF00FFFF
7FFFFFFFFE
7FFFFFFFFE
7FFFFFFFFE
7FFFFFFFFC
3FFFFFFFFC
3FFFFFFFF8
1FFFFFFFF0
07FFFFFFE0
01FFFFFF00
0003FFC000
0003FFC000
0003FFC000
0003FFC000
0003FFC000
0003FFC000
0003FFC000
0003FFC000
0003FFC000
0003FFC000
0003FFC000
0003FFC000
0003FFC000
0003FFC000
0003FFC000
0003FFC000
0003FFC000
0003FFC000
0003FFC000
0003FFC000
0003FFC000
0003FFC000
0003FFC000
0003FFC000
0003FFC000
ENDCHAR
STARTCHAR 017D
ENCODING 381
SWIDTH 464 0
DWIDTH 39 0
BBX 0 0 0 0
BITMAP
ENDCHAR
STARTCHAR 017E
ENCODING 382
SWIDTH 464 0
DWIDTH 39 0
BBX 0 0 0 0
BITMAP
ENDCHAR
STARTCHAR 02C6
ENCODING 710
SWIDTH 357 0
DWIDTH 30 0
BBX 27 14 1 51
BITMAP
007FC000
00FFE000
01FFE000
01FFF000
03FFF800
07FFF800
07FFFC00
0FFBFE00
1FF1FE00
1FE0FF00
3FC07F80
7F803F80
7F001FC0
FE000FE0
ENDCHAR
STARTCHAR 02C7
ENCODING 711
SWIDTH 357 0
DWIDTH 30 0
BBX 27 14 1 51
BITMAP
FE000FE0
7F001FC0
3FC03F80
3FE07F80
1FF1FF00
0FFBFE00
0FFFFE00
07FFFC00
03FFF800
03FFF800
01FFF000
00FFE000
007FE000
007FC000
ENDCHAR
STARTCHAR 02D8
ENCODING 728
SWIDTH 297 0
DWIDTH 25 0
BBX 24 13 1 52
BITMAP
FC003F
FE007F
FE007F
FF00FF
7FC1FF
7FFFFE
7FFFFE
3FFFFC
1FFFF8
0FFFF8
07FFE0
03FFC0
007E00
ENDCHAR
STARTCHAR 02D9
ENCODING 729
SWIDTH 285 0
DWIDTH 24 0
BBX 12 9 6 53
BITMAP
FFF0
FFF0
FFF0
FFF0
FFF0
FFF0
FFF0
FFF0
FFF0
ENDCHAR
STARTCHAR 02DA
ENCODING 730
SWIDTH 238 0
DWIDTH 20 0
BBX 15 15 2 51
BITMAP
07C0
1FF0
3FF8
7FFC
7C7C
F83E
F01E
F01E
F01E
F83E
7C7C
7FFC
3FF8
1FF0
07C0
ENDCHAR
STARTCHAR 02DB
ENCODING 731
SWIDTH 297 0
DWIDTH 25 0
BBX 17 18 1 -18
BITMAP
007800
00F800
01F000
07E000
0FC000
1FC000
3F8000
7F0000
7F0000
FE0000
FE0000
FE0000
FF0000
7F8000
7FFF80
3FFF80
0FFE00
01F800
ENDCHAR
STARTCHAR 02DC
ENCODING 732
SWIDTH 380 0
DWIDTH 32 0
BBX 30 9 1 54
BITMAP
01F8007C
07FF00F8
1FFFE1F8
3FFFFFF0
3FFFFFE0
7FFFFFE0
FFFFFF80
FFFFFF00
00007000
ENDCHAR
STARTCHAR 02DD
ENCODING 733
SWIDTH 404 0
DWIDTH 34 0
BBX 32 14 0 51
BITMAP
03FF87FF
03FF87FF
07FF0FFE
07FE0FFC
0FFE1FFC
0FFC1FF8
0FF83FF0
1FF83FF0
1FF03FE0
3FE07FC0
3FE07FC0
7FC0FF80
7F80FF00
FF81FF00
ENDCHAR
STARTCHAR 2013
ENCODING 8211
SWIDTH 607 0
DWIDTH 51 0
BBX 38 10 6 19
BITMAP
FFFFFFFFFC
FFFFFFFFFC
FFFFFFFFFC
FFFFFFFFFC
FFFFFFFFFC
FFFFFFFFFC
FFFFFFFFFC
FFFFFFFFFC
FFFFFFFFFC
FFFFFFFFFC
ENDCHAR
STARTCHAR 2014
ENCODING 8212
SWIDTH 1000 0
DWIDTH 84 0
BBX 70 10 6 19
BITMAP
FFFFFFFFFFFFFFFFFC
FFFFFFFFFFFFFFFFFC
FFFFFFFFFFFFFFFFFC
FFFFFFFFFFFFFFFFFC
FFFFFFFFFFFFFFFFFC
FFFFFFFFFFFFFFFFFC
FFFFFFFFFFFFFFFFFC
FFFFFFFFFFFFFFFFFC
FFFFFFFFFFFFFFFFFC
FFFFFFFFFFFFFFFFFC
ENDCHAR
STARTCHAR 2018
ENCODING 8216
SWIDTH 297 0
DWIDTH 25 0
BBX 14 19 6 46
BITMAP
007C
03FC
07FC
1FFC
1FF8
3F80
7F00
7FF0
7FF8
FFFC
FFFC
FFFC
FFFC
FFFC
FFFC
FFFC
FFFC
7FF8
3FF0
ENDCHAR
STARTCHAR 2019
ENCODING 8217
SWIDTH 297 0
DWIDTH 25 0
BBX 14 19 5 45
BITMAP
3FF0
7FF8
FFFC
FFFC
FFFC
FFFC
FFFC
FFFC
FFFC
FFFC
7FFC
3FF8
01F8
07F0
3FF0
FFE0
FFC0
FF00
F800
ENDCHAR
STARTCHAR 201A
ENCODING 8218
SWIDTH 297 0
DWIDTH 25 0
BBX 14 19 5 -7
BITMAP
3FF0
7FF8
FFFC
FFFC
FFFC
FFFC
FFFC
FFFC
FFFC
FFFC
7FF8
3FF8
03F8
07F0
7FF0
FFE0
FF80
FF00
F800
ENDCHAR
STARTCHAR 201C
ENCODING 8220
SWIDTH 500 0
DWIDTH 42 0
BBX 31 19 5 46
BITMAP
007C003E
03FC01FE
07FC03FE
1FFC0FFE
1FF80FFC
3F801FC0
7F003F80
7FF03FF8
7FF83FFC
FFFC7FFE
FFFC7FFE
FFFC7FFE
FFFC7FFE
FFFC7FFE
FFFC7FFE
FFFC7FFE
FFFC7FFE
7FF83FFC
3FF01FF8
ENDCHAR
STARTCHAR 201D
ENCODING 8221
SWIDTH 500 0
DWIDTH 42 0
BBX 32 19 5 45
BITMAP
3FF00FFC
7FF81FFE
FFFC3FFF
FFFC3FFF
FFFC3FFF
FFFC3FFF
FFFC3FFF
FFFC3FFF
FFFC3FFF
FFFC3FFF
7FFC1FFF
3FF80FFE
01F8007E
07F001FC
3FF00FFC
FFE03FF8
FFC03FF0
FF003FC0
F8003E00
ENDCHAR
STARTCHAR 201E
ENCODING 8222
SWIDTH 500 0
DWIDTH 42 0
BBX 32 19 5 -7
BITMAP
3FF00FFC
7FF81FFE
FFFC3FFF
FFFC3FFF
FFFC3FFF
FFFC3FFF
FFFC3FFF
FFFC3FFF
FFFC3FFF
FFFC3FFF
7FF81FFE
3FF80FFE
03F800FE
07F001FC
7FF01FFC
FFE03FF8
FF803FE0
FF003FC0
F8003E00
ENDCHAR
STARTCHAR 2020
ENCODING 8224
SWIDTH 440 0
DWIDTH 37 0
BBX 36 75 0 -9
BITMAP
0003FE0000
0007FE0000
000FFF0000
000FFF0000
000FFF0000
000FFF0000
000FFF0000
000FFF0000
000FFF0000
000FFF0000
000FFF0000
000FFF0000
000FFF0000
000FFF0000
000FFF0000
000FFF0000
000FFF0000
000FFF0000
000FFF0000
000FFF0000
FFFFFFFFF0
FFFFFFFFF0
FFFFFFFFF0
FFFFFFFFF0
FFFFFFFFF0
FFFFFFFFF0
FFFFFFFFF0
FFFFFFFFF0
FFFFFFFFF0
FFFFFFFFF0
FFFFFFFFF0
000FFF0000
000FFF0000
000FFF0000
000FFF0000
000FFF0000
000FFF0000
000FFF0000
000FFF0000
000FFF0000
000FFF0000
000FFF0000
000FFF0000
000FFF0000
000FFF0000
000FFF0000
000FFF0000
000FFF0000
000FFF0000
000FFF0000
000FFF0000
000FFF0000
000FFF0000
000FFF0000
000FFF0000
000FFF0000
000FFF0000
000FFF0000
000FFF0000
000FFF0000
000FFF0000
000FFF0000
000FFF0000
000FFF0000
000FFF0000
000FFF0000
000FFF0000
000FFF0000
000FFF0000
000FFF0000
000FFF0000
000FFF0000
000FFF0000
0007FE0000
0007FE0000
ENDCHAR
STARTCHAR 2022
ENCODING 8226
SWIDTH 607 0
DWIDTH 51 0
BBX 30 31 10 14
BITMAP
00010000
003FF800
00FFFE00
03FFFF00
07FFFF80
0FFFFFC0
1FFFFFE0
3FFFFFF0
3FFFFFF0
7FFFFFF8
7FFFFFF8
7FFFFFF8
FFFFFFFC
FFFFFFFC
FFFFFFFC
FFFFFFFC
FFFFFFFC
FFFFFFFC
FFFFFFFC
7FFFFFFC
7FFFFFF8
7FFFFFF8
3FFFFFF0
3FFFFFF0
1FFFFFE0
0FFFFFE0
07FFFFC0
03FFFF80
01FFFE00
007FFC00
001FE000
ENDCHAR
STARTCHAR 2026
ENCODING 8230
SWIDTH 1000 0
DWIDTH 84 0
BBX 69 12 7 1
BITMAP
3FF00007FE00007FE0
7FF8000FFF0000FFF0
FFFC001FFF8001FFF8
FFFC001FFF8001FFF8
FFFC001FFF8001FFF8
FFFC001FFF8001FFF8
FFFC001FFF8001FFF8
FFFC001FFF8001FFF8
FFFC001FFF8001FFF8
FFFC001FFF8001FFF8
7FF8000FFF0000FFF0
3FF00007FE00007FE0
ENDCHAR
STARTCHAR 2030
ENCODING 8240
SWIDTH 1071 0
DWIDTH 90 0
BBX 82 66 3 0
BITMAP
03FFE000007E0000000000
1FFFFC00007E0000000000
3FFFFE0000FC0000000000
7FFFFF0000FC0000000000
7FC1FF0001F80000000000
7F007F8003F00000000000
FE003F8003F00000000000
FE003F8007E00000000000
FE003F8007E00000000000
FE003F800FC00000000000
FE003F800FC00000000000
FE003F801F800000000000
FE003F801F800000000000
FE003F803F000000000000
FE003F803F000000000000
FE003F807E000000000000
FE003F80FC000000000000
FE003F80FC000000000000
FE003F81F8000000000000
FE003F81F8000000000000
FE003F83F0000000000000
FE003F83F0000000000000
FE003F87E0000000000000
FE003F87E0000000000000
FF007F8FC0000000000000
FF007F8FC0000000000000
7F80FF1F80000000000000
7FFFFF3F00000000000000
3FFFFE3F00000000000000
1FFFFC7E00000000000000
07FFE07E00000000000000
000000FC00000000000000
000000FC00000000000000
000001F800000000000000
000001F800000000000000
000003F000000000000000
000003E000000000000000
000007E03FFE0003FFF000
00000FC1FFFFC01FFFFE00
00000FC3FFFFE03FFFFF00
00001F87FFFFF07FFFFF80
00001F87F80FF07F807F80
00003F0FF007F8FF003FC0
00003F0FE003F8FE001FC0
00007E0FE003F8FE001FC0
00007E0FE003F8FE001FC0
0000FC0FE003F8FE001FC0
0001F80FE003F8FE001FC0
0001F80FE003F8FE001FC0
0003F00FE003F8FE001FC0
0003F00FE003F8FE001FC0
0007E00FE003F8FE001FC0
0007E00FE003F8FE001FC0
000FC00FE003F8FE001FC0
000FC00FE003F8FE001FC0
001F800FE003F8FE001FC0
001F800FE003F8FE001FC0
003F000FE003F8FE001FC0
007E000FE003F8FE001FC0
007E000FF003F8FF003FC0
00FC000FF007F8FF003FC0
00FC0007F80FF07F807F80
01F80007FFFFF07FFFFF80
01F80003FFFFE03FFFFF00
03F00001FFFFC01FFFFE00
03F000007FFF0007FFF000
ENDCHAR
STARTCHAR 2039
ENCODING 8249
SWIDTH 238 0
DWIDTH 20 0
BBX 15 31 3 7
BITMAP
00FE
00FC
01F8
03F8
03F0
07F0
07E0
0FE0
0FC0
1FC0
3F80
3F80
7F00
7F00
FE00
7E00
7F00
3F00
3F80
3F80
1FC0
1FC0
0FE0
0FE0
07F0
07F0
03F0
03F8
01F8
01FC
00FC
ENDCHAR
STARTCHAR 203A
ENCODING 8250
SWIDTH 238 0
DWIDTH 20 0
BBX 14 31 3 7
BITMAP
FC00
FE00
7E00
7F00
3F00
3F80
1F80
1FC0
0FC0
0FE0
07E0
07F0
03F0
03F8
01F8
01FC
01FC
01FC
03F8
03F8
07F0
07E0
0FE0
0FC0
1FC0
1F80
3F80
3F00
7F00
FE00
FC00
ENDCHAR
STARTCHAR 2044
ENCODING 8260
SWIDTH 428 0
DWIDTH 36 0
BBX 42 65 -3 0
BITMAP
000000000FC0
000000001F80
000000003F80
000000003F00
000000007E00
000000007E00
00000000FC00
00000000FC00
00000001F800
00000001F800
00000003F000
00000003F000
00000007E000
0000000FE000
0000000FC000
0000001F8000
0000001F8000
0000003F0000
0000003F0000
0000007E0000
0000007E0000
000000FC0000
000001FC0000
000001F80000
000003F00000
000003F00000
000007E00000
000007E00000
00000FC00000
00000FC00000
00001F800000
00001F800000
00003F000000
00007E000000
00007E000000
0000FC000000
0000FC000000
0001F8000000
0001F8000000
0003F0000000
0003F0000000
0007E0000000
000FE0000000
000FC0000000
001F80000000
001F80000000
003F00000000
003F00000000
007E00000000
007E00000000
00FC00000000
00FC00000000
01F800000000
03F000000000
03F000000000
07E000000000
07E000000000
0FC000000000
0FC000000000
1F8000000000
1F8000000000
3F0000000000
7F0000000000
7E0000000000
FC0000000000
ENDCHAR
STARTCHAR 2122
ENCODING 8482
SWIDTH 607 0
DWIDTH 51 0
BBX 38 21 5 44
BITMAP
FFF87FFFE0
FFF9FFFFF8
FFF9FFFFF8
0F03F3F8FC
0F03E1F07C
0F03E1F07C
0F03E1F07C
0F03E1F07C
0F03E1F07C
0F03E1F07C
0F03E1F07C
0F03E1F07C
0F03E1F07C
0F03E1F07C
0F03E1F07C
0F03E1F07C
0F03E1F07C
0F03E1F07C
0F03E1F07C
0F03E1F07C
0F03E1F07C
ENDCHAR
STARTCHAR 2202
ENCODING 8706
SWIDTH 607 0
DWIDTH 51 0
BBX 41 65 4 0
BITMAP
000FFFF80000
00FFFFFF8000
03FFFFFFE000
07FFFFFFF000
0FFFFFFFF800
1FFFFFFFFC00
3FFFFFFFFE00
3FFFFFFFFE00
7FFFFFFFFF00
7FFF80FFFF00
7FFE003FFF00
7FFC001FFF00
7FF8000FFF00
FFF8000FFF80
FFF8000FFF80
FFF00007FF80
FFF00007FF80
FFF00007FF80
FFF00007FF80
FFF00007FF80
FFF00007FF80
FFF00007FF80
FFF00007FF80
FFF00007FF80
FFF00007FF80
FFF00007FF80
FFF00007FF80
FFFFFFFFFF80
FFFFFFFFFF80
FFFFFFFFFF80
FFFFFFFFFF80
FFFFFFFFFF80
FFFFFFFFFF80
FFFFFFFFFF80
FFFFFFFFFF80
FFFFFFFFFF80
FFF00007FF80
FFF00007FF80
FFF00007FF80
FFF00007FF80
FFF00007FF80
FFF00007FF80
FFF00007FF80
FFF00007FF80
FFF00007FF80
FFF00007FF80
FFF00007FF80
FFF00007FF80
FFF00007FF80
FFF80007FF80
FFF8000FFF80
FFF8000FFF80
7FF8000FFF00
7FFC001FFF00
7FFE001FFF00
7FFF007FFF00
7FFFFFFFFF00
3FFFFFFFFE00
3FFFFFFFFE00
1FFFFFFFFC00
1FFFFFFFF800
0FFFFFFFF800
03FFFFFFE000
00FFFFFF8000
001FFFF80000
ENDCHAR
STARTCHAR 220F
ENCODING 8719
SWIDTH 571 0
DWIDTH 48 0
BBX 0 0 0 0
BITMAP
ENDCHAR
STARTCHAR 2211
ENCODING 8721
SWIDTH 571 0
DWIDTH 48 0
BBX 37 55 6 -7
BITMAP
001FFFE000
03FFFFFE00
0FFFFFFFC0
1FFFFFFFE0
3FFFFFFFF0
3FFFFFFFF8
7FFFFFFFF8
7FFC01FFF8
7FF800FFF8
FFF8007FF8
FFF0007FF8
FFF0007FF8
FFF0007FF8
FFF0007FF8
FFF0007FF8
FFF000FFF8
FFF001FFF8
FFF007FFF8
FFF0FFFFF0
FFF0FFFFE0
FFF0FFFFC0
FFF0FFFC00
FFF0FFFF80
FFF0FFFFC0
FFF0FFFFE0
FFF00FFFF0
FFF001FFF0
FFF000FFF8
FFF000FFF8
FFF0007FF8
FFF0007FF8
FFF0007FF8
FFF0007FF8
FFF0007FF8
FFF0007FF8
FFF0007FF8
FFF0007FF8
FFF0007FF8
FFF000FFF8
FFF001FFF8
FFF007FFF8
FFF0FFFFF8
FFF0FFFFF0
FFF0FFFFF0
FFF0FFFFE0
FFF0FFFF80
FFF0FFFE00
FFF0FFC000
FFF0000000
FFF0000000
FFF0000000
FFF0000000
FFF0000000
FFF0000000
FFF0000000
ENDCHAR
STARTCHAR 2260
ENCODING 8800
SWIDTH 559 0
DWIDTH 47 0
BBX 37 55 6 -7
BITMAP
001FFFE000
03FFFFFE00
0FFFFFFFC0
1FFFFFFFE0
3FFFFFFFF0
3FFFFFFFF8
7FFFFFFFF8
7FFC01FFF8
7FF800FFF8
FFF8007FF8
FFF0007FF8
FFF0007FF8
FFF0007FF8
FFF0007FF8
FFF0007FF8
FFF000FFF8
FFF001FFF8
FFF007FFF8
FFF0FFFFF0
FFF0FFFFE0
FFF0FFFFC0
FFF0FFFC00
FFF0FFFF80
FFF0FFFFC0
FFF0FFFFE0
FFF00FFFF0
FFF001FFF0
FFF000FFF8
FFF000FFF8
FFF0007FF8
FFF0007FF8
FFF0007FF8
FFF0007FF8
FFF0007FF8
FFF0007FF8
FFF0007FF8
FFF0007FF8
FFF0007FF8
FFF000FFF8
FFF001FFF8
FFF007FFF8
FFF0FFFFF8
FFF0FFFFF0
FFF0FFFFF0
FFF0FFFFE0
FFF0FFFF80
FFF0FFFE00
FFF0FFC000
FFF0000000
FFF0000000
FFF0000000
FFF0000000
FFF0000000
FFF0000000
FFF0000000
ENDCHAR
ENDFONT
